ISO-10303-21;
HEADER;
FILE_DESCRIPTION (( 'STEP AP214' ),
    '1' );
FILE_NAME ('推杆固定件v2.STEP',
    '2026-07-27T14:53:01',
    ( '' ),
    ( '' ),
    'SwSTEP 2.0',
    'SolidWorks 2022',
    '' );
FILE_SCHEMA (( 'AUTOMOTIVE_DESIGN' ));
ENDSEC;

DATA;
#1 = VERTEX_POINT ( 'NONE', #135 ) ;
#2 = DIRECTION ( 'NONE',  ( 1.000000000000000000, 0.000000000000000000, 0.000000000000000000 ) ) ;
#3 = ORIENTED_EDGE ( 'NONE', *, *, #1002, .T. ) ;
#4 = AXIS2_PLACEMENT_3D ( 'NONE', #967, #558, #889 ) ;
#5 = VECTOR ( 'NONE', #258, 1000.000000000000000 ) ;
#6 = LINE ( 'NONE', #650, #456 ) ;
#7 = PRODUCT_DEFINITION_CONTEXT ( 'detailed design', #576, 'design' ) ;
#8 = VERTEX_POINT ( 'NONE', #587 ) ;
#9 = CARTESIAN_POINT ( 'NONE',  ( -1.561251128379126385E-14, -1.734723475976807094E-15, 5.000000000000000000 ) ) ;
#10 = ORIENTED_EDGE ( 'NONE', *, *, #912, .T. ) ;
#11 = VERTEX_POINT ( 'NONE', #753 ) ;
#12 = PRODUCT ( '\X2\63a8674656fa5b9a4ef6\X0\v2', '\X2\63a8674656fa5b9a4ef6\X0\v2', '', ( #434 ) ) ;
#13 = LINE ( 'NONE', #959, #922 ) ;
#14 = DIRECTION ( 'NONE',  ( -0.7071067811866239561, -0.7071067811864711894, 0.000000000000000000 ) ) ;
#15 = ORIENTED_EDGE ( 'NONE', *, *, #358, .T. ) ;
#16 = CARTESIAN_POINT ( 'NONE',  ( 12.97659390289363657, 17.02340609710035579, -22.84279326771811469 ) ) ;
#17 = VERTEX_POINT ( 'NONE', #505 ) ;
#18 = ORIENTED_EDGE ( 'NONE', *, *, #400, .T. ) ;
#19 = FACE_OUTER_BOUND ( 'NONE', #471, .T. ) ;
#20 = DIRECTION ( 'NONE',  ( 0.6324555320337088560, 0.000000000000000000, 0.7745966692414564259 ) ) ;
#21 = ORIENTED_EDGE ( 'NONE', *, *, #211, .F. ) ;
#22 = CARTESIAN_POINT ( 'NONE',  ( 5.353715555169805231E-15, 8.950000000000006395, 14.90000000000000036 ) ) ;
#23 = APPLICATION_PROTOCOL_DEFINITION ( 'draft international standard', 'automotive_design', 1998, #576 ) ;
#24 = ADVANCED_FACE ( 'NONE', ( #607 ), #836, .T. ) ;
#25 = DIRECTION ( 'NONE',  ( -0.6123724356957315207, 0.6123724356958639703, 0.4999999999999921174 ) ) ;
#26 = CARTESIAN_POINT ( 'NONE',  ( -6.050000000000014033, -8.950000000000002842, 5.000000000000000000 ) ) ;
#27 = CARTESIAN_POINT ( 'NONE',  ( 8.950000000000013500, 0.000000000000000000, 14.90000000000000036 ) ) ;
#28 = FACE_OUTER_BOUND ( 'NONE', #527, .T. ) ;
#29 = DIRECTION ( 'NONE',  ( -0.6123724356957315207, 0.6123724356958639703, 0.4999999999999921174 ) ) ;
#30 = VECTOR ( 'NONE', #468, 1000.000000000000000 ) ;
#31 = CIRCLE ( 'NONE', #947, 21.21320343559642652 ) ;
#32 = DIRECTION ( 'NONE',  ( 0.3535533905932681797, -0.3535533905932682353, 0.8660254037844432595 ) ) ;
#33 = LINE ( 'NONE', #75, #669 ) ;
#34 = LINE ( 'NONE', #117, #869 ) ;
#35 = CARTESIAN_POINT ( 'NONE',  ( 18.19786629235906261, -39.41106972796404051, -32.17900368358268537 ) ) ;
#36 = CARTESIAN_POINT ( 'NONE',  ( 22.97336374810678805, -25.48157211061419147, -32.02623888429724275 ) ) ;
#37 = ORIENTED_EDGE ( 'NONE', *, *, #913, .F. ) ;
#38 = DIRECTION ( 'NONE',  ( 0.000000000000000000, -1.000000000000000000, 0.000000000000000000 ) ) ;
#39 = UNCERTAINTY_MEASURE_WITH_UNIT (LENGTH_MEASURE( 1.000000000000000082E-05 ), #122, 'distance_accuracy_value', 'NONE');
#40 = DIRECTION ( 'NONE',  ( 0.000000000000000000, 1.000000000000000000, -0.000000000000000000 ) ) ;
#41 = FACE_OUTER_BOUND ( 'NONE', #658, .T. ) ;
#42 = EDGE_LOOP ( 'NONE', ( #230, #827, #583, #667 ) ) ;
#43 = VECTOR ( 'NONE', #29, 1000.000000000000000 ) ;
#44 = DIRECTION ( 'NONE',  ( -0.000000000000000000, -0.000000000000000000, -1.000000000000000000 ) ) ;
#45 = CARTESIAN_POINT ( 'NONE',  ( 41.93793460887307134, -12.51909523929373513, -24.67520505311295409 ) ) ;
#46 = ORIENTED_EDGE ( 'NONE', *, *, #739, .F. ) ;
#47 = EDGE_CURVE ( 'NONE', #1051, #73, #522, .T. ) ;
#48 = ADVANCED_FACE ( 'NONE', ( #346 ), #695, .T. ) ;
#49 = ORIENTED_EDGE ( 'NONE', *, *, #530, .F. ) ;
#50 =( BOUNDED_SURFACE ( )  B_SPLINE_SURFACE ( 3, 1, ( 
 ( #113, #261 ),
 ( #432, #599 ),
 ( #501, #16 ),
 ( #990, #582 ) ),
 .UNSPECIFIED., .F., .F., .T. ) 
 B_SPLINE_SURFACE_WITH_KNOTS ( ( 4, 4 ),
 ( 2, 2 ),
 ( 0.000000000000000000, 1.000000000000000000 ),
 ( 0.000000000000000000, 1.000000000000000000 ),
 .UNSPECIFIED. ) 
 GEOMETRIC_REPRESENTATION_ITEM ( )  RATIONAL_B_SPLINE_SURFACE ( (
 ( 1.000000000000000000, 1.000000000000000000),
 ( 0.3333333333333330373, 0.3333333333333330373),
 ( 0.3333333333333330373, 0.3333333333333330373),
 ( 1.000000000000000000, 1.000000000000000000) ) ) 
 REPRESENTATION_ITEM ( '' )  SURFACE ( )  );
#51 = PLANE ( 'NONE',  #377 ) ;
#52 = EDGE_CURVE ( 'NONE', #991, #480, #996, .T. ) ;
#53 = VECTOR ( 'NONE', #40, 1000.000000000000000 ) ;
#54 = STYLED_ITEM ( 'NONE', ( #790 ), #831 ) ;
#55 = DIRECTION ( 'NONE',  ( -0.4743416490252426176, -0.7905694150420925492, 0.3872983346207636846 ) ) ;
#56 = EDGE_CURVE ( 'NONE', #746, #743, #445, .T. ) ;
#57 = VECTOR ( 'NONE', #415, 999.9999999999998863 ) ;
#58 =( NAMED_UNIT ( * ) SI_UNIT ( $, .STERADIAN. ) SOLID_ANGLE_UNIT ( ) );
#59 = ADVANCED_FACE ( 'NONE', ( #186 ), #380, .T. ) ;
#60 = DIRECTION ( 'NONE',  ( 0.6123724356957315207, -0.6123724356958638593, -0.4999999999999921729 ) ) ;
#61 = PRODUCT_DEFINITION_FORMATION_WITH_SPECIFIED_SOURCE ( '任何', '', #12, .NOT_KNOWN. ) ;
#62 = ORIENTED_EDGE ( 'NONE', *, *, #529, .T. ) ;
#63 = DIRECTION ( 'NONE',  ( -0.000000000000000000, -0.000000000000000000, -1.000000000000000000 ) ) ;
#64 = FACE_OUTER_BOUND ( 'NONE', #340, .T. ) ;
#65 = ORIENTED_EDGE ( 'NONE', *, *, #462, .T. ) ;
#66 = CARTESIAN_POINT ( 'NONE',  ( 12.53742937314320294, -41.13242644670584980, -25.63929240718787739 ) ) ;
#67 = CARTESIAN_POINT ( 'NONE',  ( -8.950000000000013500, -8.950000000000001066, 14.90000000000000036 ) ) ;
#68 = ORIENTED_EDGE ( 'NONE', *, *, #945, .F. ) ;
#69 = AXIS2_PLACEMENT_3D ( 'NONE', #348, #903, #355 ) ;
#70 = LINE ( 'NONE', #955, #80 ) ;
#71 = CARTESIAN_POINT ( 'NONE',  ( 0.000000000000000000, 6.050000000000003375, 14.90000000000000036 ) ) ;
#72 = CARTESIAN_POINT ( 'NONE',  ( 13.95689536314232626, -37.27256085493614535, -28.62815930360250150 ) ) ;
#73 = VERTEX_POINT ( 'NONE', #1017 ) ;
#74 = VERTEX_POINT ( 'NONE', #941 ) ;
#75 = CARTESIAN_POINT ( 'NONE',  ( 14.99999999999998579, 15.00000000000000000, 0.000000000000000000 ) ) ;
#76 = LINE ( 'NONE', #97, #216 ) ;
#77 = ORIENTED_EDGE ( 'NONE', *, *, #506, .T. ) ;
#78 = LINE ( 'NONE', #301, #598 ) ;
#79 = DIRECTION ( 'NONE',  ( -0.000000000000000000, -0.000000000000000000, -1.000000000000000000 ) ) ;
#80 = VECTOR ( 'NONE', #305, 1000.000000000000000 ) ;
#81 = VECTOR ( 'NONE', #909, 1000.000000000000000 ) ;
#82 = VECTOR ( 'NONE', #1046, 1000.000000000000000 ) ;
#83 = ORIENTED_EDGE ( 'NONE', *, *, #952, .F. ) ;
#84 = ADVANCED_FACE ( 'NONE', ( #41 ), #1021, .F. ) ;
#85 = DIRECTION ( 'NONE',  ( 0.000000000000000000, 0.000000000000000000, -1.000000000000000000 ) ) ;
#86 = ORIENTED_EDGE ( 'NONE', *, *, #435, .F. ) ;
#87 = CARTESIAN_POINT ( 'NONE',  ( -6.050000000000014033, 8.950000000000002842, 14.90000000000000036 ) ) ;
#88 = ORIENTED_EDGE ( 'NONE', *, *, #618, .T. ) ;
#89 = EDGE_CURVE ( 'NONE', #662, #564, #937, .T. ) ;
#90 = DIRECTION ( 'NONE',  ( 0.000000000000000000, -0.000000000000000000, 1.000000000000000000 ) ) ;
#91 = VERTEX_POINT ( 'NONE', #860 ) ;
#92 = ORIENTED_EDGE ( 'NONE', *, *, #293, .T. ) ;
#93 = VECTOR ( 'NONE', #640, 1000.000000000000000 ) ;
#94 = EDGE_CURVE ( 'NONE', #703, #448, #31, .T. ) ;
#95 = LINE ( 'NONE', #657, #701 ) ;
#96 = ORIENTED_EDGE ( 'NONE', *, *, #585, .F. ) ;
#97 = CARTESIAN_POINT ( 'NONE',  ( -21.21320343559644073, -1.734723475976807094E-15, 5.000000000000000000 ) ) ;
#98 = ORIENTED_EDGE ( 'NONE', *, *, #430, .F. ) ;
#99 = VERTEX_POINT ( 'NONE', #157 ) ;
#100 = FACE_OUTER_BOUND ( 'NONE', #410, .T. ) ;
#101 = CARTESIAN_POINT ( 'NONE',  ( 14.99999999999998579, 15.00000000000000000, 5.000000000000000000 ) ) ;
#102 = ADVANCED_FACE ( 'NONE', ( #244 ), #549, .F. ) ;
#103 = DIRECTION ( 'NONE',  ( 0.7071067811864711894, -0.7071067811866239561, 0.000000000000000000 ) ) ;
#104 = ADVANCED_FACE ( 'NONE', ( #964 ), #418, .F. ) ;
#105 = DIRECTION ( 'NONE',  ( 0.000000000000000000, 1.000000000000000000, -0.000000000000000000 ) ) ;
#106 = ORIENTED_EDGE ( 'NONE', *, *, #540, .T. ) ;
#107 = AXIS2_PLACEMENT_3D ( 'NONE', #586, #185, #345 ) ;
#108 =( GEOMETRIC_REPRESENTATION_CONTEXT ( 3 ) GLOBAL_UNCERTAINTY_ASSIGNED_CONTEXT ( ( #39 ) ) GLOBAL_UNIT_ASSIGNED_CONTEXT ( ( #122, #126, #58 ) ) REPRESENTATION_CONTEXT ( 'NONE', 'WORKASPACE' ) );
#109 = ORIENTED_EDGE ( 'NONE', *, *, #858, .F. ) ;
#110 = COLOUR_RGB ( '',0.7921568627450980005, 0.8196078431372548767, 0.9333333333333333481 ) ;
#111 = CARTESIAN_POINT ( 'NONE',  ( -6.050000000000014033, -6.050000000000003375, 14.90000000000000036 ) ) ;
#112 = CARTESIAN_POINT ( 'NONE',  ( 37.35159390289415171, -7.351593902898996724, -18.24999999999969447 ) ) ;
#113 = CARTESIAN_POINT ( 'NONE',  ( 7.351593902894167698, -37.35159390289901182, -18.24999999999969091 ) ) ;
#114 = DIRECTION ( 'NONE',  ( 0.9258200997725541948, 0.000000000000000000, -0.3779644730092203697 ) ) ;
#115 = FILL_AREA_STYLE ('',( #750 ) ) ;
#116 = PLANE ( 'NONE',  #344 ) ;
#117 = CARTESIAN_POINT ( 'NONE',  ( 23.88252499213225022, -38.88252499213945867, -14.50000000000029665 ) ) ;
#118 = CARTESIAN_POINT ( 'NONE',  ( 8.950000000000013500, 6.050000000000003375, 14.90000000000000036 ) ) ;
#119 = CARTESIAN_POINT ( 'NONE',  ( 27.28197950863428289, -21.31464986974481590, -31.85270047278646643 ) ) ;
#120 = LINE ( 'NONE', #266, #1004 ) ;
#121 = B_SPLINE_CURVE_WITH_KNOTS ( 'NONE', 3,
 ( #223, #1037, #1041, #389, #142, #308, #66, #793, #625, #543, #872, #461, #72, #159, #236, #220 ),
 .UNSPECIFIED., .F., .F.,
 ( 4, 2, 2, 2, 2, 2, 2, 4 ),
 ( 0.000000000000000000, 0.001277739175627749715, 0.002555478351255499429, 0.003833217526883249578, 0.005110956702510998859, 0.007666435053766499155, 0.008944174229394238895, 0.01022191340502198037 ),
 .UNSPECIFIED. ) ;
#122 =( LENGTH_UNIT ( ) NAMED_UNIT ( * ) SI_UNIT ( .MILLI., .METRE. ) );
#123 = CARTESIAN_POINT ( 'NONE',  ( 30.47265506565464221, -18.56517606944293064, -31.31234088399659043 ) ) ;
#124 = CARTESIAN_POINT ( 'NONE',  ( 44.50752499213256641, -14.50752499214001112, -19.09279326771777008 ) ) ;
#125 = ORIENTED_EDGE ( 'NONE', *, *, #47, .T. ) ;
#126 =( NAMED_UNIT ( * ) PLANE_ANGLE_UNIT ( ) SI_UNIT ( $, .RADIAN. ) );
#127 = CARTESIAN_POINT ( 'NONE',  ( 38.55150989396791061, -13.32134648874668592, -27.84015825171190528 ) ) ;
#128 = DIRECTION ( 'NONE',  ( 1.000000000000000000, 0.000000000000000000, 0.000000000000000000 ) ) ;
#129 = EDGE_LOOP ( 'NONE', ( #203, #341, #942, #408 ) ) ;
#130 = VECTOR ( 'NONE', #1015, 1000.000000000000000 ) ;
#131 = EDGE_CURVE ( 'NONE', #627, #73, #718, .T. ) ;
#132 = VECTOR ( 'NONE', #956, 1000.000000000000000 ) ;
#133 = EDGE_CURVE ( 'NONE', #398, #972, #479, .T. ) ;
#134 = CARTESIAN_POINT ( 'NONE',  ( -8.950000000000013500, 6.050000000000003375, 14.90000000000000036 ) ) ;
#135 = CARTESIAN_POINT ( 'NONE',  ( 18.06183010883648166, -9.222995344008284135, -22.84279326771811469 ) ) ;
#136 = ADVANCED_FACE ( 'NONE', ( #172 ), #734, .T. ) ;
#137 = CARTESIAN_POINT ( 'NONE',  ( 6.829687077429817066, 2.009147687397168092, -32.46724217559076919 ) ) ;
#138 = VECTOR ( 'NONE', #44, 1000.000000000000000 ) ;
#139 = VECTOR ( 'NONE', #987, 1000.000000000000000 ) ;
#140 = CARTESIAN_POINT ( 'NONE',  ( 44.50752499213296431, -14.50752499213935032, -19.09279326771809338 ) ) ;
#141 = EDGE_LOOP ( 'NONE', ( #825, #1006, #901, #547 ) ) ;
#142 = CARTESIAN_POINT ( 'NONE',  ( 12.52075640477842988, -41.95098582504286355, -24.65718613913577073 ) ) ;
#143 = PLANE ( 'NONE',  #943 ) ;
#144 = ORIENTED_EDGE ( 'NONE', *, *, #565, .F. ) ;
#145 = CARTESIAN_POINT ( 'NONE',  ( 11.00721569287267876, -5.097380146496742981, -18.64715191077207734 ) ) ;
#146 = DIRECTION ( 'NONE',  ( 0.000000000000000000, -1.000000000000000000, 0.000000000000000000 ) ) ;
#147 = ORIENTED_EDGE ( 'NONE', *, *, #394, .F. ) ;
#148 = PLANE ( 'NONE',  #570 ) ;
#149 = DIRECTION ( 'NONE',  ( 0.000000000000000000, 0.000000000000000000, 1.000000000000000000 ) ) ;
#150 = ORIENTED_EDGE ( 'NONE', *, *, #739, .T. ) ;
#151 = CARTESIAN_POINT ( 'NONE',  ( -6.050000000000014033, -8.950000000000002842, 14.90000000000000036 ) ) ;
#152 = CARTESIAN_POINT ( 'NONE',  ( -6.050000000000014033, -6.050000000000003375, 14.90000000000000036 ) ) ;
#153 = ORIENTED_EDGE ( 'NONE', *, *, #56, .F. ) ;
#154 = VECTOR ( 'NONE', #105, 1000.000000000000000 ) ;
#155 = ORIENTED_EDGE ( 'NONE', *, *, #469, .T. ) ;
#156 = FACE_BOUND ( 'NONE', #489, .T. ) ;
#157 = CARTESIAN_POINT ( 'NONE',  ( -6.050000000000014033, -6.050000000000003375, 5.000000000000000000 ) ) ;
#158 = EDGE_LOOP ( 'NONE', ( #483, #3, #619, #417 ) ) ;
#159 = CARTESIAN_POINT ( 'NONE',  ( 14.32454504694425346, -36.60131818713217910, -28.99998325374945196 ) ) ;
#160 = CARTESIAN_POINT ( 'NONE',  ( -5.353715555169805231E-15, 8.950000000000006395, 14.90000000000000036 ) ) ;
#161 =( BOUNDED_SURFACE ( )  B_SPLINE_SURFACE ( 3, 1, ( 
 ( #509, #1008 ),
 ( #580, #259 ),
 ( #343, #841 ),
 ( #914, #112 ) ),
 .UNSPECIFIED., .F., .F., .F. ) 
 B_SPLINE_SURFACE_WITH_KNOTS ( ( 4, 4 ),
 ( 2, 2 ),
 ( 0.000000000000000000, 1.000000000000000000 ),
 ( 0.000000000000000000, 1.000000000000000000 ),
 .UNSPECIFIED. ) 
 GEOMETRIC_REPRESENTATION_ITEM ( )  RATIONAL_B_SPLINE_SURFACE ( (
 ( 1.000000000000000000, 1.000000000000000000),
 ( 0.3333333333333337034, 0.3333333333333337034),
 ( 0.3333333333333337034, 0.3333333333333337034),
 ( 1.000000000000000000, 1.000000000000000000) ) ) 
 REPRESENTATION_ITEM ( '' )  SURFACE ( )  );
#162 = EDGE_CURVE ( 'NONE', #8, #882, #449, .T. ) ;
#163 = EDGE_CURVE ( 'NONE', #11, #758, #638, .T. ) ;
#164 = ORIENTED_EDGE ( 'NONE', *, *, #283, .F. ) ;
#165 = CARTESIAN_POINT ( 'NONE',  ( 15.24933010883559348, -6.410495344008613650, -20.54639663385892945 ) ) ;
#166 = ORIENTED_EDGE ( 'NONE', *, *, #458, .F. ) ;
#167 = LINE ( 'NONE', #405, #57 ) ;
#168 = EDGE_CURVE ( 'NONE', #11, #8, #76, .T. ) ;
#169 = VECTOR ( 'NONE', #595, 1000.000000000000000 ) ;
#170 = CLOSED_SHELL ( 'NONE', ( #842, #429, #725, #623, #136, #885, #246, #104, #424, #655, #659, #102, #698, #59, #351, #614, #454, #784, #590, #84, #279, #813, #318, #453, #924, #362, #289, #48, #24, #384, #350, #1032 ) ) ;
#171 = ORIENTED_EDGE ( 'NONE', *, *, #647, .T. ) ;
#172 = FACE_OUTER_BOUND ( 'NONE', #1022, .T. ) ;
#173 = VERTEX_POINT ( 'NONE', #232 ) ;
#174 = EDGE_CURVE ( 'NONE', #564, #338, #727, .T. ) ;
#175 = DIRECTION ( 'NONE',  ( 0.000000000000000000, -0.000000000000000000, -1.000000000000000000 ) ) ;
#176 = ORIENTED_EDGE ( 'NONE', *, *, #1030, .T. ) ;
#177 = CARTESIAN_POINT ( 'NONE',  ( 14.94023325653483703, -23.77906802137154330, -27.51089847565040003 ) ) ;
#178 = ORIENTED_EDGE ( 'NONE', *, *, #762, .T. ) ;
#179 = ORIENTED_EDGE ( 'NONE', *, *, #810, .T. ) ;
#180 = DIRECTION ( 'NONE',  ( -1.000000000000000000, 0.000000000000000000, 0.000000000000000000 ) ) ;
#181 = EDGE_LOOP ( 'NONE', ( #892, #983, #837 ) ) ;
#182 = PLANE ( 'NONE',  #425 ) ;
#183 = CARTESIAN_POINT ( 'NONE',  ( 0.000000000000000000, -6.050000000000003375, 14.90000000000000036 ) ) ;
#184 = VECTOR ( 'NONE', #333, 1000.000000000000114 ) ;
#185 = DIRECTION ( 'NONE',  ( 0.7071067811865475727, 0.7071067811865475727, 0.000000000000000000 ) ) ;
#186 = FACE_OUTER_BOUND ( 'NONE', #986, .T. ) ;
#187 = PLANE ( 'NONE',  #354 ) ;
#188 = CARTESIAN_POINT ( 'NONE',  ( 6.050000000000014033, 8.950000000000002842, 14.90000000000000036 ) ) ;
#189 = CARTESIAN_POINT ( 'NONE',  ( -6.050000000000014033, 0.000000000000000000, 14.90000000000000036 ) ) ;
#190 = AXIS2_PLACEMENT_3D ( 'NONE', #628, #802, #796 ) ;
#191 = DIRECTION ( 'NONE',  ( -0.000000000000000000, 0.000000000000000000, 1.000000000000000000 ) ) ;
#192 = SURFACE_SIDE_STYLE ('',( #498 ) ) ;
#193 = DIRECTION ( 'NONE',  ( 1.000000000000000000, -5.981805089575197183E-16, 0.000000000000000000 ) ) ;
#194 = EDGE_CURVE ( 'NONE', #1, #173, #962, .T. ) ;
#195 = CARTESIAN_POINT ( 'NONE',  ( -4.919037279528208018, 13.75787204435520117, -22.87444890787244134 ) ) ;
#196 = CARTESIAN_POINT ( 'NONE',  ( -8.950000000000013500, 6.050000000000003375, 14.90000000000000036 ) ) ;
#197 = CARTESIAN_POINT ( 'NONE',  ( -5.353715555169805231E-15, -8.950000000000006395, 14.90000000000000036 ) ) ;
#198 = CARTESIAN_POINT ( 'NONE',  ( 42.63244023569699692, -12.70872169146174713, -23.59236882373482302 ) ) ;
#199 = DIRECTION ( 'NONE',  ( -1.000000000000000000, 0.000000000000000000, 0.000000000000000000 ) ) ;
#200 = CARTESIAN_POINT ( 'NONE',  ( 18.19786629235906261, -16.97714330185204901, -32.17900368358268537 ) ) ;
#201 = CARTESIAN_POINT ( 'NONE',  ( 16.98123804127682490, -32.56019568136245113, -30.69555619768533106 ) ) ;
#202 = CARTESIAN_POINT ( 'NONE',  ( 5.353715555169805231E-15, 8.950000000000006395, 5.000000000000000000 ) ) ;
#203 = ORIENTED_EDGE ( 'NONE', *, *, #846, .T. ) ;
#204 = VECTOR ( 'NONE', #635, 1000.000000000000000 ) ;
#205 = DIRECTION ( 'NONE',  ( -0.6123724356957978010, 0.6123724356957978010, 0.4999999999999921174 ) ) ;
#206 = CARTESIAN_POINT ( 'NONE',  ( 18.49698301678125034, -30.55634151124510467, -31.29336543046683872 ) ) ;
#207 = CARTESIAN_POINT ( 'NONE',  ( 0.000000000000000000, -6.050000000000003375, 14.90000000000000036 ) ) ;
#208 = EDGE_CURVE ( 'NONE', #523, #11, #1005, .T. ) ;
#209 = ORIENTED_EDGE ( 'NONE', *, *, #274, .T. ) ;
#210 = CARTESIAN_POINT ( 'NONE',  ( 13.84990686940175486, -22.68874163423834034, -26.62065070846092851 ) ) ;
#211 = EDGE_CURVE ( 'NONE', #173, #746, #630, .T. ) ;
#212 = CARTESIAN_POINT ( 'NONE',  ( -8.950000000000013500, 8.950000000000001066, 14.90000000000000036 ) ) ;
#213 = CARTESIAN_POINT ( 'NONE',  ( 22.35159390289416592, -22.35159390289900827, -18.24999999999969091 ) ) ;
#214 = ORIENTED_EDGE ( 'NONE', *, *, #381, .F. ) ;
#215 = VECTOR ( 'NONE', #221, 1000.000000000000114 ) ;
#216 = VECTOR ( 'NONE', #401, 1000.000000000000000 ) ;
#217 = CARTESIAN_POINT ( 'NONE',  ( -8.950000000000013500, 8.950000000000001066, 5.000000000000000888 ) ) ;
#218 = CARTESIAN_POINT ( 'NONE',  ( 14.99999999999998757, 2.602085213965210642E-15, 5.000000000000000000 ) ) ;
#219 = EDGE_LOOP ( 'NONE', ( #371, #106, #450, #541 ) ) ;
#220 = CARTESIAN_POINT ( 'NONE',  ( 14.71834175564510616, -35.93154519124932733, -29.33798379610135498 ) ) ;
#221 = DIRECTION ( 'NONE',  ( -0.3535533905932333187, 0.3535533905933037069, -0.8660254037844429265 ) ) ;
#222 = VERTEX_POINT ( 'NONE', #971 ) ;
#223 = CARTESIAN_POINT ( 'NONE',  ( 12.97659390289364190, -42.97659390289973658, -22.84279326771812535 ) ) ;
#224 = ORIENTED_EDGE ( 'NONE', *, *, #243, .T. ) ;
#225 = CARTESIAN_POINT ( 'NONE',  ( -6.050000000000014033, 0.000000000000000000, 14.90000000000000036 ) ) ;
#226 = CARTESIAN_POINT ( 'NONE',  ( -6.050000000000014033, 0.000000000000000000, 14.90000000000000036 ) ) ;
#227 = ORIENTED_EDGE ( 'NONE', *, *, #726, .F. ) ;
#228 = CARTESIAN_POINT ( 'NONE',  ( 6.517688053539239412, -9.479746927848459848, -18.77839662199911785 ) ) ;
#229 = CARTESIAN_POINT ( 'NONE',  ( 14.99999999999998579, 15.00000000000000000, 0.000000000000000000 ) ) ;
#230 = ORIENTED_EDGE ( 'NONE', *, *, #916, .T. ) ;
#231 = LINE ( 'NONE', #399, #436 ) ;
#232 = CARTESIAN_POINT ( 'NONE',  ( 42.97659390289364723, -12.97659390289970283, -22.84279326771811824 ) ) ;
#233 = ORIENTED_EDGE ( 'NONE', *, *, #916, .F. ) ;
#234 = EDGE_CURVE ( 'NONE', #17, #480, #1039, .T. ) ;
#235 = EDGE_CURVE ( 'NONE', #758, #613, #306, .T. ) ;
#236 = CARTESIAN_POINT ( 'NONE',  ( 14.51754144942188596, -36.26621236828801642, -29.17403103262084585 ) ) ;
#237 = LINE ( 'NONE', #812, #651 ) ;
#238 = ORIENTED_EDGE ( 'NONE', *, *, #685, .T. ) ;
#239 = VECTOR ( 'NONE', #285, 1000.000000000000000 ) ;
#240 = VECTOR ( 'NONE', #621, 1000.000000000000000 ) ;
#241 = ORIENTED_EDGE ( 'NONE', *, *, #843, .T. ) ;
#242 = DIRECTION ( 'NONE',  ( -0.000000000000000000, -0.000000000000000000, -1.000000000000000000 ) ) ;
#243 = EDGE_CURVE ( 'NONE', #874, #1, #660, .T. ) ;
#244 = FACE_OUTER_BOUND ( 'NONE', #141, .T. ) ;
#245 = ORIENTED_EDGE ( 'NONE', *, *, #1001, .T. ) ;
#246 = ADVANCED_FACE ( 'NONE', ( #823 ), #484, .F. ) ;
#247 = LINE ( 'NONE', #744, #738 ) ;
#248 = VERTEX_POINT ( 'NONE', #816 ) ;
#249 = EDGE_CURVE ( 'NONE', #91, #335, #470, .T. ) ;
#250 = CARTESIAN_POINT ( 'NONE',  ( -8.950000000000013500, 0.000000000000000000, 14.90000000000000036 ) ) ;
#251 = EDGE_LOOP ( 'NONE', ( #65, #49, #233, #673 ) ) ;
#252 = CARTESIAN_POINT ( 'NONE',  ( 13.04744602525030039, -43.04711292672426737, -22.84279326771811114 ) ) ;
#253 = CARTESIAN_POINT ( 'NONE',  ( 37.35159390289418013, -7.351593902899018040, -18.24999999999969091 ) ) ;
#254 = EDGE_LOOP ( 'NONE', ( #594, #86, #369, #224, #164 ) ) ;
#255 = DIRECTION ( 'NONE',  ( -1.000000000000000000, 0.000000000000000000, 0.000000000000000000 ) ) ;
#256 = ORIENTED_EDGE ( 'NONE', *, *, #194, .F. ) ;
#257 = EDGE_LOOP ( 'NONE', ( #166, #15, #298, #567, #326, #303, #475 ) ) ;
#258 = DIRECTION ( 'NONE',  ( 0.6123724356957316317, -0.6123724356958639703, -0.4999999999999921174 ) ) ;
#259 = CARTESIAN_POINT ( 'NONE',  ( -22.64840609710580566, -7.351593902899056232, -18.24999999999969091 ) ) ;
#260 = ORIENTED_EDGE ( 'NONE', *, *, #131, .T. ) ;
#261 = CARTESIAN_POINT ( 'NONE',  ( 12.97659390289363657, -42.97659390289970105, -22.84279326771811469 ) ) ;
#262 = ORIENTED_EDGE ( 'NONE', *, *, #300, .F. ) ;
#263 = CYLINDRICAL_SURFACE ( 'NONE', #755, 21.21320343559642652 ) ;
#264 = PLANE ( 'NONE',  #973 ) ;
#265 = ORIENTED_EDGE ( 'NONE', *, *, #274, .F. ) ;
#266 = CARTESIAN_POINT ( 'NONE',  ( -6.050000000000014033, 6.050000000000003375, 14.90000000000000036 ) ) ;
#267 = DIRECTION ( 'NONE',  ( 0.000000000000000000, 0.000000000000000000, 1.000000000000000000 ) ) ;
#268 = VECTOR ( 'NONE', #32, 999.9999999999998863 ) ;
#269 = CARTESIAN_POINT ( 'NONE',  ( 15.56228534913283745, -34.57956461915568980, -29.96019948012621015 ) ) ;
#270 = AXIS2_PLACEMENT_3D ( 'NONE', #411, #407, #977 ) ;
#271 = PLANE ( 'NONE',  #107 ) ;
#272 = VERTEX_POINT ( 'NONE', #923 ) ;
#273 = PLANE ( 'NONE',  #723 ) ;
#274 = EDGE_CURVE ( 'NONE', #758, #882, #1010, .T. ) ;
#275 = FACE_OUTER_BOUND ( 'NONE', #897, .T. ) ;
#276 = CARTESIAN_POINT ( 'NONE',  ( -8.950000000000013500, -6.050000000000003375, 5.000000000000000000 ) ) ;
#277 = B_SPLINE_CURVE_WITH_KNOTS ( 'NONE', 3,
 ( #875, #958, #228, #395, #145, #465 ),
 .UNSPECIFIED., .F., .F.,
 ( 4, 2, 4 ),
 ( 2.112702515098596653E-16, 0.006268106773762802814, 0.01253621354752539052 ),
 .UNSPECIFIED. ) ;
#278 = CIRCLE ( 'NONE', #455, 21.21320343559642652 ) ;
#279 = ADVANCED_FACE ( 'NONE', ( #747 ), #422, .F. ) ;
#280 = VECTOR ( 'NONE', #980, 1000.000000000000114 ) ;
#281 = DIRECTION ( 'NONE',  ( -0.000000000000000000, -0.000000000000000000, -1.000000000000000000 ) ) ;
#282 = CARTESIAN_POINT ( 'NONE',  ( 40.17895023747414740, -12.73509684950983711, -26.56496527651756523 ) ) ;
#283 = EDGE_CURVE ( 'NONE', #902, #1, #915, .T. ) ;
#284 = CARTESIAN_POINT ( 'NONE',  ( -6.050000000000014033, -8.950000000000002842, 14.90000000000000036 ) ) ;
#285 = DIRECTION ( 'NONE',  ( 0.6123724356957316317, -0.6123724356958639703, -0.4999999999999921174 ) ) ;
#286 = DIRECTION ( 'NONE',  ( -0.7071067811864711894, 0.7071067811866239561, 0.000000000000000000 ) ) ;
#287 = DIRECTION ( 'NONE',  ( -1.000000000000000000, 5.981805089575197183E-16, 0.000000000000000000 ) ) ;
#288 = DIRECTION ( 'NONE',  ( -1.000000000000000000, 0.000000000000000000, 0.000000000000000000 ) ) ;
#289 = ADVANCED_FACE ( 'NONE', ( #677 ), #264, .T. ) ;
#290 = CARTESIAN_POINT ( 'NONE',  ( 42.97659390289364723, -12.97659390289970283, -22.84279326771811824 ) ) ;
#291 = CARTESIAN_POINT ( 'NONE',  ( 2.410269695016316494, -2.410269695016327152, -32.46724217559076919 ) ) ;
#292 = EDGE_LOOP ( 'NONE', ( #728, #46, #406, #179 ) ) ;
#293 = EDGE_CURVE ( 'NONE', #642, #1051, #1003, .T. ) ;
#294 = VECTOR ( 'NONE', #331, 1000.000000000000000 ) ;
#295 = CARTESIAN_POINT ( 'NONE',  ( 43.18714542226044983, -13.19014326467390319, -22.84279326771811469 ) ) ;
#296 = CARTESIAN_POINT ( 'NONE',  ( 19.56948978020488283, -29.25903566505435194, -31.56868695417917792 ) ) ;
#297 = DIRECTION ( 'NONE',  ( 0.7071067811866239561, 0.7071067811864711894, -0.000000000000000000 ) ) ;
#298 = ORIENTED_EDGE ( 'NONE', *, *, #674, .T. ) ;
#299 = VECTOR ( 'NONE', #873, 1000.000000000000000 ) ;
#300 = EDGE_CURVE ( 'NONE', #398, #74, #752, .T. ) ;
#301 = CARTESIAN_POINT ( 'NONE',  ( -8.950000000000013500, 0.000000000000000000, 14.90000000000000036 ) ) ;
#302 = LINE ( 'NONE', #1035, #30 ) ;
#303 = ORIENTED_EDGE ( 'NONE', *, *, #283, .T. ) ;
#304 = LINE ( 'NONE', #386, #649 ) ;
#305 = DIRECTION ( 'NONE',  ( -1.000000000000000000, -5.981805089575197183E-16, 0.000000000000000000 ) ) ;
#306 = LINE ( 'NONE', #891, #132 ) ;
#307 = ORIENTED_EDGE ( 'NONE', *, *, #394, .T. ) ;
#308 = CARTESIAN_POINT ( 'NONE',  ( 12.51038757072574192, -41.41711525298223506, -25.32374056058228362 ) ) ;
#309 = CARTESIAN_POINT ( 'NONE',  ( 16.97414056770112722, -47.01204283956171537, -29.37695493927165558 ) ) ;
#310 = ORIENTED_EDGE ( 'NONE', *, *, #168, .T. ) ;
#311 = CARTESIAN_POINT ( 'NONE',  ( 6.050000000000014033, 8.950000000000002842, 14.90000000000000036 ) ) ;
#312 = DIRECTION ( 'NONE',  ( -0.000000000000000000, 0.000000000000000000, 1.000000000000000000 ) ) ;
#313 = ORIENTED_EDGE ( 'NONE', *, *, #52, .F. ) ;
#314 = PLANE ( 'NONE',  #4 ) ;
#315 = VECTOR ( 'NONE', #741, 1000.000000000000000 ) ;
#316 = CARTESIAN_POINT ( 'NONE',  ( 6.050000000000014033, 8.950000000000002842, 5.000000000000000000 ) ) ;
#317 = EDGE_LOOP ( 'NONE', ( #150, #313, #976, #1036 ) ) ;
#318 = ADVANCED_FACE ( 'NONE', ( #515 ), #271, .T. ) ;
#319 = ORIENTED_EDGE ( 'NONE', *, *, #162, .F. ) ;
#320 = DIRECTION ( 'NONE',  ( 0.7071067811865477948, 0.7071067811865473507, -3.537500994461396354E-16 ) ) ;
#321 = DIRECTION ( 'NONE',  ( 1.000000000000000000, 0.000000000000000000, 0.000000000000000000 ) ) ;
#322 = VERTEX_POINT ( 'NONE', #504 ) ;
#323 = DIRECTION ( 'NONE',  ( 0.6123724356957978010, -0.6123724356957978010, -0.4999999999999920619 ) ) ;
#324 = EDGE_CURVE ( 'NONE', #523, #665, #339, .T. ) ;
#325 = VECTOR ( 'NONE', #719, 1000.000000000000000 ) ;
#326 = ORIENTED_EDGE ( 'NONE', *, *, #773, .F. ) ;
#327 = VECTOR ( 'NONE', #146, 1000.000000000000000 ) ;
#328 = CARTESIAN_POINT ( 'NONE',  ( 27.97659390289362946, -27.97659390289969750, -22.84279326771811824 ) ) ;
#329 = VERTEX_POINT ( 'NONE', #26 ) ;
#330 = LINE ( 'NONE', #975, #5 ) ;
#331 = DIRECTION ( 'NONE',  ( 0.6123724356957316317, -0.6123724356958639703, -0.4999999999999921174 ) ) ;
#332 = ORIENTED_EDGE ( 'NONE', *, *, #174, .T. ) ;
#333 = DIRECTION ( 'NONE',  ( 0.3535533905932300436, -0.3535533905933069820, 0.8660254037844429265 ) ) ;
#334 = ORIENTED_EDGE ( 'NONE', *, *, #952, .T. ) ;
#335 = VERTEX_POINT ( 'NONE', #593 ) ;
#336 = DIRECTION ( 'NONE',  ( 1.000000000000000000, -5.981805089575197183E-16, 0.000000000000000000 ) ) ;
#337 = CARTESIAN_POINT ( 'NONE',  ( 0.000000000000000000, 0.000000000000000000, 14.90000000000000036 ) ) ;
#338 = VERTEX_POINT ( 'NONE', #276 ) ;
#339 = LINE ( 'NONE', #666, #839 ) ;
#340 = EDGE_LOOP ( 'NONE', ( #413, #214, #375, #402, #795 ) ) ;
#341 = ORIENTED_EDGE ( 'NONE', *, *, #917, .F. ) ;
#342 = SHAPE_DEFINITION_REPRESENTATION ( #861, #1048 ) ;
#343 = CARTESIAN_POINT ( 'NONE',  ( -15.00000000000002842, 44.99999999999995026, 0.000000000000000000 ) ) ;
#344 = AXIS2_PLACEMENT_3D ( 'NONE', #337, #847, #437 ) ;
#345 = DIRECTION ( 'NONE',  ( -0.7071067811865474617, 0.7071067811865474617, 0.000000000000000000 ) ) ;
#346 = FACE_OUTER_BOUND ( 'NONE', #809, .T. ) ;
#347 = DIRECTION ( 'NONE',  ( 1.000000000000000000, 0.000000000000000000, 0.000000000000000000 ) ) ;
#348 = CARTESIAN_POINT ( 'NONE',  ( -1.561251128379126385E-14, -1.734723475976807094E-15, 0.000000000000000000 ) ) ;
#349 = DIRECTION ( 'NONE',  ( -0.7071067811865474617, 0.7071067811865476838, 0.000000000000000000 ) ) ;
#350 = ADVANCED_FACE ( 'NONE', ( #684 ), #50, .T. ) ;
#351 = ADVANCED_FACE ( 'NONE', ( #905 ), #182, .T. ) ;
#352 = ORIENTED_EDGE ( 'NONE', *, *, #647, .F. ) ;
#353 = LINE ( 'NONE', #759, #815 ) ;
#354 = AXIS2_PLACEMENT_3D ( 'NONE', #22, #838, #287 ) ;
#355 = DIRECTION ( 'NONE',  ( 1.000000000000000000, 0.000000000000000000, 0.000000000000000000 ) ) ;
#356 = AXIS2_PLACEMENT_3D ( 'NONE', #772, #691, #128 ) ;
#357 = AXIS2_PLACEMENT_3D ( 'NONE', #195, #426, #349 ) ;
#358 = EDGE_CURVE ( 'NONE', #467, #222, #683, .T. ) ;
#359 = CARTESIAN_POINT ( 'NONE',  ( -15.00000000000001421, -15.00000000000000000, 5.000000000000000000 ) ) ;
#360 = DIRECTION ( 'NONE',  ( -1.000000000000000000, 0.000000000000000000, 0.000000000000000000 ) ) ;
#361 = CARTESIAN_POINT ( 'NONE',  ( 24.78942579170156435, -23.66293322306282576, -32.02939486071743147 ) ) ;
#362 = ADVANCED_FACE ( 'NONE', ( #514 ), #664, .T. ) ;
#363 = CARTESIAN_POINT ( 'NONE',  ( 22.68874163423370405, -13.84990686940672688, -26.62065070846051640 ) ) ;
#364 = APPLICATION_PROTOCOL_DEFINITION ( 'draft international standard', 'automotive_design', 1998, #414 ) ;
#365 = CARTESIAN_POINT ( 'NONE',  ( 25.40799242144753478, -23.06196320047032344, -32.00784350635233011 ) ) ;
#366 = DIRECTION ( 'NONE',  ( -0.000000000000000000, -0.000000000000000000, -1.000000000000000000 ) ) ;
#367 = DIRECTION ( 'NONE',  ( 0.000000000000000000, 0.000000000000000000, 1.000000000000000000 ) ) ;
#368 = CARTESIAN_POINT ( 'NONE',  ( 40.49635567155795712, -12.65243214014732587, -26.27746777780828680 ) ) ;
#369 = ORIENTED_EDGE ( 'NONE', *, *, #779, .F. ) ;
#370 = AXIS2_PLACEMENT_3D ( 'NONE', #328, #574, #255 ) ;
#371 = ORIENTED_EDGE ( 'NONE', *, *, #961, .F. ) ;
#372 = CARTESIAN_POINT ( 'NONE',  ( 27.54980207011682936, 2.895706037721530013, -22.84279326771811469 ) ) ;
#373 = CARTESIAN_POINT ( 'NONE',  ( 14.71834175564510616, -35.93154519124932733, -29.33798379610135498 ) ) ;
#374 = ORIENTED_EDGE ( 'NONE', *, *, #400, .F. ) ;
#375 = ORIENTED_EDGE ( 'NONE', *, *, #208, .T. ) ;
#376 = VECTOR ( 'NONE', #994, 1000.000000000000000 ) ;
#377 = AXIS2_PLACEMENT_3D ( 'NONE', #786, #850, #528 ) ;
#378 =( BOUNDED_SURFACE ( )  B_SPLINE_SURFACE ( 3, 1, ( 
 ( #35, #930 ),
 ( #200, #451 ),
 ( #1031, #372 ),
 ( #697, #295 ) ),
 .UNSPECIFIED., .F., .F., .T. ) 
 B_SPLINE_SURFACE_WITH_KNOTS ( ( 4, 4 ),
 ( 2, 2 ),
 ( 0.000000000000000000, 1.000000000000000000 ),
 ( 0.000000000000000000, 1.000000000000000000 ),
 .UNSPECIFIED. ) 
 GEOMETRIC_REPRESENTATION_ITEM ( )  RATIONAL_B_SPLINE_SURFACE ( (
 ( 1.000000000000000000, 1.000000000000000000),
 ( 0.5840956045538653330, 0.5840956045538653330),
 ( 0.5840956045538653330, 0.5840956045538653330),
 ( 1.000000000000000000, 1.000000000000000000) ) ) 
 REPRESENTATION_ITEM ( '' )  SURFACE ( )  );
#379 = CARTESIAN_POINT ( 'NONE',  ( 29.67821801759159328, -20.83938325276461256, -9.499999999999747757 ) ) ;
#380 = PLANE ( 'NONE',  #356 ) ;
#381 = EDGE_CURVE ( 'NONE', #523, #1047, #988, .T. ) ;
#382 = FACE_OUTER_BOUND ( 'NONE', #965, .T. ) ;
#383 = CARTESIAN_POINT ( 'NONE',  ( 22.65465544619742744, -7.654655446197446977, -1.249999999999877875 ) ) ;
#384 = ADVANCED_FACE ( 'NONE', ( #28 ), #161, .T. ) ;
#385 = ORIENTED_EDGE ( 'NONE', *, *, #913, .T. ) ;
#386 = CARTESIAN_POINT ( 'NONE',  ( 6.050000000000014033, 6.050000000000003375, 14.90000000000000036 ) ) ;
#387 = LINE ( 'NONE', #629, #204 ) ;
#388 = ORIENTED_EDGE ( 'NONE', *, *, #571, .F. ) ;
#389 = CARTESIAN_POINT ( 'NONE',  ( 12.55949570148697880, -42.20179543073328432, -24.30256260590552841 ) ) ;
#390 = LINE ( 'NONE', #152, #542 ) ;
#391 = EDGE_LOOP ( 'NONE', ( #385, #241, #890, #176 ) ) ;
#392 = DIRECTION ( 'NONE',  ( 1.000000000000000000, 0.000000000000000000, -0.000000000000000000 ) ) ;
#393 = CARTESIAN_POINT ( 'NONE',  ( -6.050000000000014033, 0.000000000000000000, 5.000000000000000000 ) ) ;
#394 = EDGE_CURVE ( 'NONE', #665, #8, #801, .T. ) ;
#395 = CARTESIAN_POINT ( 'NONE',  ( 9.480316946588287053, -6.517145502435371718, -18.77836298115284208 ) ) ;
#396 =( LENGTH_UNIT ( ) NAMED_UNIT ( * ) SI_UNIT ( .MILLI., .METRE. ) );
#397 = VERTEX_POINT ( 'NONE', #423 ) ;
#398 = VERTEX_POINT ( 'NONE', #826 ) ;
#399 = CARTESIAN_POINT ( 'NONE',  ( 6.410495344003563467, -15.24933010884028306, -20.54639663385892945 ) ) ;
#400 = EDGE_CURVE ( 'NONE', #545, #991, #982, .T. ) ;
#401 = DIRECTION ( 'NONE',  ( -0.000000000000000000, -0.000000000000000000, -1.000000000000000000 ) ) ;
#402 = ORIENTED_EDGE ( 'NONE', *, *, #163, .T. ) ;
#403 = AXIS2_PLACEMENT_3D ( 'NONE', #774, #199, #516 ) ;
#404 = AXIS2_PLACEMENT_3D ( 'NONE', #828, #312, #321 ) ;
#405 = CARTESIAN_POINT ( 'NONE',  ( 16.93383226641047301, -8.094997501583494071, -40.71724217559064840 ) ) ;
#406 = ORIENTED_EDGE ( 'NONE', *, *, #685, .F. ) ;
#407 = DIRECTION ( 'NONE',  ( 5.981805089575197183E-16, -1.000000000000000000, 0.000000000000000000 ) ) ;
#408 = ORIENTED_EDGE ( 'NONE', *, *, #997, .T. ) ;
#409 = CARTESIAN_POINT ( 'NONE',  ( 7.499999999999992006, -7.499999999999992006, 5.000000000000000000 ) ) ;
#410 = EDGE_LOOP ( 'NONE', ( #804, #817, #624, #949, #798, #634, #577 ) ) ;
#411 = CARTESIAN_POINT ( 'NONE',  ( -5.353715555169805231E-15, 8.950000000000006395, 14.90000000000000036 ) ) ;
#412 = VERTEX_POINT ( 'NONE', #670 ) ;
#413 = ORIENTED_EDGE ( 'NONE', *, *, #1030, .F. ) ;
#414 = APPLICATION_CONTEXT ( 'automotive_design' ) ;
#415 = DIRECTION ( 'NONE',  ( 0.3535533905932681797, -0.3535533905932682353, 0.8660254037844432595 ) ) ;
#416 = CARTESIAN_POINT ( 'NONE',  ( 16.49419571849285404, -33.23252848341711996, -30.46862263348086941 ) ) ;
#417 = ORIENTED_EDGE ( 'NONE', *, *, #773, .T. ) ;
#418 = PLANE ( 'NONE',  #270 ) ;
#419 = ORIENTED_EDGE ( 'NONE', *, *, #620, .T. ) ;
#420 = ORIENTED_EDGE ( 'NONE', *, *, #47, .F. ) ;
#421 = CARTESIAN_POINT ( 'NONE',  ( 27.97659390289668124, -27.97659390289667414, -22.84279326771814311 ) ) ;
#422 = PLANE ( 'NONE',  #357 ) ;
#423 = CARTESIAN_POINT ( 'NONE',  ( 10.73523806377908407, -19.57407282861579034, -1.249999999999876099 ) ) ;
#424 = ADVANCED_FACE ( 'NONE', ( #275 ), #116, .T. ) ;
#425 = AXIS2_PLACEMENT_3D ( 'NONE', #833, #777, #193 ) ;
#426 = DIRECTION ( 'NONE',  ( 0.7071067811865476838, 0.7071067811865474617, -8.204216075643480586E-17 ) ) ;
#427 = ORIENTED_EDGE ( 'NONE', *, *, #469, .F. ) ;
#428 = CARTESIAN_POINT ( 'NONE',  ( -6.050000000000014033, 0.000000000000000000, 5.000000000000000000 ) ) ;
#429 = ADVANCED_FACE ( 'NONE', ( #19 ), #263, .T. ) ;
#430 = EDGE_CURVE ( 'NONE', #882, #703, #499, .T. ) ;
#431 = DIRECTION ( 'NONE',  ( 0.000000000000000000, 1.000000000000000000, -0.000000000000000000 ) ) ;
#432 = CARTESIAN_POINT ( 'NONE',  ( -22.64840609710586961, -7.351593902898992283, -18.24999999999969091 ) ) ;
#433 = DIRECTION ( 'NONE',  ( 0.6123724356957316317, -0.6123724356958639703, -0.4999999999999921174 ) ) ;
#434 = PRODUCT_CONTEXT ( 'NONE', #414, 'mechanical' ) ;
#435 = EDGE_CURVE ( 'NONE', #491, #787, #95, .T. ) ;
#436 = VECTOR ( 'NONE', #60, 1000.000000000000114 ) ;
#437 = DIRECTION ( 'NONE',  ( 1.000000000000000000, 0.000000000000000000, 0.000000000000000000 ) ) ;
#438 = DIRECTION ( 'NONE',  ( -0.7905694150420925492, -0.4743416490252835294, -0.3872983346207138911 ) ) ;
#439 = PLANE ( 'NONE',  #1012 ) ;
#440 = LINE ( 'NONE', #771, #1025 ) ;
#441 = DIRECTION ( 'NONE',  ( -1.000000000000000000, 0.000000000000000000, 0.000000000000000000 ) ) ;
#442 = CARTESIAN_POINT ( 'NONE',  ( -6.050000000000014033, 6.050000000000003375, 14.90000000000000036 ) ) ;
#443 = LINE ( 'NONE', #137, #702 ) ;
#444 = DIRECTION ( 'NONE',  ( -1.000000000000000000, 0.000000000000000000, 0.000000000000000000 ) ) ;
#445 = LINE ( 'NONE', #124, #818 ) ;
#446 = VERTEX_POINT ( 'NONE', #188 ) ;
#447 = CARTESIAN_POINT ( 'NONE',  ( 41.10536345392439728, -12.54059718758387731, -25.66855790431179329 ) ) ;
#448 = VERTEX_POINT ( 'NONE', #253 ) ;
#449 = CIRCLE ( 'NONE', #404, 21.21320343559642652 ) ;
#450 = ORIENTED_EDGE ( 'NONE', *, *, #435, .T. ) ;
#451 = CARTESIAN_POINT ( 'NONE',  ( 6.763390467297189623, -5.542667476787703329, -22.84279326771811469 ) ) ;
#452 = EDGE_LOOP ( 'NONE', ( #419, #374, #109, #77 ) ) ;
#453 = ADVANCED_FACE ( 'NONE', ( #100 ), #834, .T. ) ;
#454 = ADVANCED_FACE ( 'NONE', ( #584 ), #676, .F. ) ;
#455 = AXIS2_PLACEMENT_3D ( 'NONE', #609, #538, #288 ) ;
#456 = VECTOR ( 'NONE', #336, 1000.000000000000000 ) ;
#457 = CARTESIAN_POINT ( 'NONE',  ( 15.20949893432244515, -21.10205544421517487, -26.89878307350338815 ) ) ;
#458 = EDGE_CURVE ( 'NONE', #467, #173, #596, .T. ) ;
#459 = LINE ( 'NONE', #383, #622 ) ;
#460 = EDGE_LOOP ( 'NONE', ( #1054, #388, #876, #879 ) ) ;
#461 = CARTESIAN_POINT ( 'NONE',  ( 13.78159383654965353, -37.61001582203412852, -28.42956270896522497 ) ) ;
#462 = EDGE_CURVE ( 'NONE', #1028, #322, #616, .T. ) ;
#463 = CARTESIAN_POINT ( 'NONE',  ( 0.000000000000000000, 0.000000000000000000, 5.000000000000000000 ) ) ;
#464 = ORIENTED_EDGE ( 'NONE', *, *, #731, .F. ) ;
#465 = CARTESIAN_POINT ( 'NONE',  ( 12.58459644525314047, -3.745761680425870654, -18.37065070846076509 ) ) ;
#466 = DIRECTION ( 'NONE',  ( 0.000000000000000000, -1.000000000000000000, 0.000000000000000000 ) ) ;
#467 = VERTEX_POINT ( 'NONE', #373 ) ;
#468 = DIRECTION ( 'NONE',  ( 1.000000000000000000, 0.000000000000000000, 0.000000000000000000 ) ) ;
#469 = EDGE_CURVE ( 'NONE', #99, #338, #440, .T. ) ;
#470 = LINE ( 'NONE', #800, #535 ) ;
#471 = EDGE_LOOP ( 'NONE', ( #637, #310, #654, #265 ) ) ;
#472 = CARTESIAN_POINT ( 'NONE',  ( 12.58459644525314047, -3.745761680425870654, -18.37065070846076509 ) ) ;
#473 = AXIS2_PLACEMENT_3D ( 'NONE', #421, #572, #756 ) ;
#474 = CARTESIAN_POINT ( 'NONE',  ( 14.76607146337518728, -35.97927489897942621, -29.37695493927165558 ) ) ;
#475 = ORIENTED_EDGE ( 'NONE', *, *, #194, .T. ) ;
#476 = EDGE_CURVE ( 'NONE', #523, #746, #1016, .T. ) ;
#477 = ORIENTED_EDGE ( 'NONE', *, *, #476, .F. ) ;
#478 = FACE_BOUND ( 'NONE', #866, .T. ) ;
#479 = LINE ( 'NONE', #177, #82 ) ;
#480 = VERTEX_POINT ( 'NONE', #940 ) ;
#481 = CARTESIAN_POINT ( 'NONE',  ( 0.000000000000000000, 6.050000000000003375, 5.000000000000000000 ) ) ;
#482 = LINE ( 'NONE', #663, #139 ) ;
#483 = ORIENTED_EDGE ( 'NONE', *, *, #300, .T. ) ;
#484 = PLANE ( 'NONE',  #867 ) ;
#485 = ORIENTED_EDGE ( 'NONE', *, *, #324, .T. ) ;
#486 = AXIS2_PLACEMENT_3D ( 'NONE', #608, #519, #360 ) ;
#487 = VECTOR ( 'NONE', #526, 1000.000000000000000 ) ;
#488 = LINE ( 'NONE', #160, #93 ) ;
#489 = EDGE_LOOP ( 'NONE', ( #581, #631, #144, #904 ) ) ;
#490 = CARTESIAN_POINT ( 'NONE',  ( -1.561251128379126385E-14, -1.734723475976807094E-15, 5.000000000000000000 ) ) ;
#491 = VERTEX_POINT ( 'NONE', #931 ) ;
#492 = CARTESIAN_POINT ( 'NONE',  ( 6.763390467297186959, -33.71393643933382123, -22.84279326771811114 ) ) ;
#493 = CARTESIAN_POINT ( 'NONE',  ( 14.71834175564510616, -35.93154519124932733, -29.33798379610135498 ) ) ;
#494 = ORIENTED_EDGE ( 'NONE', *, *, #674, .F. ) ;
#495 = DIRECTION ( 'NONE',  ( 0.000000000000000000, 1.000000000000000000, 0.000000000000000000 ) ) ;
#496 = ORIENTED_EDGE ( 'NONE', *, *, #948, .F. ) ;
#497 = VERTEX_POINT ( 'NONE', #212 ) ;
#498 = SURFACE_STYLE_FILL_AREA ( #115 ) ;
#499 = LINE ( 'NONE', #921, #294 ) ;
#500 = EDGE_LOOP ( 'NONE', ( #960, #1043, #989, #427 ) ) ;
#501 = CARTESIAN_POINT ( 'NONE',  ( 7.351593902894169474, 22.64840609710103791, -18.24999999999969091 ) ) ;
#502 = AXIS2_PLACEMENT_3D ( 'NONE', #9, #568, #896 ) ;
#503 = DIRECTION ( 'NONE',  ( 0.000000000000000000, -1.000000000000000000, 0.000000000000000000 ) ) ;
#504 = CARTESIAN_POINT ( 'NONE',  ( -8.950000000000013500, -8.950000000000001066, 5.000000000000000888 ) ) ;
#505 = CARTESIAN_POINT ( 'NONE',  ( 8.950000000000013500, 6.050000000000003375, 5.000000000000000000 ) ) ;
#506 = EDGE_CURVE ( 'NONE', #91, #446, #531, .T. ) ;
#507 = ORIENTED_EDGE ( 'NONE', *, *, #846, .F. ) ;
#508 = FACE_OUTER_BOUND ( 'NONE', #452, .T. ) ;
#509 = CARTESIAN_POINT ( 'NONE',  ( -15.00000000000001421, -15.00000000000000711, 0.000000000000000000 ) ) ;
#510 = VECTOR ( 'NONE', #851, 1000.000000000000000 ) ;
#511 = PRESENTATION_LAYER_ASSIGNMENT (  '', '', ( #688 ) ) ;
#512 = PLANE ( 'NONE',  #403 ) ;
#513 =( LENGTH_UNIT ( ) NAMED_UNIT ( * ) SI_UNIT ( .MILLI., .METRE. ) );
#514 = FACE_OUTER_BOUND ( 'NONE', #749, .T. ) ;
#515 = FACE_OUTER_BOUND ( 'NONE', #641, .T. ) ;
#516 = DIRECTION ( 'NONE',  ( 0.000000000000000000, 0.000000000000000000, 1.000000000000000000 ) ) ;
#517 = CARTESIAN_POINT ( 'NONE',  ( 8.950000000000013500, 8.950000000000001066, 14.90000000000000036 ) ) ;
#518 = CARTESIAN_POINT ( 'NONE',  ( -8.950000000000013500, -8.950000000000001066, 14.90000000000000036 ) ) ;
#519 = DIRECTION ( 'NONE',  ( 0.000000000000000000, 0.000000000000000000, -1.000000000000000000 ) ) ;
#520 = LINE ( 'NONE', #693, #240 ) ;
#521 = CARTESIAN_POINT ( 'NONE',  ( 36.50993664211052447, -14.36813060618141513, -29.05852114221214322 ) ) ;
#522 = LINE ( 'NONE', #700, #765 ) ;
#523 = VERTEX_POINT ( 'NONE', #610 ) ;
#524 = SURFACE_STYLE_FILL_AREA ( #934 ) ;
#525 = CARTESIAN_POINT ( 'NONE',  ( 26.65372886384266238, -21.88842025929257318, -31.91942488598854055 ) ) ;
#526 = DIRECTION ( 'NONE',  ( -1.000000000000000000, 0.000000000000000000, 0.000000000000000000 ) ) ;
#527 = EDGE_LOOP ( 'NONE', ( #334, #957, #98, #319, #147 ) ) ;
#528 = DIRECTION ( 'NONE',  ( -0.000000000000000000, 0.000000000000000000, -1.000000000000000000 ) ) ;
#529 = EDGE_CURVE ( 'NONE', #448, #173, #33, .T. ) ;
#530 = EDGE_CURVE ( 'NONE', #329, #322, #387, .T. ) ;
#531 = LINE ( 'NONE', #694, #53 ) ;
#532 = DIRECTION ( 'NONE',  ( -0.000000000000000000, -0.000000000000000000, -1.000000000000000000 ) ) ;
#533 = CIRCLE ( 'NONE', #486, 21.21320343559642652 ) ;
#534 = AXIS2_PLACEMENT_3D ( 'NONE', #932, #532, #441 ) ;
#535 = VECTOR ( 'NONE', #761, 1000.000000000000000 ) ;
#536 = B_SPLINE_CURVE_WITH_KNOTS ( 'NONE', 3,
 ( #363, #780, #927, #457, #210 ),
 .UNSPECIFIED., .F., .F.,
 ( 4, 1, 4 ),
 ( 4.785447810286878920E-17, 0.006249999999999956979, 0.01249999999999986712 ),
 .UNSPECIFIED. ) ;
#537 = EDGE_CURVE ( 'NONE', #412, #972, #231, .T. ) ;
#538 = DIRECTION ( 'NONE',  ( 0.000000000000000000, 0.000000000000000000, -1.000000000000000000 ) ) ;
#539 = LINE ( 'NONE', #27, #130 ) ;
#540 = EDGE_CURVE ( 'NONE', #397, #491, #459, .T. ) ;
#541 = ORIENTED_EDGE ( 'NONE', *, *, #1002, .F. ) ;
#542 = VECTOR ( 'NONE', #79, 1000.000000000000000 ) ;
#543 = CARTESIAN_POINT ( 'NONE',  ( 13.02049579597830586, -39.26915147894248292, -27.32969574403969304 ) ) ;
#544 = CARTESIAN_POINT ( 'NONE',  ( -15.00000000000001421, -15.00000000000000000, 5.000000000000000000 ) ) ;
#545 = VERTEX_POINT ( 'NONE', #724 ) ;
#546 = CARTESIAN_POINT ( 'NONE',  ( 22.68874163423370405, -13.84990686940672688, -26.62065070846051640 ) ) ;
#547 = ORIENTED_EDGE ( 'NONE', *, *, #858, .T. ) ;
#548 = CARTESIAN_POINT ( 'NONE',  ( 14.50752499213296254, -44.50752499213935920, -19.09279326771808627 ) ) ;
#549 = PLANE ( 'NONE',  #783 ) ;
#550 = ORIENTED_EDGE ( 'NONE', *, *, #506, .F. ) ;
#551 = DIRECTION ( 'NONE',  ( 0.6123724356957316317, -0.6123724356958639703, -0.4999999999999921174 ) ) ;
#552 = LINE ( 'NONE', #797, #327 ) ;
#553 = ORIENTED_EDGE ( 'NONE', *, *, #805, .F. ) ;
#554 = ORIENTED_EDGE ( 'NONE', *, *, #565, .T. ) ;
#555 = FACE_OUTER_BOUND ( 'NONE', #460, .T. ) ;
#556 = CARTESIAN_POINT ( 'NONE',  ( 42.97659390289366144, -12.97659390289972059, -22.84279326771811824 ) ) ;
#557 = ORIENTED_EDGE ( 'NONE', *, *, #476, .T. ) ;
#558 = DIRECTION ( 'NONE',  ( 0.000000000000000000, -0.6324555320336269215, 0.7745966692415234833 ) ) ;
#559 = VECTOR ( 'NONE', #431, 1000.000000000000000 ) ;
#560 = VECTOR ( 'NONE', #770, 1000.000000000000000 ) ;
#561 =( NAMED_UNIT ( * ) SI_UNIT ( $, .STERADIAN. ) SOLID_ANGLE_UNIT ( ) );
#562 = VERTEX_POINT ( 'NONE', #970 ) ;
#563 = DIRECTION ( 'NONE',  ( 0.000000000000000000, 1.000000000000000000, -0.000000000000000000 ) ) ;
#564 = VERTEX_POINT ( 'NONE', #884 ) ;
#565 = EDGE_CURVE ( 'NONE', #73, #806, #70, .T. ) ;
#566 = UNCERTAINTY_MEASURE_WITH_UNIT (LENGTH_MEASURE( 1.000000000000000082E-05 ), #396, 'distance_accuracy_value', 'NONE');
#567 = ORIENTED_EDGE ( 'NONE', *, *, #133, .F. ) ;
#568 = DIRECTION ( 'NONE',  ( -0.000000000000000000, 0.000000000000000000, 1.000000000000000000 ) ) ;
#569 = ORIENTED_EDGE ( 'NONE', *, *, #1009, .T. ) ;
#570 = AXIS2_PLACEMENT_3D ( 'NONE', #643, #392, #951 ) ;
#571 = EDGE_CURVE ( 'NONE', #662, #645, #712, .T. ) ;
#572 = DIRECTION ( 'NONE',  ( 0.6123724356957978010, -0.6123724356957974679, -0.4999999999999925615 ) ) ;
#573 = ORIENTED_EDGE ( 'NONE', *, *, #133, .T. ) ;
#574 = DIRECTION ( 'NONE',  ( 0.000000000000000000, 0.000000000000000000, -1.000000000000000000 ) ) ;
#575 = ORIENTED_EDGE ( 'NONE', *, *, #249, .T. ) ;
#576 = APPLICATION_CONTEXT ( 'automotive_design' ) ;
#577 = ORIENTED_EDGE ( 'NONE', *, *, #578, .T. ) ;
#578 = EDGE_CURVE ( 'NONE', #830, #562, #1038, .T. ) ;
#579 = DIRECTION ( 'NONE',  ( 0.000000000000000000, 1.000000000000000000, -0.000000000000000000 ) ) ;
#580 = CARTESIAN_POINT ( 'NONE',  ( -44.99999999999999289, 14.99999999999995381, 0.000000000000000000 ) ) ;
#581 = ORIENTED_EDGE ( 'NONE', *, *, #917, .T. ) ;
#582 = CARTESIAN_POINT ( 'NONE',  ( 42.97659390289364723, -12.97659390289970283, -22.84279326771811469 ) ) ;
#583 = ORIENTED_EDGE ( 'NONE', *, *, #1029, .F. ) ;
#584 = FACE_OUTER_BOUND ( 'NONE', #668, .T. ) ;
#585 = EDGE_CURVE ( 'NONE', #545, #17, #302, .T. ) ;
#586 = CARTESIAN_POINT ( 'NONE',  ( -13.75787204436005773, 4.919037279523353234, -22.87444890787244134 ) ) ;
#587 = CARTESIAN_POINT ( 'NONE',  ( -21.21320343559644073, -1.734723475976807094E-15, 0.000000000000000000 ) ) ;
#588 = VECTOR ( 'NONE', #242, 1000.000000000000000 ) ;
#589 = LINE ( 'NONE', #428, #895 ) ;
#590 = ADVANCED_FACE ( 'NONE', ( #555 ), #1055, .T. ) ;
#591 = VECTOR ( 'NONE', #563, 1000.000000000000000 ) ;
#592 = CARTESIAN_POINT ( 'NONE',  ( 16.25647981646040918, -33.56902118645042776, -30.34764625304258345 ) ) ;
#593 = CARTESIAN_POINT ( 'NONE',  ( 8.950000000000013500, 6.050000000000003375, 14.90000000000000036 ) ) ;
#594 = ORIENTED_EDGE ( 'NONE', *, *, #1034, .T. ) ;
#595 = DIRECTION ( 'NONE',  ( 0.000000000000000000, 1.000000000000000000, -0.000000000000000000 ) ) ;
#596 = B_SPLINE_CURVE_WITH_KNOTS ( 'NONE', 3,
 ( #493, #1000, #269, #592, #416, #201, #687, #206, #296, #1024, #36, #361, #365, #525, #119, #606, #123, #1020, #865, #935, #1013, #781, #859, #521, #604, #127, #776, #282, #368, #447, #928, #45, #854, #198, #690, #290 ),
 .UNSPECIFIED., .F., .F.,
 ( 4, 2, 2, 2, 2, 2, 2, 2, 2, 2, 2, 2, 2, 2, 2, 2, 2, 4 ),
 ( 0.01022191340502198037, 0.01280620365988037815, 0.01409834878730957530, 0.01539049391473876899, 0.02055907442445560271, 0.02572765493417243296, 0.02831194518903085156, 0.03089623544388926668, 0.03606481595360609693, 0.03864910620846449818, 0.03994125133589371268, 0.04123339646332292024, 0.04381768671818132149, 0.04640197697303972274, 0.04769412210046891643, 0.04898626722789811011, 0.05027841235532730380, 0.05157055748275649748 ),
 .UNSPECIFIED. ) ;
#597 = CARTESIAN_POINT ( 'NONE',  ( 40.45489588328286601, -61.66809931889265073, -50.35179224618077853 ) ) ;
#598 = VECTOR ( 'NONE', #466, 1000.000000000000000 ) ;
#599 = CARTESIAN_POINT ( 'NONE',  ( -17.02340609710639896, -12.97659390289967796, -22.84279326771811469 ) ) ;
#600 = VECTOR ( 'NONE', #898, 1000.000000000000000 ) ;
#601 = DIRECTION ( 'NONE',  ( -0.000000000000000000, -0.000000000000000000, -1.000000000000000000 ) ) ;
#602 = SURFACE_STYLE_USAGE ( .BOTH. , #192 ) ;
#603 = LINE ( 'NONE', #197, #560 ) ;
#604 = CARTESIAN_POINT ( 'NONE',  ( 37.19186582110944528, -13.98813163600362230, -28.68873366744024622 ) ) ;
#605 = PLANE ( 'NONE',  #1033 ) ;
#606 = CARTESIAN_POINT ( 'NONE',  ( 29.18334079025511940, -19.63345807591655401, -31.58304902177560436 ) ) ;
#607 = FACE_OUTER_BOUND ( 'NONE', #894, .T. ) ;
#608 = CARTESIAN_POINT ( 'NONE',  ( 27.97659390289362946, -27.97659390289969750, -22.84279326771811824 ) ) ;
#609 = CARTESIAN_POINT ( 'NONE',  ( 27.97659390289362946, -27.97659390289969750, -22.84279326771811824 ) ) ;
#610 = CARTESIAN_POINT ( 'NONE',  ( 14.99999999999998579, 15.00000000000000000, 5.000000000000000000 ) ) ;
#611 = DIRECTION ( 'NONE',  ( -0.7071067811865479058, -0.7071067811865472397, 0.000000000000000000 ) ) ;
#612 = VECTOR ( 'NONE', #835, 999.9999999999998863 ) ;
#613 = VERTEX_POINT ( 'NONE', #626 ) ;
#614 = ADVANCED_FACE ( 'NONE', ( #799 ), #148, .T. ) ;
#615 = FACE_OUTER_BOUND ( 'NONE', #257, .T. ) ;
#616 = LINE ( 'NONE', #518, #510 ) ;
#617 = EDGE_LOOP ( 'NONE', ( #569, #153, #477, #953 ) ) ;
#618 = EDGE_CURVE ( 'NONE', #758, #830, #717, .T. ) ;
#619 = ORIENTED_EDGE ( 'NONE', *, *, #1034, .F. ) ;
#620 = EDGE_CURVE ( 'NONE', #446, #991, #1044, .T. ) ;
#621 = DIRECTION ( 'NONE',  ( 0.7071067811866232899, 0.7071067811864718555, -9.813077866772535438E-16 ) ) ;
#622 = VECTOR ( 'NONE', #320, 1000.000000000000000 ) ;
#623 = ADVANCED_FACE ( 'NONE', ( #64, #156, #478, #791 ), #143, .T. ) ;
#624 = ORIENTED_EDGE ( 'NONE', *, *, #211, .T. ) ;
#625 = CARTESIAN_POINT ( 'NONE',  ( 12.72382309902799946, -40.22014673846883426, -26.52831754128884612 ) ) ;
#626 = CARTESIAN_POINT ( 'NONE',  ( -1.214306433183764966E-14, -15.00000000000000355, 5.000000000000000000 ) ) ;
#627 = VERTEX_POINT ( 'NONE', #768 ) ;
#628 = CARTESIAN_POINT ( 'NONE',  ( 0.000000000000000000, 6.050000000000003375, 14.90000000000000036 ) ) ;
#629 = CARTESIAN_POINT ( 'NONE',  ( -5.353715555169805231E-15, -8.950000000000006395, 5.000000000000000000 ) ) ;
#630 = LINE ( 'NONE', #556, #184 ) ;
#631 = ORIENTED_EDGE ( 'NONE', *, *, #948, .T. ) ;
#632 = PLANE ( 'NONE',  #190 ) ;
#633 = CARTESIAN_POINT ( 'NONE',  ( 8.971459571623125129, -39.00936184348198310, -22.84279326771811114 ) ) ;
#634 = ORIENTED_EDGE ( 'NONE', *, *, #767, .T. ) ;
#635 = DIRECTION ( 'NONE',  ( -1.000000000000000000, 5.981805089575197183E-16, 0.000000000000000000 ) ) ;
#636 = DIRECTION ( 'NONE',  ( -0.000000000000000000, 0.000000000000000000, 1.000000000000000000 ) ) ;
#637 = ORIENTED_EDGE ( 'NONE', *, *, #163, .F. ) ;
#638 = CIRCLE ( 'NONE', #682, 21.21320343559642652 ) ;
#639 = LINE ( 'NONE', #481, #920 ) ;
#640 = DIRECTION ( 'NONE',  ( -1.000000000000000000, -5.981805089575197183E-16, 0.000000000000000000 ) ) ;
#641 = EDGE_LOOP ( 'NONE', ( #740, #792, #262, #573, #978 ) ) ;
#642 = VERTEX_POINT ( 'NONE', #442 ) ;
#643 = CARTESIAN_POINT ( 'NONE',  ( -6.050000000000014033, 0.000000000000000000, 14.90000000000000036 ) ) ;
#644 = DIRECTION ( 'NONE',  ( -0.000000000000000000, -0.000000000000000000, -1.000000000000000000 ) ) ;
#645 = VERTEX_POINT ( 'NONE', #284 ) ;
#646 = EDGE_CURVE ( 'NONE', #99, #329, #589, .T. ) ;
#647 = EDGE_CURVE ( 'NONE', #703, #562, #353, .T. ) ;
#648 = AXIS2_PLACEMENT_3D ( 'NONE', #745, #14, #103 ) ;
#649 = VECTOR ( 'NONE', #63, 1000.000000000000000 ) ;
#650 = CARTESIAN_POINT ( 'NONE',  ( 5.353715555169805231E-15, 8.950000000000006395, 14.90000000000000036 ) ) ;
#651 = VECTOR ( 'NONE', #730, 1000.000000000000000 ) ;
#652 = ORIENTED_EDGE ( 'NONE', *, *, #89, .F. ) ;
#653 = DIRECTION ( 'NONE',  ( -1.000000000000000000, 0.000000000000000000, 0.000000000000000000 ) ) ;
#654 = ORIENTED_EDGE ( 'NONE', *, *, #162, .T. ) ;
#655 = ADVANCED_FACE ( 'NONE', ( #911 ), #187, .T. ) ;
#656 = LINE ( 'NONE', #409, #280 ) ;
#657 = CARTESIAN_POINT ( 'NONE',  ( 11.91941738241348681, -3.080582617586498984, 5.000000000000000888 ) ) ;
#658 = EDGE_LOOP ( 'NONE', ( #661, #969, #227, #10 ) ) ;
#659 = ADVANCED_FACE ( 'NONE', ( #508 ), #605, .T. ) ;
#660 = LINE ( 'NONE', #165, #729 ) ;
#661 = ORIENTED_EDGE ( 'NONE', *, *, #779, .T. ) ;
#662 = VERTEX_POINT ( 'NONE', #111 ) ;
#663 = CARTESIAN_POINT ( 'NONE',  ( 0.000000000000000000, 6.050000000000003375, 14.90000000000000036 ) ) ;
#664 = PLANE ( 'NONE',  #648 ) ;
#665 = VERTEX_POINT ( 'NONE', #675 ) ;
#666 = CARTESIAN_POINT ( 'NONE',  ( 14.99999999999998579, 15.00000000000000000, 5.000000000000000000 ) ) ;
#667 = ORIENTED_EDGE ( 'NONE', *, *, #571, .T. ) ;
#668 = EDGE_LOOP ( 'NONE', ( #155, #856, #652, #679 ) ) ;
#669 = VECTOR ( 'NONE', #807, 1000.000000000000000 ) ;
#670 = CARTESIAN_POINT ( 'NONE',  ( 3.745761680421244577, -12.58459644525767018, -18.37065070846087522 ) ) ;
#671 = UNCERTAINTY_MEASURE_WITH_UNIT (LENGTH_MEASURE( 1.000000000000000082E-05 ), #513, 'distance_accuracy_value', 'NONE');
#672 = CARTESIAN_POINT ( 'NONE',  ( 23.77906802136742215, -14.94023325654045564, -27.51089847565040003 ) ) ;
#673 = ORIENTED_EDGE ( 'NONE', *, *, #821, .T. ) ;
#674 = EDGE_CURVE ( 'NONE', #222, #972, #533, .T. ) ;
#675 = CARTESIAN_POINT ( 'NONE',  ( 14.99999999999998579, 15.00000000000000000, 0.000000000000000000 ) ) ;
#676 = PLANE ( 'NONE',  #936 ) ;
#677 = FACE_OUTER_BOUND ( 'NONE', #617, .T. ) ;
#678 = VECTOR ( 'NONE', #281, 1000.000000000000000 ) ;
#679 = ORIENTED_EDGE ( 'NONE', *, *, #1029, .T. ) ;
#680 = FACE_OUTER_BOUND ( 'NONE', #391, .T. ) ;
#681 = AXIS2_PLACEMENT_3D ( 'NONE', #1027, #297, #286 ) ;
#682 = AXIS2_PLACEMENT_3D ( 'NONE', #490, #636, #2 ) ;
#683 = LINE ( 'NONE', #597, #888 ) ;
#684 = FACE_OUTER_BOUND ( 'NONE', #722, .T. ) ;
#685 = EDGE_CURVE ( 'NONE', #335, #778, #539, .T. ) ;
#686 = LINE ( 'NONE', #1018, #678 ) ;
#687 = CARTESIAN_POINT ( 'NONE',  ( 17.23099254287844317, -32.22381775724234387, -30.80164779015749588 ) ) ;
#688 = STYLED_ITEM ( 'NONE', ( #906 ), #1048 ) ;
#689 = CARTESIAN_POINT ( 'NONE',  ( -8.950000000000013500, 0.000000000000000000, 14.90000000000000036 ) ) ;
#690 = CARTESIAN_POINT ( 'NONE',  ( 42.82177936980608024, -12.82177936981222821, -23.22200987854977683 ) ) ;
#691 = DIRECTION ( 'NONE',  ( -0.000000000000000000, 0.000000000000000000, 1.000000000000000000 ) ) ;
#692 = LINE ( 'NONE', #754, #268 ) ;
#693 = CARTESIAN_POINT ( 'NONE',  ( 20.02976624027586539, -42.73528374399230501, -14.49999999999965716 ) ) ;
#694 = CARTESIAN_POINT ( 'NONE',  ( 6.050000000000014033, 0.000000000000000000, 14.90000000000000036 ) ) ;
#695 = PLANE ( 'NONE',  #681 ) ;
#696 = ORIENTED_EDGE ( 'NONE', *, *, #462, .F. ) ;
#697 = CARTESIAN_POINT ( 'NONE',  ( 54.62162124732232371, -24.62461908973825331, -32.17900368358268537 ) ) ;
#698 = ADVANCED_FACE ( 'NONE', ( #919 ), #512, .F. ) ;
#699 = CARTESIAN_POINT ( 'NONE',  ( 14.99999999999998579, 15.00000000000000000, 5.000000000000000000 ) ) ;
#700 = CARTESIAN_POINT ( 'NONE',  ( -6.050000000000014033, 8.950000000000002842, 14.90000000000000036 ) ) ;
#701 = VECTOR ( 'NONE', #832, 1000.000000000000000 ) ;
#702 = VECTOR ( 'NONE', #853, 999.9999999999998863 ) ;
#703 = VERTEX_POINT ( 'NONE', #764 ) ;
#704 = MECHANICAL_DESIGN_GEOMETRIC_PRESENTATION_REPRESENTATION (  '', ( #688 ), #789 ) ;
#705 = FACE_OUTER_BOUND ( 'NONE', #158, .T. ) ;
#706 = DIRECTION ( 'NONE',  ( -0.6123724356957974679, 0.6123724356957980230, 0.4999999999999921729 ) ) ;
#707 = CARTESIAN_POINT ( 'NONE',  ( 12.51441488399698443, -12.51441488399698976, -40.71724217559064130 ) ) ;
#708 = CARTESIAN_POINT ( 'NONE',  ( 0.000000000000000000, 0.000000000000000000, 14.90000000000000036 ) ) ;
#709 = PRODUCT_DEFINITION ( '未知', '', #61, #7 ) ;
#710 = EDGE_LOOP ( 'NONE', ( #88, #735, #37, #785 ) ) ;
#711 = CARTESIAN_POINT ( 'NONE',  ( -15.00000000000001421, -15.00000000000000000, 0.000000000000000000 ) ) ;
#712 = LINE ( 'NONE', #225, #763 ) ;
#713 = EDGE_LOOP ( 'NONE', ( #554, #464, #968, #125 ) ) ;
#714 = LINE ( 'NONE', #950, #788 ) ;
#715 = FACE_OUTER_BOUND ( 'NONE', #181, .T. ) ;
#716 = ORIENTED_EDGE ( 'NONE', *, *, #966, .F. ) ;
#717 = LINE ( 'NONE', #544, #299 ) ;
#718 = LINE ( 'NONE', #393, #315 ) ;
#719 = DIRECTION ( 'NONE',  ( -0.000000000000000000, -0.000000000000000000, -1.000000000000000000 ) ) ;
#720 = CARTESIAN_POINT ( 'NONE',  ( 6.763390467297186071, -27.97659390289969394, -22.84279326771811114 ) ) ;
#721 = ORIENTED_EDGE ( 'NONE', *, *, #234, .F. ) ;
#722 = EDGE_LOOP ( 'NONE', ( #829, #782, #871, #494, #553, #352, #918, #62, #256 ) ) ;
#723 = AXIS2_PLACEMENT_3D ( 'NONE', #218, #845, #114 ) ;
#724 = CARTESIAN_POINT ( 'NONE',  ( 6.050000000000014033, 6.050000000000003375, 5.000000000000000000 ) ) ;
#725 = ADVANCED_FACE ( 'NONE', ( #680, #933 ), #273, .T. ) ;
#726 = EDGE_CURVE ( 'NONE', #412, #397, #692, .T. ) ;
#727 = LINE ( 'NONE', #1056, #1053 ) ;
#728 = ORIENTED_EDGE ( 'NONE', *, *, #234, .T. ) ;
#729 = VECTOR ( 'NONE', #900, 1000.000000000000114 ) ;
#730 = DIRECTION ( 'NONE',  ( 0.7071067811865475727, 0.7071067811865474617, -1.633709045410755732E-16 ) ) ;
#731 = EDGE_CURVE ( 'NONE', #497, #806, #686, .T. ) ;
#732 = EDGE_LOOP ( 'NONE', ( #260, #420, #1057, #178 ) ) ;
#733 = EDGE_CURVE ( 'NONE', #742, #497, #852, .T. ) ;
#734 = PLANE ( 'NONE',  #910 ) ;
#735 = ORIENTED_EDGE ( 'NONE', *, *, #767, .F. ) ;
#736 = MECHANICAL_DESIGN_GEOMETRIC_PRESENTATION_REPRESENTATION (  '', ( #54 ), #108 ) ;
#737 = LINE ( 'NONE', #229, #600 ) ;
#738 = VECTOR ( 'NONE', #323, 999.9999999999998863 ) ;
#739 = EDGE_CURVE ( 'NONE', #778, #480, #998, .T. ) ;
#740 = ORIENTED_EDGE ( 'NONE', *, *, #726, .T. ) ;
#741 = DIRECTION ( 'NONE',  ( 0.000000000000000000, 1.000000000000000000, -0.000000000000000000 ) ) ;
#742 = VERTEX_POINT ( 'NONE', #196 ) ;
#743 = VERTEX_POINT ( 'NONE', #870 ) ;
#744 = CARTESIAN_POINT ( 'NONE',  ( 3.080582617581638871, -11.91941738241834514, 5.000000000000001776 ) ) ;
#745 = CARTESIAN_POINT ( 'NONE',  ( -15.00000000000001421, -15.00000000000000000, 5.000000000000000000 ) ) ;
#746 = VERTEX_POINT ( 'NONE', #140 ) ;
#747 = FACE_OUTER_BOUND ( 'NONE', #254, .T. ) ;
#748 = ORIENTED_EDGE ( 'NONE', *, *, #430, .T. ) ;
#749 = EDGE_LOOP ( 'NONE', ( #748, #171, #1040, #992, #209 ) ) ;
#750 = FILL_AREA_STYLE_COLOUR ( '', #110 ) ;
#751 = CARTESIAN_POINT ( 'NONE',  ( -1.561251128379126385E-14, -1.734723475976807094E-15, 5.000000000000000000 ) ) ;
#752 = LINE ( 'NONE', #844, #612 ) ;
#753 = CARTESIAN_POINT ( 'NONE',  ( -21.21320343559644073, -1.734723475976807094E-15, 5.000000000000000000 ) ) ;
#754 = CARTESIAN_POINT ( 'NONE',  ( -2.009147687402030424, -6.829687077434676290, -32.46724217559076209 ) ) ;
#755 = AXIS2_PLACEMENT_3D ( 'NONE', #751, #766, #180 ) ;
#756 = DIRECTION ( 'NONE',  ( 0.7071067811865473507, 0.7071067811865476838, 0.000000000000000000 ) ) ;
#757 = DIRECTION ( 'NONE',  ( -0.000000000000000000, -0.000000000000000000, -1.000000000000000000 ) ) ;
#758 = VERTEX_POINT ( 'NONE', #925 ) ;
#759 = CARTESIAN_POINT ( 'NONE',  ( -15.00000000000001421, -15.00000000000000000, 0.000000000000000000 ) ) ;
#760 = CARTESIAN_POINT ( 'NONE',  ( 14.99999999999998579, 0.000000000000000000, 5.000000000000000000 ) ) ;
#761 = DIRECTION ( 'NONE',  ( 1.000000000000000000, 0.000000000000000000, 0.000000000000000000 ) ) ;
#762 = EDGE_CURVE ( 'NONE', #642, #627, #120, .T. ) ;
#763 = VECTOR ( 'NONE', #963, 1000.000000000000000 ) ;
#764 = CARTESIAN_POINT ( 'NONE',  ( 7.351593902894162369, -37.35159390289900472, -18.24999999999969091 ) ) ;
#765 = VECTOR ( 'NONE', #366, 1000.000000000000000 ) ;
#766 = DIRECTION ( 'NONE',  ( -0.000000000000000000, -0.000000000000000000, -1.000000000000000000 ) ) ;
#767 = EDGE_CURVE ( 'NONE', #272, #830, #34, .T. ) ;
#768 = CARTESIAN_POINT ( 'NONE',  ( -6.050000000000014033, 6.050000000000003375, 5.000000000000000000 ) ) ;
#769 = DIRECTION ( 'NONE',  ( 1.000000000000000000, 0.000000000000000000, 0.000000000000000000 ) ) ;
#770 = DIRECTION ( 'NONE',  ( -1.000000000000000000, 5.981805089575197183E-16, 0.000000000000000000 ) ) ;
#771 = CARTESIAN_POINT ( 'NONE',  ( 0.000000000000000000, -6.050000000000003375, 5.000000000000000000 ) ) ;
#772 = CARTESIAN_POINT ( 'NONE',  ( 0.000000000000000000, 0.000000000000000000, 14.90000000000000036 ) ) ;
#773 = EDGE_CURVE ( 'NONE', #902, #398, #536, .T. ) ;
#774 = CARTESIAN_POINT ( 'NONE',  ( 8.950000000000013500, 0.000000000000000000, 14.90000000000000036 ) ) ;
#775 = DIRECTION ( 'NONE',  ( -0.7071067811865474617, -0.7071067811865474617, 0.000000000000000000 ) ) ;
#776 = CARTESIAN_POINT ( 'NONE',  ( 39.21605164012893141, -13.04057599438036519, -27.37013637928905396 ) ) ;
#777 = DIRECTION ( 'NONE',  ( -5.981805089575197183E-16, -1.000000000000000000, 0.000000000000000000 ) ) ;
#778 = VERTEX_POINT ( 'NONE', #517 ) ;
#779 = EDGE_CURVE ( 'NONE', #874, #491, #443, .T. ) ;
#780 = CARTESIAN_POINT ( 'NONE',  ( 21.10205544421043911, -15.20949893432741185, -26.89878307350313946 ) ) ;
#781 = CARTESIAN_POINT ( 'NONE',  ( 35.14178066525403921, -15.20427197526389307, -29.71010330458873483 ) ) ;
#782 = ORIENTED_EDGE ( 'NONE', *, *, #912, .F. ) ;
#783 = AXIS2_PLACEMENT_3D ( 'NONE', #71, #495, #90 ) ;
#784 = ADVANCED_FACE ( 'NONE', ( #382 ), #51, .F. ) ;
#785 = ORIENTED_EDGE ( 'NONE', *, *, #235, .F. ) ;
#786 = CARTESIAN_POINT ( 'NONE',  ( -8.950000000000013500, 0.000000000000000000, 14.90000000000000036 ) ) ;
#787 = VERTEX_POINT ( 'NONE', #379 ) ;
#788 = VECTOR ( 'NONE', #551, 1000.000000000000000 ) ;
#789 =( GEOMETRIC_REPRESENTATION_CONTEXT ( 3 ) GLOBAL_UNCERTAINTY_ASSIGNED_CONTEXT ( ( #671 ) ) GLOBAL_UNIT_ASSIGNED_CONTEXT ( ( #513, #999, #993 ) ) REPRESENTATION_CONTEXT ( 'NONE', 'WORKASPACE' ) );
#790 = PRESENTATION_STYLE_ASSIGNMENT (( #1023 ) ) ;
#791 = FACE_BOUND ( 'NONE', #500, .T. ) ;
#792 = ORIENTED_EDGE ( 'NONE', *, *, #961, .T. ) ;
#793 = CARTESIAN_POINT ( 'NONE',  ( 12.64386414812772053, -40.53420841864058843, -26.24160142423479769 ) ) ;
#794 = DIRECTION ( 'NONE',  ( 1.000000000000000000, 0.000000000000000000, 0.000000000000000000 ) ) ;
#795 = ORIENTED_EDGE ( 'NONE', *, *, #235, .T. ) ;
#796 = DIRECTION ( 'NONE',  ( 0.000000000000000000, -0.000000000000000000, -1.000000000000000000 ) ) ;
#797 = CARTESIAN_POINT ( 'NONE',  ( -8.950000000000013500, 0.000000000000000000, 5.000000000000000000 ) ) ;
#798 = ORIENTED_EDGE ( 'NONE', *, *, #843, .F. ) ;
#799 = FACE_OUTER_BOUND ( 'NONE', #42, .T. ) ;
#800 = CARTESIAN_POINT ( 'NONE',  ( 0.000000000000000000, 6.050000000000003375, 14.90000000000000036 ) ) ;
#801 = CIRCLE ( 'NONE', #69, 21.21320343559642652 ) ;
#802 = DIRECTION ( 'NONE',  ( 0.000000000000000000, -1.000000000000000000, 0.000000000000000000 ) ) ;
#803 = CARTESIAN_POINT ( 'NONE',  ( 14.99999999999998757, 2.602085213965210642E-15, 5.000000000000000000 ) ) ;
#804 = ORIENTED_EDGE ( 'NONE', *, *, #849, .T. ) ;
#805 = EDGE_CURVE ( 'NONE', #562, #222, #278, .T. ) ;
#806 = VERTEX_POINT ( 'NONE', #217 ) ;
#807 = DIRECTION ( 'NONE',  ( 0.6123724356957316317, -0.6123724356958639703, -0.4999999999999921174 ) ) ;
#808 = DIRECTION ( 'NONE',  ( 0.000000000000000000, 0.000000000000000000, 1.000000000000000000 ) ) ;
#809 = EDGE_LOOP ( 'NONE', ( #557, #21, #855, #83, #862 ) ) ;
#810 = EDGE_CURVE ( 'NONE', #335, #17, #857, .T. ) ;
#811 = FACE_OUTER_BOUND ( 'NONE', #710, .T. ) ;
#812 = CARTESIAN_POINT ( 'NONE',  ( 32.75880063517810470, -17.75880063517811536, -9.499999999999751310 ) ) ;
#813 = ADVANCED_FACE ( 'NONE', ( #705 ), #439, .T. ) ;
#814 = ORIENTED_EDGE ( 'NONE', *, *, #52, .T. ) ;
#815 = VECTOR ( 'NONE', #433, 1000.000000000000000 ) ;
#816 = CARTESIAN_POINT ( 'NONE',  ( -8.950000000000013500, 6.050000000000003375, 5.000000000000000000 ) ) ;
#817 = ORIENTED_EDGE ( 'NONE', *, *, #458, .T. ) ;
#818 = VECTOR ( 'NONE', #55, 1000.000000000000114 ) ;
#819 = VECTOR ( 'NONE', #908, 1000.000000000000000 ) ;
#820 =( BOUNDED_SURFACE ( )  B_SPLINE_SURFACE ( 3, 1, ( 
 ( #1042, #252 ),
 ( #309, #633 ),
 ( #881, #492 ),
 ( #474, #720 ) ),
 .UNSPECIFIED., .F., .F., .T. ) 
 B_SPLINE_SURFACE_WITH_KNOTS ( ( 4, 4 ),
 ( 2, 2 ),
 ( 0.000000000000000000, 1.000000000000000000 ),
 ( 0.000000000000000000, 1.000000000000000000 ),
 .UNSPECIFIED. ) 
 GEOMETRIC_REPRESENTATION_ITEM ( )  RATIONAL_B_SPLINE_SURFACE ( (
 ( 1.000000000000000000, 1.000000000000000000),
 ( 0.9486501948152655794, 0.9486501948152655794),
 ( 0.9486501948152655794, 0.9486501948152655794),
 ( 1.000000000000000000, 1.000000000000000000) ) ) 
 REPRESENTATION_ITEM ( '' )  SURFACE ( )  );
#821 = EDGE_CURVE ( 'NONE', #645, #1028, #603, .T. ) ;
#822 = ORIENTED_EDGE ( 'NONE', *, *, #1045, .T. ) ;
#823 = FACE_OUTER_BOUND ( 'NONE', #732, .T. ) ;
#824 = ORIENTED_EDGE ( 'NONE', *, *, #733, .T. ) ;
#825 = ORIENTED_EDGE ( 'NONE', *, *, #585, .T. ) ;
#826 = CARTESIAN_POINT ( 'NONE',  ( 13.84990686940175486, -22.68874163423834034, -26.62065070846092851 ) ) ;
#827 = ORIENTED_EDGE ( 'NONE', *, *, #646, .F. ) ;
#828 = CARTESIAN_POINT ( 'NONE',  ( -1.561251128379126385E-14, -1.734723475976807094E-15, 0.000000000000000000 ) ) ;
#829 = ORIENTED_EDGE ( 'NONE', *, *, #243, .F. ) ;
#830 = VERTEX_POINT ( 'NONE', #939 ) ;
#831 = MANIFOLD_SOLID_BREP ( '凸台-拉伸12', #170 ) ;
#832 = DIRECTION ( 'NONE',  ( 0.6123724356957976900, -0.6123724356957979120, -0.4999999999999920619 ) ) ;
#833 = CARTESIAN_POINT ( 'NONE',  ( -5.353715555169805231E-15, -8.950000000000006395, 14.90000000000000036 ) ) ;
#834 = PLANE ( 'NONE',  #473 ) ;
#835 = DIRECTION ( 'NONE',  ( 0.3535533905932681797, -0.3535533905932682353, 0.8660254037844432595 ) ) ;
#836 = CYLINDRICAL_SURFACE ( 'NONE', #534, 21.21320343559642652 ) ;
#837 = ORIENTED_EDGE ( 'NONE', *, *, #805, .T. ) ;
#838 = DIRECTION ( 'NONE',  ( 5.981805089575197183E-16, 1.000000000000000000, -0.000000000000000000 ) ) ;
#839 = VECTOR ( 'NONE', #757, 1000.000000000000000 ) ;
#840 = VECTOR ( 'NONE', #944, 1000.000000000000000 ) ;
#841 = CARTESIAN_POINT ( 'NONE',  ( 7.351593902894154375, 22.64840609710093844, -18.24999999999969091 ) ) ;
#842 = ADVANCED_FACE ( 'NONE', ( #615 ), #378, .F. ) ;
#843 = EDGE_CURVE ( 'NONE', #272, #743, #520, .T. ) ;
#844 = CARTESIAN_POINT ( 'NONE',  ( 8.094997501578632182, -16.93383226641533668, -40.71724217559064840 ) ) ;
#845 = DIRECTION ( 'NONE',  ( 0.3535533905932681797, -0.3535533905932680687, 0.8660254037844432595 ) ) ;
#846 = EDGE_CURVE ( 'NONE', #742, #248, #864, .T. ) ;
#847 = DIRECTION ( 'NONE',  ( -0.000000000000000000, 0.000000000000000000, 1.000000000000000000 ) ) ;
#848 = DIRECTION ( 'NONE',  ( -0.000000000000000000, -0.000000000000000000, -1.000000000000000000 ) ) ;
#849 = EDGE_CURVE ( 'NONE', #562, #467, #121, .T. ) ;
#850 = DIRECTION ( 'NONE',  ( 1.000000000000000000, 0.000000000000000000, -0.000000000000000000 ) ) ;
#851 = DIRECTION ( 'NONE',  ( -0.000000000000000000, -0.000000000000000000, -1.000000000000000000 ) ) ;
#852 = LINE ( 'NONE', #689, #169 ) ;
#853 = DIRECTION ( 'NONE',  ( 0.3535533905932681797, -0.3535533905932682353, 0.8660254037844432595 ) ) ;
#854 = CARTESIAN_POINT ( 'NONE',  ( 42.19212787554931055, -12.55715160820054344, -24.31727381076662553 ) ) ;
#855 = ORIENTED_EDGE ( 'NONE', *, *, #529, .F. ) ;
#856 = ORIENTED_EDGE ( 'NONE', *, *, #174, .F. ) ;
#857 = LINE ( 'NONE', #118, #138 ) ;
#858 = EDGE_CURVE ( 'NONE', #91, #545, #304, .T. ) ;
#859 = CARTESIAN_POINT ( 'NONE',  ( 35.48477039359351437, -14.98839244011963068, -29.55442574737132233 ) ) ;
#860 = CARTESIAN_POINT ( 'NONE',  ( 6.050000000000014033, 6.050000000000003375, 14.90000000000000036 ) ) ;
#861 = PRODUCT_DEFINITION_SHAPE ( 'NONE', 'NONE',  #709 ) ;
#862 = ORIENTED_EDGE ( 'NONE', *, *, #324, .F. ) ;
#863 = VECTOR ( 'NONE', #601, 1000.000000000000000 ) ;
#864 = LINE ( 'NONE', #134, #840 ) ;
#865 = CARTESIAN_POINT ( 'NONE',  ( 33.11154245567177412, -16.57416545607940250, -30.51885712449636756 ) ) ;
#866 = EDGE_LOOP ( 'NONE', ( #18, #814, #721, #96 ) ) ;
#867 = AXIS2_PLACEMENT_3D ( 'NONE', #226, #878, #149 ) ;
#868 = FILL_AREA_STYLE_COLOUR ( '', #1026 ) ;
#869 = VECTOR ( 'NONE', #438, 1000.000000000000114 ) ;
#870 = CARTESIAN_POINT ( 'NONE',  ( 38.88252499213352564, -23.88252499213868418, -14.49999999999968381 ) ) ;
#871 = ORIENTED_EDGE ( 'NONE', *, *, #537, .T. ) ;
#872 = CARTESIAN_POINT ( 'NONE',  ( 13.29415699916656735, -38.61405542590468798, -27.79685612016298535 ) ) ;
#873 = DIRECTION ( 'NONE',  ( 0.6123724356957316317, -0.6123724356958639703, -0.4999999999999921174 ) ) ;
#874 = VERTEX_POINT ( 'NONE', #472 ) ;
#875 = CARTESIAN_POINT ( 'NONE',  ( 3.745761680421244577, -12.58459644525767018, -18.37065070846087522 ) ) ;
#876 = ORIENTED_EDGE ( 'NONE', *, *, #89, .T. ) ;
#877 = DIRECTION ( 'NONE',  ( -0.000000000000000000, 0.000000000000000000, 1.000000000000000000 ) ) ;
#878 = DIRECTION ( 'NONE',  ( -1.000000000000000000, 0.000000000000000000, 0.000000000000000000 ) ) ;
#879 = ORIENTED_EDGE ( 'NONE', *, *, #945, .T. ) ;
#880 = LINE ( 'NONE', #151, #325 ) ;
#881 = CARTESIAN_POINT ( 'NONE',  ( 14.76607146337518905, -41.71661743541355349, -29.37695493927165558 ) ) ;
#882 = VERTEX_POINT ( 'NONE', #711 ) ;
#883 = ORIENTED_EDGE ( 'NONE', *, *, #208, .F. ) ;
#884 = CARTESIAN_POINT ( 'NONE',  ( -8.950000000000013500, -6.050000000000003375, 14.90000000000000036 ) ) ;
#885 = ADVANCED_FACE ( 'NONE', ( #954 ), #632, .T. ) ;
#886 = DIRECTION ( 'NONE',  ( -1.000000000000000000, 0.000000000000000000, 0.000000000000000000 ) ) ;
#887 = ORIENTED_EDGE ( 'NONE', *, *, #731, .T. ) ;
#888 = VECTOR ( 'NONE', #25, 1000.000000000000000 ) ;
#889 = DIRECTION ( 'NONE',  ( 0.000000000000000000, -0.7745966692415233723, -0.6324555320336268105 ) ) ;
#890 = ORIENTED_EDGE ( 'NONE', *, *, #1009, .F. ) ;
#891 = CARTESIAN_POINT ( 'NONE',  ( 0.000000000000000000, -15.00000000000000000, 5.000000000000000000 ) ) ;
#892 = ORIENTED_EDGE ( 'NONE', *, *, #358, .F. ) ;
#893 = CARTESIAN_POINT ( 'NONE',  ( 9.222995344003900087, -18.06183010883937001, -22.84279326771811469 ) ) ;
#894 = EDGE_LOOP ( 'NONE', ( #938, #883, #485, #307 ) ) ;
#895 = VECTOR ( 'NONE', #38, 1000.000000000000000 ) ;
#896 = DIRECTION ( 'NONE',  ( 1.000000000000000000, 0.000000000000000000, 0.000000000000000000 ) ) ;
#897 = EDGE_LOOP ( 'NONE', ( #985, #899, #92, #822 ) ) ;
#898 = DIRECTION ( 'NONE',  ( 0.6123724356957316317, -0.6123724356958639703, -0.4999999999999921174 ) ) ;
#899 = ORIENTED_EDGE ( 'NONE', *, *, #997, .F. ) ;
#900 = DIRECTION ( 'NONE',  ( 0.6123724356957315207, -0.6123724356958638593, -0.4999999999999921729 ) ) ;
#901 = ORIENTED_EDGE ( 'NONE', *, *, #249, .F. ) ;
#902 = VERTEX_POINT ( 'NONE', #546 ) ;
#903 = DIRECTION ( 'NONE',  ( -0.000000000000000000, 0.000000000000000000, 1.000000000000000000 ) ) ;
#904 = ORIENTED_EDGE ( 'NONE', *, *, #131, .F. ) ;
#905 = FACE_OUTER_BOUND ( 'NONE', #251, .T. ) ;
#906 = PRESENTATION_STYLE_ASSIGNMENT (( #602 ) ) ;
#907 = CARTESIAN_POINT ( 'NONE',  ( 6.050000000000014033, 0.000000000000000000, 5.000000000000000000 ) ) ;
#908 = DIRECTION ( 'NONE',  ( -0.000000000000000000, -0.000000000000000000, -1.000000000000000000 ) ) ;
#909 = DIRECTION ( 'NONE',  ( 1.000000000000000000, -5.981805089575197183E-16, 0.000000000000000000 ) ) ;
#910 = AXIS2_PLACEMENT_3D ( 'NONE', #250, #886, #808 ) ;
#911 = FACE_OUTER_BOUND ( 'NONE', #317, .T. ) ;
#912 = EDGE_CURVE ( 'NONE', #412, #874, #277, .T. ) ;
#913 = EDGE_CURVE ( 'NONE', #613, #272, #714, .T. ) ;
#914 = CARTESIAN_POINT ( 'NONE',  ( 14.99999999999996980, 15.00000000000001421, 0.000000000000000000 ) ) ;
#915 = LINE ( 'NONE', #672, #43 ) ;
#916 = EDGE_CURVE ( 'NONE', #645, #329, #880, .T. ) ;
#917 = EDGE_CURVE ( 'NONE', #627, #248, #639, .T. ) ;
#918 = ORIENTED_EDGE ( 'NONE', *, *, #94, .T. ) ;
#919 = FACE_OUTER_BOUND ( 'NONE', #292, .T. ) ;
#920 = VECTOR ( 'NONE', #1049, 1000.000000000000000 ) ;
#921 = CARTESIAN_POINT ( 'NONE',  ( -15.00000000000001421, -15.00000000000000000, 0.000000000000000000 ) ) ;
#922 = VECTOR ( 'NONE', #579, 1000.000000000000000 ) ;
#923 = CARTESIAN_POINT ( 'NONE',  ( 23.88252499213190561, -38.88252499213709257, -14.49999999999966249 ) ) ;
#924 = ADVANCED_FACE ( 'NONE', ( #811 ), #314, .T. ) ;
#925 = CARTESIAN_POINT ( 'NONE',  ( -15.00000000000001421, -15.00000000000000000, 5.000000000000000000 ) ) ;
#926 = CARTESIAN_POINT ( 'NONE',  ( 0.000000000000000000, 0.000000000000000000, 0.000000000000000000 ) ) ;
#927 = CARTESIAN_POINT ( 'NONE',  ( 18.04996190260635558, -18.04996190261114464, -27.15797653280682056 ) ) ;
#928 = CARTESIAN_POINT ( 'NONE',  ( 41.39504559606707090, -12.51146095705287209, -25.34945563530324719 ) ) ;
#929 = CARTESIAN_POINT ( 'NONE',  ( 6.050000000000014033, 0.000000000000000000, 14.90000000000000036 ) ) ;
#930 = CARTESIAN_POINT ( 'NONE',  ( 6.763390467297189623, -27.97659390289969394, -22.84279326771811469 ) ) ;
#931 = CARTESIAN_POINT ( 'NONE',  ( 19.57407282861093378, -10.73523806378395129, -1.249999999999878764 ) ) ;
#932 = CARTESIAN_POINT ( 'NONE',  ( -1.561251128379126385E-14, -1.734723475976807094E-15, 5.000000000000000000 ) ) ;
#933 = FACE_BOUND ( 'NONE', #219, .T. ) ;
#934 = FILL_AREA_STYLE ('',( #868 ) ) ;
#935 = CARTESIAN_POINT ( 'NONE',  ( 34.12115094764662615, -15.87590799744994108, -30.13753154320408711 ) ) ;
#936 = AXIS2_PLACEMENT_3D ( 'NONE', #183, #503, #175 ) ;
#937 = LINE ( 'NONE', #207, #487 ) ;
#938 = ORIENTED_EDGE ( 'NONE', *, *, #168, .F. ) ;
#939 = CARTESIAN_POINT ( 'NONE',  ( 14.50752499213296076, -44.50752499213935920, -19.09279326771809338 ) ) ;
#940 = CARTESIAN_POINT ( 'NONE',  ( 8.950000000000013500, 8.950000000000001066, 5.000000000000000888 ) ) ;
#941 = CARTESIAN_POINT ( 'NONE',  ( 20.83938325275975600, -29.67821801759645695, -9.499999999999745981 ) ) ;
#942 = ORIENTED_EDGE ( 'NONE', *, *, #762, .F. ) ;
#943 = AXIS2_PLACEMENT_3D ( 'NONE', #463, #191, #347 ) ;
#944 = DIRECTION ( 'NONE',  ( -0.000000000000000000, -0.000000000000000000, -1.000000000000000000 ) ) ;
#945 = EDGE_CURVE ( 'NONE', #564, #1028, #78, .T. ) ;
#946 = AXIS2_PLACEMENT_3D ( 'NONE', #291, #706, #611 ) ;
#947 = AXIS2_PLACEMENT_3D ( 'NONE', #213, #85, #653 ) ;
#948 = EDGE_CURVE ( 'NONE', #248, #806, #13, .T. ) ;
#949 = ORIENTED_EDGE ( 'NONE', *, *, #56, .T. ) ;
#950 = CARTESIAN_POINT ( 'NONE',  ( -1.734723475976807094E-14, -15.00000000000000000, 5.000000000000000000 ) ) ;
#951 = DIRECTION ( 'NONE',  ( -0.000000000000000000, 0.000000000000000000, -1.000000000000000000 ) ) ;
#952 = EDGE_CURVE ( 'NONE', #665, #448, #737, .T. ) ;
#953 = ORIENTED_EDGE ( 'NONE', *, *, #381, .T. ) ;
#954 = FACE_OUTER_BOUND ( 'NONE', #129, .T. ) ;
#955 = CARTESIAN_POINT ( 'NONE',  ( -5.353715555169805231E-15, 8.950000000000006395, 5.000000000000000000 ) ) ;
#956 = DIRECTION ( 'NONE',  ( 1.000000000000000000, 0.000000000000000000, 0.000000000000000000 ) ) ;
#957 = ORIENTED_EDGE ( 'NONE', *, *, #94, .F. ) ;
#958 = CARTESIAN_POINT ( 'NONE',  ( 5.097368153455392736, -11.00722968912380573, -18.64714945735117979 ) ) ;
#959 = CARTESIAN_POINT ( 'NONE',  ( -8.950000000000013500, 0.000000000000000000, 5.000000000000000000 ) ) ;
#960 = ORIENTED_EDGE ( 'NONE', *, *, #646, .T. ) ;
#961 = EDGE_CURVE ( 'NONE', #397, #74, #247, .T. ) ;
#962 = CIRCLE ( 'NONE', #370, 21.21320343559642652 ) ;
#963 = DIRECTION ( 'NONE',  ( 0.000000000000000000, -1.000000000000000000, 0.000000000000000000 ) ) ;
#964 = FACE_OUTER_BOUND ( 'NONE', #713, .T. ) ;
#965 = EDGE_LOOP ( 'NONE', ( #245, #696, #68, #332 ) ) ;
#966 = EDGE_CURVE ( 'NONE', #446, #778, #6, .T. ) ;
#967 = CARTESIAN_POINT ( 'NONE',  ( -1.734723475976807094E-14, -15.00000000000000000, 5.000000000000000000 ) ) ;
#968 = ORIENTED_EDGE ( 'NONE', *, *, #1045, .F. ) ;
#969 = ORIENTED_EDGE ( 'NONE', *, *, #540, .F. ) ;
#970 = CARTESIAN_POINT ( 'NONE',  ( 12.97659390289364190, -42.97659390289973658, -22.84279326771812535 ) ) ;
#971 = CARTESIAN_POINT ( 'NONE',  ( 6.763390467297202058, -27.97659390289970460, -22.84279326771811824 ) ) ;
#972 = VERTEX_POINT ( 'NONE', #893 ) ;
#973 = AXIS2_PLACEMENT_3D ( 'NONE', #101, #20, #995 ) ;
#974 = PRESENTATION_LAYER_ASSIGNMENT (  '', '', ( #54 ) ) ;
#975 = CARTESIAN_POINT ( 'NONE',  ( 14.99999999999998579, 3.903127820947815962E-15, 5.000000000000000000 ) ) ;
#976 = ORIENTED_EDGE ( 'NONE', *, *, #620, .F. ) ;
#977 = DIRECTION ( 'NONE',  ( 1.000000000000000000, 5.981805089575197183E-16, 0.000000000000000000 ) ) ;
#978 = ORIENTED_EDGE ( 'NONE', *, *, #537, .F. ) ;
#979 = PRODUCT_RELATED_PRODUCT_CATEGORY ( 'part', '', ( #12 ) ) ;
#980 = DIRECTION ( 'NONE',  ( -0.7071067811865474617, -0.7071067811865474617, 0.000000000000000000 ) ) ;
#981 = AXIS2_PLACEMENT_3D ( 'NONE', #926, #267, #769 ) ;
#982 = LINE ( 'NONE', #907, #559 ) ;
#983 = ORIENTED_EDGE ( 'NONE', *, *, #849, .F. ) ;
#984 = CARTESIAN_POINT ( 'NONE',  ( 8.950000000000013500, 0.000000000000000000, 5.000000000000000000 ) ) ;
#985 = ORIENTED_EDGE ( 'NONE', *, *, #733, .F. ) ;
#986 = EDGE_LOOP ( 'NONE', ( #716, #550, #575, #238 ) ) ;
#987 = DIRECTION ( 'NONE',  ( -1.000000000000000000, 0.000000000000000000, 0.000000000000000000 ) ) ;
#988 = LINE ( 'NONE', #760, #376 ) ;
#989 = ORIENTED_EDGE ( 'NONE', *, *, #1001, .F. ) ;
#990 = CARTESIAN_POINT ( 'NONE',  ( 37.35159390289418013, -7.351593902899018040, -18.24999999999969091 ) ) ;
#991 = VERTEX_POINT ( 'NONE', #316 ) ;
#992 = ORIENTED_EDGE ( 'NONE', *, *, #618, .F. ) ;
#993 =( NAMED_UNIT ( * ) SI_UNIT ( $, .STERADIAN. ) SOLID_ANGLE_UNIT ( ) );
#994 = DIRECTION ( 'NONE',  ( 0.000000000000000000, -1.000000000000000000, 0.000000000000000000 ) ) ;
#995 = DIRECTION ( 'NONE',  ( 0.7745966692414564259, 0.000000000000000000, -0.6324555320337088560 ) ) ;
#996 = LINE ( 'NONE', #202, #81 ) ;
#997 = EDGE_CURVE ( 'NONE', #642, #742, #482, .T. ) ;
#998 = LINE ( 'NONE', #1011, #863 ) ;
#999 =( NAMED_UNIT ( * ) PLANE_ANGLE_UNIT ( ) SI_UNIT ( $, .RADIAN. ) );
#1000 = CARTESIAN_POINT ( 'NONE',  ( 15.12447023980172744, -35.25466438432159322, -29.66958631483262820 ) ) ;
#1001 = EDGE_CURVE ( 'NONE', #338, #322, #552, .T. ) ;
#1002 = EDGE_CURVE ( 'NONE', #74, #787, #237, .T. ) ;
#1003 = LINE ( 'NONE', #189, #154 ) ;
#1004 = VECTOR ( 'NONE', #848, 1000.000000000000000 ) ;
#1005 = CIRCLE ( 'NONE', #502, 21.21320343559642652 ) ;
#1006 = ORIENTED_EDGE ( 'NONE', *, *, #810, .F. ) ;
#1007 = DIRECTION ( 'NONE',  ( -1.000000000000000000, 0.000000000000000000, 0.000000000000000000 ) ) ;
#1008 = CARTESIAN_POINT ( 'NONE',  ( 7.351593902894169474, -37.35159390289901893, -18.24999999999969447 ) ) ;
#1009 = EDGE_CURVE ( 'NONE', #1047, #743, #330, .T. ) ;
#1010 = LINE ( 'NONE', #359, #819 ) ;
#1011 = CARTESIAN_POINT ( 'NONE',  ( 8.950000000000013500, 8.950000000000001066, 14.90000000000000036 ) ) ;
#1012 = AXIS2_PLACEMENT_3D ( 'NONE', #707, #205, #775 ) ;
#1013 = CARTESIAN_POINT ( 'NONE',  ( 34.45976943948351590, -15.64818531103145638, -30.00171247425903687 ) ) ;
#1014 =( GEOMETRIC_REPRESENTATION_CONTEXT ( 3 ) GLOBAL_UNCERTAINTY_ASSIGNED_CONTEXT ( ( #566 ) ) GLOBAL_UNIT_ASSIGNED_CONTEXT ( ( #396, #1050, #561 ) ) REPRESENTATION_CONTEXT ( 'NONE', 'WORKASPACE' ) );
#1015 = DIRECTION ( 'NONE',  ( 0.000000000000000000, 1.000000000000000000, -0.000000000000000000 ) ) ;
#1016 = LINE ( 'NONE', #699, #239 ) ;
#1017 = CARTESIAN_POINT ( 'NONE',  ( -6.050000000000014033, 8.950000000000002842, 5.000000000000000000 ) ) ;
#1018 = CARTESIAN_POINT ( 'NONE',  ( -8.950000000000013500, 8.950000000000001066, 14.90000000000000036 ) ) ;
#1019 = SURFACE_SIDE_STYLE ('',( #524 ) ) ;
#1020 = CARTESIAN_POINT ( 'NONE',  ( 32.44674943606070627, -17.05966884691217444, -30.73844117783627894 ) ) ;
#1021 = PLANE ( 'NONE',  #946 ) ;
#1022 = EDGE_LOOP ( 'NONE', ( #887, #496, #507, #824 ) ) ;
#1023 = SURFACE_STYLE_USAGE ( .BOTH. , #1019 ) ;
#1024 = CARTESIAN_POINT ( 'NONE',  ( 21.80743525660898285, -26.72150055959699344, -31.93560781588428199 ) ) ;
#1025 = VECTOR ( 'NONE', #444, 1000.000000000000000 ) ;
#1026 = COLOUR_RGB ( '',0.7921568627450980005, 0.8196078431372548767, 0.9333333333333333481 ) ;
#1027 = CARTESIAN_POINT ( 'NONE',  ( 14.99999999999998579, 15.00000000000000000, 0.000000000000000000 ) ) ;
#1028 = VERTEX_POINT ( 'NONE', #67 ) ;
#1029 = EDGE_CURVE ( 'NONE', #662, #99, #390, .T. ) ;
#1030 = EDGE_CURVE ( 'NONE', #1047, #613, #656, .T. ) ;
#1031 = CARTESIAN_POINT ( 'NONE',  ( 38.98427789517870679, -8.538769787342818773, -32.17900368358268537 ) ) ;
#1032 = ADVANCED_FACE ( 'NONE', ( #715 ), #820, .F. ) ;
#1033 = AXIS2_PLACEMENT_3D ( 'NONE', #929, #1007, #367 ) ;
#1034 = EDGE_CURVE ( 'NONE', #902, #787, #167, .T. ) ;
#1035 = CARTESIAN_POINT ( 'NONE',  ( 0.000000000000000000, 6.050000000000003375, 5.000000000000000000 ) ) ;
#1036 = ORIENTED_EDGE ( 'NONE', *, *, #966, .T. ) ;
#1037 = CARTESIAN_POINT ( 'NONE',  ( 12.82354147865300575, -42.82354147865919458, -23.21769361100357898 ) ) ;
#1038 = LINE ( 'NONE', #548, #215 ) ;
#1039 = LINE ( 'NONE', #984, #591 ) ;
#1040 = ORIENTED_EDGE ( 'NONE', *, *, #578, .F. ) ;
#1041 = CARTESIAN_POINT ( 'NONE',  ( 12.71116642378148498, -42.63659210926216048, -23.58428966450872011 ) ) ;
#1042 = CARTESIAN_POINT ( 'NONE',  ( 21.05012702132830071, -51.04979392280399253, -29.37695493927165558 ) ) ;
#1043 = ORIENTED_EDGE ( 'NONE', *, *, #530, .T. ) ;
#1044 = LINE ( 'NONE', #311, #588 ) ;
#1045 = EDGE_CURVE ( 'NONE', #1051, #497, #488, .T. ) ;
#1046 = DIRECTION ( 'NONE',  ( -0.6123724356957315207, 0.6123724356958639703, 0.4999999999999921174 ) ) ;
#1047 = VERTEX_POINT ( 'NONE', #803 ) ;
#1048 = ADVANCED_BREP_SHAPE_REPRESENTATION ( '\X2\63a8674656fa5b9a4ef6\X0\v2', ( #831, #981 ), #1014 ) ;
#1049 = DIRECTION ( 'NONE',  ( -1.000000000000000000, 0.000000000000000000, 0.000000000000000000 ) ) ;
#1050 =( NAMED_UNIT ( * ) PLANE_ANGLE_UNIT ( ) SI_UNIT ( $, .RADIAN. ) );
#1051 = VERTEX_POINT ( 'NONE', #87 ) ;
#1052 = AXIS2_PLACEMENT_3D ( 'NONE', #708, #877, #794 ) ;
#1053 = VECTOR ( 'NONE', #644, 1000.000000000000000 ) ;
#1054 = ORIENTED_EDGE ( 'NONE', *, *, #821, .F. ) ;
#1055 = PLANE ( 'NONE',  #1052 ) ;
#1056 = CARTESIAN_POINT ( 'NONE',  ( -8.950000000000013500, -6.050000000000003375, 14.90000000000000036 ) ) ;
#1057 = ORIENTED_EDGE ( 'NONE', *, *, #293, .F. ) ;
ENDSEC;
END-ISO-10303-21;
