ISO-10303-21;
HEADER;
FILE_DESCRIPTION (( 'STEP AP214' ),
    '1' );
FILE_NAME ('缓冲件.STEP',
    '2026-08-07T04:47:21',
    ( '' ),
    ( '' ),
    'SwSTEP 2.0',
    'SolidWorks 2022',
    '' );
FILE_SCHEMA (( 'AUTOMOTIVE_DESIGN' ));
ENDSEC;

DATA;
#1 = DIRECTION ( 'NONE',  ( -1.000000000000000000, 0.000000000000000000, -2.409338161078899674E-16 ) ) ;
#2 = LINE ( 'NONE', #736, #589 ) ;
#3 = VERTEX_POINT ( 'NONE', #807 ) ;
#4 = EDGE_CURVE ( 'NONE', #790, #549, #467, .T. ) ;
#5 =( GEOMETRIC_REPRESENTATION_CONTEXT ( 3 ) GLOBAL_UNCERTAINTY_ASSIGNED_CONTEXT ( ( #861 ) ) GLOBAL_UNIT_ASSIGNED_CONTEXT ( ( #453, #251, #184 ) ) REPRESENTATION_CONTEXT ( 'NONE', 'WORKASPACE' ) );
#6 = VECTOR ( 'NONE', #56, 1000.000000000000000 ) ;
#7 = VECTOR ( 'NONE', #278, 1000.000000000000000 ) ;
#8 = LINE ( 'NONE', #634, #7 ) ;
#9 = PRESENTATION_LAYER_ASSIGNMENT (  '', '', ( #848 ) ) ;
#10 = CARTESIAN_POINT ( 'NONE',  ( -5.000000000000128786, 2.099999999999949019, -3.599999999999994760 ) ) ;
#11 = ORIENTED_EDGE ( 'NONE', *, *, #449, .F. ) ;
#12 = CARTESIAN_POINT ( 'NONE',  ( -5.000000000000150102, 7.799999999987566213, 1.927470528863148532E-15 ) ) ;
#13 = DIRECTION ( 'NONE',  ( 3.304235192336771173E-15, 1.000000000000000000, 0.000000000000000000 ) ) ;
#14 = EDGE_LOOP ( 'NONE', ( #846, #496, #202, #315 ) ) ;
#15 = DIRECTION ( 'NONE',  ( 3.304235192336773934E-15, 1.000000000000000000, 0.000000000000000000 ) ) ;
#16 = EDGE_CURVE ( 'NONE', #758, #186, #544, .T. ) ;
#17 = DIRECTION ( 'NONE',  ( -3.304235192336773934E-15, -1.000000000000000000, 0.000000000000000000 ) ) ;
#18 = EDGE_LOOP ( 'NONE', ( #161, #258, #872, #623 ) ) ;
#19 = DIRECTION ( 'NONE',  ( -1.000000000000000000, -3.430248998885766570E-15, 0.000000000000000000 ) ) ;
#20 = AXIS2_PLACEMENT_3D ( 'NONE', #126, #140, #134 ) ;
#21 = CARTESIAN_POINT ( 'NONE',  ( -20.00099999999959977, 7.799999999987650590, 2.184646356684092974E-15 ) ) ;
#22 = AXIS2_PLACEMENT_3D ( 'NONE', #198, #34, #15 ) ;
#23 = VERTEX_POINT ( 'NONE', #177 ) ;
#24 = LINE ( 'NONE', #29, #786 ) ;
#25 = CARTESIAN_POINT ( 'NONE',  ( -8.000000000000175859, 14.99999999999997158, -3.600000000000001421 ) ) ;
#26 = EDGE_CURVE ( 'NONE', #69, #747, #445, .T. ) ;
#27 = LINE ( 'NONE', #344, #259 ) ;
#28 = ORIENTED_EDGE ( 'NONE', *, *, #868, .F. ) ;
#29 = CARTESIAN_POINT ( 'NONE',  ( -5.000000000000172307, 14.99999999999998224, -3.599999999999994760 ) ) ;
#30 = DIRECTION ( 'NONE',  ( 0.000000000000000000, -0.000000000000000000, -1.000000000000000000 ) ) ;
#31 = CARTESIAN_POINT ( 'NONE',  ( 10.10000000000013465, 4.336808689942017736E-16, 3.599999999999999201 ) ) ;
#32 = LINE ( 'NONE', #179, #371 ) ;
#33 = VERTEX_POINT ( 'NONE', #437 ) ;
#34 = DIRECTION ( 'NONE',  ( 1.000000000000000000, -3.430248998885765781E-15, -2.168404344971007685E-15 ) ) ;
#35 = PRODUCT_RELATED_PRODUCT_CATEGORY ( 'part', '', ( #712 ) ) ;
#36 = CARTESIAN_POINT ( 'NONE',  ( -5.000000000000172307, 14.99999999999998224, -3.599999999999994760 ) ) ;
#37 = AXIS2_PLACEMENT_3D ( 'NONE', #366, #306, #773 ) ;
#38 = CIRCLE ( 'NONE', #546, 19.99999999999957367 ) ;
#39 = CARTESIAN_POINT ( 'NONE',  ( 8.000000000000129674, 2.099999999999994316, -3.600000000000001421 ) ) ;
#40 = ORIENTED_EDGE ( 'NONE', *, *, #393, .T. ) ;
#41 = VECTOR ( 'NONE', #30, 1000.000000000000000 ) ;
#42 = CARTESIAN_POINT ( 'NONE',  ( -5.000000000000157208, 9.899999999987567634, 1.927470528863148532E-15 ) ) ;
#43 = FACE_OUTER_BOUND ( 'NONE', #211, .T. ) ;
#44 = DIRECTION ( 'NONE',  ( 2.409338161078898687E-16, 8.264629815018164989E-31, 1.000000000000000000 ) ) ;
#45 = CARTESIAN_POINT ( 'NONE',  ( 1.235990476633482786E-14, -3.430248998885688788E-14, -5.699999999999984190 ) ) ;
#46 = CARTESIAN_POINT ( 'NONE',  ( -8.000000000000122569, 0.8698484809834384768, 3.599999999999999201 ) ) ;
#47 = EDGE_CURVE ( 'NONE', #702, #119, #858, .T. ) ;
#48 = PRODUCT_DEFINITION_SHAPE ( 'NONE', 'NONE',  #99 ) ;
#49 = PRESENTATION_STYLE_ASSIGNMENT (( #515 ) ) ;
#50 = CARTESIAN_POINT ( 'NONE',  ( 8.000000000000163425, 11.99999999998755840, 1.927470528863148532E-15 ) ) ;
#51 = VECTOR ( 'NONE', #102, 1000.000000000000000 ) ;
#52 = PLANE ( 'NONE',  #324 ) ;
#53 = AXIS2_PLACEMENT_3D ( 'NONE', #842, #441, #230 ) ;
#54 = ORIENTED_EDGE ( 'NONE', *, *, #369, .T. ) ;
#55 = DIRECTION ( 'NONE',  ( -3.430248998885766570E-15, -1.000000000000000000, -0.000000000000000000 ) ) ;
#56 = DIRECTION ( 'NONE',  ( -1.000000000000000000, -3.430248998885766176E-15, 2.168404344971007685E-15 ) ) ;
#57 = SURFACE_STYLE_FILL_AREA ( #529 ) ;
#58 = ADVANCED_FACE ( 'NONE', ( #373 ), #233, .F. ) ;
#59 = LINE ( 'NONE', #328, #602 ) ;
#60 = PLANE ( 'NONE',  #312 ) ;
#61 = ORIENTED_EDGE ( 'NONE', *, *, #759, .F. ) ;
#62 = VERTEX_POINT ( 'NONE', #711 ) ;
#63 = CARTESIAN_POINT ( 'NONE',  ( -20.00099999999959266, 9.899999999987652899, 1.927470528863148532E-15 ) ) ;
#64 = AXIS2_PLACEMENT_3D ( 'NONE', #652, #174, #376 ) ;
#65 = AXIS2_PLACEMENT_3D ( 'NONE', #75, #819, #809 ) ;
#66 = VECTOR ( 'NONE', #388, 1000.000000000000000 ) ;
#67 = PLANE ( 'NONE',  #65 ) ;
#68 = DIRECTION ( 'NONE',  ( 3.430248998885766570E-15, -1.000000000000000000, -0.000000000000000000 ) ) ;
#69 = VERTEX_POINT ( 'NONE', #305 ) ;
#70 = ADVANCED_FACE ( 'NONE', ( #114 ), #844, .T. ) ;
#71 = CYLINDRICAL_SURFACE ( 'NONE', #400, 2.100000000000000977 ) ;
#72 = CARTESIAN_POINT ( 'NONE',  ( -8.000000000000174083, 14.99999999999997158, 3.599999999999998757 ) ) ;
#73 = EDGE_CURVE ( 'NONE', #797, #524, #245, .T. ) ;
#74 = ORIENTED_EDGE ( 'NONE', *, *, #216, .F. ) ;
#75 = CARTESIAN_POINT ( 'NONE',  ( 5.000000000000172307, 14.99999999999998224, -3.599999999999994760 ) ) ;
#76 = CARTESIAN_POINT ( 'NONE',  ( -10.10000000000012044, -6.894800487760357161E-14, 2.433431542689717005E-15 ) ) ;
#77 = DIRECTION ( 'NONE',  ( 2.168404344971008868E-15, -7.438166833516348490E-30, 1.000000000000000000 ) ) ;
#78 = ORIENTED_EDGE ( 'NONE', *, *, #237, .F. ) ;
#79 = MECHANICAL_DESIGN_GEOMETRIC_PRESENTATION_REPRESENTATION (  '', ( #459 ), #5 ) ;
#80 = AXIS2_PLACEMENT_3D ( 'NONE', #556, #752, #825 ) ;
#81 = CYLINDRICAL_SURFACE ( 'NONE', #486, 2.100000000000000977 ) ;
#82 = ORIENTED_EDGE ( 'NONE', *, *, #857, .T. ) ;
#83 = EDGE_CURVE ( 'NONE', #33, #23, #574, .T. ) ;
#84 = CARTESIAN_POINT ( 'NONE',  ( 3.430248998885825735E-14, -10.00000000000012079, 0.000000000000000000 ) ) ;
#85 = DIRECTION ( 'NONE',  ( -2.168404344971007685E-15, 7.438166833516344286E-30, -1.000000000000000000 ) ) ;
#86 = VERTEX_POINT ( 'NONE', #519 ) ;
#87 = CARTESIAN_POINT ( 'NONE',  ( -8.000000000000156319, 9.899999999987556976, 1.927470528863148532E-15 ) ) ;
#88 = CARTESIAN_POINT ( 'NONE',  ( -5.000000000000164313, 11.99999999998756905, 2.184646356684093763E-15 ) ) ;
#89 = ORIENTED_EDGE ( 'NONE', *, *, #173, .F. ) ;
#90 = DIRECTION ( 'NONE',  ( -1.000000000000000000, -3.430248998885766176E-15, -2.168404344971007685E-15 ) ) ;
#91 = CIRCLE ( 'NONE', #588, 19.99999999999957367 ) ;
#92 = PLANE ( 'NONE',  #80 ) ;
#93 = CARTESIAN_POINT ( 'NONE',  ( 8.869848480983636207, -4.012020315624426009E-15, -4.469848480983503514 ) ) ;
#94 = ORIENTED_EDGE ( 'NONE', *, *, #713, .F. ) ;
#95 = CARTESIAN_POINT ( 'NONE',  ( 8.000000000000168754, 12.89999999999997016, -3.600000000000001421 ) ) ;
#96 =( BOUNDED_CURVE ( )  B_SPLINE_CURVE ( 3, ( #117, #379, #164, #706 ),
 .UNSPECIFIED., .F., .F. ) 
 B_SPLINE_CURVE_WITH_KNOTS ( ( 4, 4 ),
 ( 3.141592653589793116, 4.712388980384689674 ),
 .UNSPECIFIED. ) 
 CURVE ( )  GEOMETRIC_REPRESENTATION_ITEM ( )  RATIONAL_B_SPLINE_CURVE ( ( 1.000000000000000000, 0.8047378541243649375, 0.8047378541243649375, 1.000000000000000000 ) ) 
 REPRESENTATION_ITEM ( '' )  );
#97 = LINE ( 'NONE', #360, #816 ) ;
#98 = DIRECTION ( 'NONE',  ( -1.000000000000000000, 3.430248998885766570E-15, -0.000000000000000000 ) ) ;
#99 = PRODUCT_DEFINITION ( '未知', '', #374, #475 ) ;
#100 = VERTEX_POINT ( 'NONE', #183 ) ;
#101 = CARTESIAN_POINT ( 'NONE',  ( 19.99999999999957367, -10.00000000000004974, 0.000000000000000000 ) ) ;
#102 = DIRECTION ( 'NONE',  ( 3.430248998885766570E-15, -1.000000000000000000, -0.000000000000000000 ) ) ;
#103 = CARTESIAN_POINT ( 'NONE',  ( -8.000000000000166978, 12.89999999999997016, 3.599999999999998757 ) ) ;
#104 = EDGE_LOOP ( 'NONE', ( #189, #317, #243, #228 ) ) ;
#105 = CARTESIAN_POINT ( 'NONE',  ( 5.000000000000128786, 2.099999999999983213, 5.700000000000004619 ) ) ;
#106 = MECHANICAL_DESIGN_GEOMETRIC_PRESENTATION_REPRESENTATION (  '', ( #848 ), #875 ) ;
#107 = CARTESIAN_POINT ( 'NONE',  ( 1.176660819435655145E-28, -3.430248998885693206E-14, 0.000000000000000000 ) ) ;
#108 = AXIS2_PLACEMENT_3D ( 'NONE', #789, #777, #725 ) ;
#109 = CARTESIAN_POINT ( 'NONE',  ( 7.888609052210118054E-28, -1.110223024625156540E-13, 0.000000000000000000 ) ) ;
#110 = VERTEX_POINT ( 'NONE', #50 ) ;
#111 = CIRCLE ( 'NONE', #53, 2.100000000000000977 ) ;
#112 = EDGE_CURVE ( 'NONE', #33, #474, #96, .T. ) ;
#113 = CARTESIAN_POINT ( 'NONE',  ( 8.000000000000175859, 14.99999999999997158, -3.600000000000001421 ) ) ;
#114 = FACE_OUTER_BOUND ( 'NONE', #224, .T. ) ;
#115 = SURFACE_STYLE_FILL_AREA ( #854 ) ;
#116 = APPLICATION_PROTOCOL_DEFINITION ( 'draft international standard', 'automotive_design', 1998, #584 ) ;
#117 = CARTESIAN_POINT ( 'NONE',  ( -8.000000000000129674, 2.099999999999938805, -3.600000000000001421 ) ) ;
#118 = ORIENTED_EDGE ( 'NONE', *, *, #749, .F. ) ;
#119 = VERTEX_POINT ( 'NONE', #765 ) ;
#120 = EDGE_CURVE ( 'NONE', #430, #33, #97, .T. ) ;
#121 = CARTESIAN_POINT ( 'NONE',  ( 8.000000000000129674, 2.099999999999994316, -3.600000000000001421 ) ) ;
#122 = VECTOR ( 'NONE', #603, 1000.000000000000000 ) ;
#123 = CARTESIAN_POINT ( 'NONE',  ( -8.000000000000168754, 12.89999999999997016, -1.500000000000000888 ) ) ;
#124 = VERTEX_POINT ( 'NONE', #268 ) ;
#125 = ORIENTED_EDGE ( 'NONE', *, *, #595, .F. ) ;
#126 = CARTESIAN_POINT ( 'NONE',  ( -5.000000000000157208, 9.899999999987567634, 1.927470528863148532E-15 ) ) ;
#127 = FACE_OUTER_BOUND ( 'NONE', #522, .T. ) ;
#128 = ORIENTED_EDGE ( 'NONE', *, *, #541, .F. ) ;
#129 = ADVANCED_FACE ( 'NONE', ( #612 ), #130, .F. ) ;
#130 = CYLINDRICAL_SURFACE ( 'NONE', #484, 2.100000000000001865 ) ;
#131 = ORIENTED_EDGE ( 'NONE', *, *, #26, .T. ) ;
#132 = LINE ( 'NONE', #806, #686 ) ;
#133 = VERTEX_POINT ( 'NONE', #357 ) ;
#134 = DIRECTION ( 'NONE',  ( 3.304235192336772356E-15, -1.000000000000000000, 0.000000000000000000 ) ) ;
#135 = CARTESIAN_POINT ( 'NONE',  ( 2.910922037445107443E-12, -848.6037131387984118, 0.000000000000000000 ) ) ;
#136 = ORIENTED_EDGE ( 'NONE', *, *, #876, .T. ) ;
#137 = CIRCLE ( 'NONE', #277, 2.100000000000000089 ) ;
#138 = ADVANCED_FACE ( 'NONE', ( #630 ), #495, .F. ) ;
#139 = EDGE_CURVE ( 'NONE', #119, #524, #27, .T. ) ;
#140 = DIRECTION ( 'NONE',  ( 1.000000000000000000, 3.430248998885766570E-15, -0.000000000000000000 ) ) ;
#141 = CARTESIAN_POINT ( 'NONE',  ( 1.176660819435655145E-28, -10.00000000000003553, 0.000000000000000000 ) ) ;
#142 = ORIENTED_EDGE ( 'NONE', *, *, #449, .T. ) ;
#143 = CARTESIAN_POINT ( 'NONE',  ( 8.000000000000127898, 2.099999999999994316, 3.599999999999998757 ) ) ;
#144 = ORIENTED_EDGE ( 'NONE', *, *, #514, .F. ) ;
#145 = DIRECTION ( 'NONE',  ( 3.430248998885766176E-15, -1.000000000000000000, -0.000000000000000000 ) ) ;
#146 = ADVANCED_FACE ( 'NONE', ( #563 ), #768, .T. ) ;
#147 = ORIENTED_EDGE ( 'NONE', *, *, #369, .F. ) ;
#148 = VECTOR ( 'NONE', #44, 1000.000000000000000 ) ;
#149 = CIRCLE ( 'NONE', #108, 2.100000000000001865 ) ;
#150 = AXIS2_PLACEMENT_3D ( 'NONE', #638, #624, #171 ) ;
#151 = DIRECTION ( 'NONE',  ( 3.430248998885766570E-15, -1.000000000000000000, -0.000000000000000000 ) ) ;
#152 = ORIENTED_EDGE ( 'NONE', *, *, #225, .T. ) ;
#153 = CYLINDRICAL_SURFACE ( 'NONE', #505, 19.99999999999955591 ) ;
#154 = EDGE_CURVE ( 'NONE', #69, #576, #757, .T. ) ;
#155 = FACE_BOUND ( 'NONE', #582, .T. ) ;
#156 = EDGE_LOOP ( 'NONE', ( #199, #678, #207, #125 ) ) ;
#157 = CYLINDRICAL_SURFACE ( 'NONE', #832, 2.100000000000000089 ) ;
#158 = CARTESIAN_POINT ( 'NONE',  ( 5.156381868674791817E-15, 2.099999999999965894, 5.700000000000016165 ) ) ;
#159 = PLANE ( 'NONE',  #372 ) ;
#160 = DIRECTION ( 'NONE',  ( 1.000000000000000000, 3.430248998885766176E-15, -2.168404344971008868E-15 ) ) ;
#161 = ORIENTED_EDGE ( 'NONE', *, *, #498, .T. ) ;
#162 = CARTESIAN_POINT ( 'NONE',  ( -5.000000000000166089, 12.89999999999998082, -3.599999999999994760 ) ) ;
#163 = ADVANCED_FACE ( 'NONE', ( #421, #640 ), #649, .F. ) ;
#164 = CARTESIAN_POINT ( 'NONE',  ( -8.869848480983621997, -6.407587611646525402E-14, -4.469848480983503514 ) ) ;
#165 = DIRECTION ( 'NONE',  ( -1.000000000000000000, -3.430248998885766964E-15, -0.000000000000000000 ) ) ;
#166 = ORIENTED_EDGE ( 'NONE', *, *, #674, .T. ) ;
#167 = CYLINDRICAL_SURFACE ( 'NONE', #818, 2.100000000000001865 ) ;
#168 = DIRECTION ( 'NONE',  ( 1.000000000000000000, -3.430248998885766570E-15, 0.000000000000000000 ) ) ;
#169 = PLANE ( 'NONE',  #502 ) ;
#170 = ORIENTED_EDGE ( 'NONE', *, *, #451, .T. ) ;
#171 = DIRECTION ( 'NONE',  ( -3.304235192336775117E-15, -1.000000000000000000, -8.260587980841937794E-16 ) ) ;
#172 = CARTESIAN_POINT ( 'NONE',  ( 5.000000000000121680, -1.715124499442768348E-14, 5.700000000000004619 ) ) ;
#173 = EDGE_CURVE ( 'NONE', #124, #568, #234, .T. ) ;
#174 = DIRECTION ( 'NONE',  ( -1.000000000000000000, -3.430248998885766570E-15, 2.409338161078898687E-16 ) ) ;
#175 = ORIENTED_EDGE ( 'NONE', *, *, #684, .F. ) ;
#176 = DIRECTION ( 'NONE',  ( 3.304235192336772356E-15, -1.000000000000000000, 0.000000000000000000 ) ) ;
#177 = CARTESIAN_POINT ( 'NONE',  ( -8.000000000000127898, 2.099999999999938805, 3.599999999999998757 ) ) ;
#178 = AXIS2_PLACEMENT_3D ( 'NONE', #72, #320, #332 ) ;
#179 = CARTESIAN_POINT ( 'NONE',  ( 5.000000000000172307, 14.99999999999998224, 3.600000000000004974 ) ) ;
#180 = VERTEX_POINT ( 'NONE', #103 ) ;
#181 = PRESENTATION_STYLE_ASSIGNMENT (( #454 ) ) ;
#182 = ORIENTED_EDGE ( 'NONE', *, *, #225, .F. ) ;
#183 = CARTESIAN_POINT ( 'NONE',  ( -19.99999999999957367, -1.796272824402295308E-13, 2.449293598294656420E-15 ) ) ;
#184 =( NAMED_UNIT ( * ) SI_UNIT ( $, .STERADIAN. ) SOLID_ANGLE_UNIT ( ) );
#185 = CARTESIAN_POINT ( 'NONE',  ( -10.10000000000012044, -6.894800487760357161E-14, 5.699999999999993960 ) ) ;
#186 = VERTEX_POINT ( 'NONE', #447 ) ;
#187 = EDGE_CURVE ( 'NONE', #524, #747, #798, .T. ) ;
#188 = LINE ( 'NONE', #744, #643 ) ;
#189 = ORIENTED_EDGE ( 'NONE', *, *, #476, .T. ) ;
#190 = ORIENTED_EDGE ( 'NONE', *, *, #543, .T. ) ;
#191 = EDGE_CURVE ( 'NONE', #408, #100, #91, .T. ) ;
#192 = FACE_OUTER_BOUND ( 'NONE', #156, .T. ) ;
#193 = DIRECTION ( 'NONE',  ( 1.000000000000000000, 3.430248998885766176E-15, 0.000000000000000000 ) ) ;
#194 = EDGE_LOOP ( 'NONE', ( #311, #837 ) ) ;
#195 = VECTOR ( 'NONE', #335, 1000.000000000000000 ) ;
#196 = EDGE_LOOP ( 'NONE', ( #824, #779, #658, #131 ) ) ;
#197 = CARTESIAN_POINT ( 'NONE',  ( 8.000000000000166978, 12.89999999999997016, 3.599999999999998757 ) ) ;
#198 = CARTESIAN_POINT ( 'NONE',  ( 8.000000000000174083, 12.89999999999997016, -1.500000000000000888 ) ) ;
#199 = ORIENTED_EDGE ( 'NONE', *, *, #316, .F. ) ;
#200 = CYLINDRICAL_SURFACE ( 'NONE', #767, 19.99999999999955591 ) ;
#201 = EDGE_CURVE ( 'NONE', #808, #62, #206, .T. ) ;
#202 = ORIENTED_EDGE ( 'NONE', *, *, #4, .T. ) ;
#203 = EDGE_CURVE ( 'NONE', #491, #69, #429, .T. ) ;
#204 = CYLINDRICAL_SURFACE ( 'NONE', #874, 2.099999999999999645 ) ;
#205 = CARTESIAN_POINT ( 'NONE',  ( -8.000000000000175859, 14.99999999999997158, -1.500000000000000888 ) ) ;
#206 = CIRCLE ( 'NONE', #442, 2.100000000000001865 ) ;
#207 = ORIENTED_EDGE ( 'NONE', *, *, #323, .F. ) ;
#208 = AXIS2_PLACEMENT_3D ( 'NONE', #403, #730, #386 ) ;
#209 = DIRECTION ( 'NONE',  ( -3.430248998885765387E-15, 1.000000000000000000, 0.000000000000000000 ) ) ;
#210 = CARTESIAN_POINT ( 'NONE',  ( -8.000000000000174083, 14.99999999999997158, 3.599999999999998757 ) ) ;
#211 = EDGE_LOOP ( 'NONE', ( #632, #665, #136, #695 ) ) ;
#212 = ADVANCED_FACE ( 'NONE', ( #520, #510 ), #52, .T. ) ;
#213 = LINE ( 'NONE', #21, #571 ) ;
#214 = ORIENTED_EDGE ( 'NONE', *, *, #857, .F. ) ;
#215 = LINE ( 'NONE', #349, #353 ) ;
#216 = EDGE_CURVE ( 'NONE', #758, #119, #32, .T. ) ;
#217 = VERTEX_POINT ( 'NONE', #636 ) ;
#218 = DIRECTION ( 'NONE',  ( 1.000000000000000000, 5.551115123125905764E-15, 0.000000000000000000 ) ) ;
#219 = CIRCLE ( 'NONE', #488, 2.100000000000001865 ) ;
#220 = CARTESIAN_POINT ( 'NONE',  ( 8.000000000000156319, 9.899999999987556976, 1.927470528863148532E-15 ) ) ;
#221 = ORIENTED_EDGE ( 'NONE', *, *, #483, .T. ) ;
#222 = CARTESIAN_POINT ( 'NONE',  ( 8.000000000000168754, 12.89999999999997016, -1.500000000000000888 ) ) ;
#223 = CARTESIAN_POINT ( 'NONE',  ( 19.99999999999957367, -4.241732248480178992E-14, 0.000000000000000000 ) ) ;
#224 = EDGE_LOOP ( 'NONE', ( #78, #708, #118, #28 ) ) ;
#225 = EDGE_CURVE ( 'NONE', #334, #741, #424, .T. ) ;
#226 = DIRECTION ( 'NONE',  ( 1.000000000000000000, -3.430248998885766570E-15, 2.409338161078898687E-16 ) ) ;
#227 = EDGE_CURVE ( 'NONE', #474, #615, #314, .T. ) ;
#228 = ORIENTED_EDGE ( 'NONE', *, *, #595, .T. ) ;
#229 = FACE_OUTER_BOUND ( 'NONE', #870, .T. ) ;
#230 = DIRECTION ( 'NONE',  ( 3.304235192336773934E-15, 1.000000000000000000, 0.000000000000000000 ) ) ;
#231 = VECTOR ( 'NONE', #772, 1000.000000000000000 ) ;
#232 = AXIS2_PLACEMENT_3D ( 'NONE', #42, #436, #176 ) ;
#233 = CYLINDRICAL_SURFACE ( 'NONE', #570, 2.100000000000000089 ) ;
#234 = LINE ( 'NONE', #778, #470 ) ;
#235 = ORIENTED_EDGE ( 'NONE', *, *, #578, .F. ) ;
#236 = CARTESIAN_POINT ( 'NONE',  ( 5.000000000000172307, 14.99999999999998224, -3.599999999999994760 ) ) ;
#237 = EDGE_CURVE ( 'NONE', #180, #781, #336, .T. ) ;
#238 = CARTESIAN_POINT ( 'NONE',  ( 5.000000000000157208, 9.899999999987567634, 1.927470528863148532E-15 ) ) ;
#239 = VERTEX_POINT ( 'NONE', #845 ) ;
#240 = MANIFOLD_SOLID_BREP ( '镜向4', #420 ) ;
#241 = SURFACE_SIDE_STYLE ('',( #115 ) ) ;
#242 = ADVANCED_FACE ( 'NONE', ( #127 ), #169, .T. ) ;
#243 = ORIENTED_EDGE ( 'NONE', *, *, #761, .T. ) ;
#244 = ORIENTED_EDGE ( 'NONE', *, *, #493, .T. ) ;
#245 = LINE ( 'NONE', #654, #783 ) ;
#246 = AXIS2_PLACEMENT_3D ( 'NONE', #468, #671, #319 ) ;
#247 = CARTESIAN_POINT ( 'NONE',  ( 8.000000000000175859, 14.99999999999997158, -3.600000000000001421 ) ) ;
#248 =( GEOMETRIC_REPRESENTATION_CONTEXT ( 3 ) GLOBAL_UNCERTAINTY_ASSIGNED_CONTEXT ( ( #572 ) ) GLOBAL_UNIT_ASSIGNED_CONTEXT ( ( #863, #732, #867 ) ) REPRESENTATION_CONTEXT ( 'NONE', 'WORKASPACE' ) );
#249 = ORIENTED_EDGE ( 'NONE', *, *, #139, .T. ) ;
#250 = CYLINDRICAL_SURFACE ( 'NONE', #22, 2.100000000000000977 ) ;
#251 =( NAMED_UNIT ( * ) PLANE_ANGLE_UNIT ( ) SI_UNIT ( $, .RADIAN. ) );
#252 = VERTEX_POINT ( 'NONE', #325 ) ;
#253 = ORIENTED_EDGE ( 'NONE', *, *, #621, .F. ) ;
#254 = FACE_OUTER_BOUND ( 'NONE', #104, .T. ) ;
#255 = LINE ( 'NONE', #664, #6 ) ;
#256 = ORIENTED_EDGE ( 'NONE', *, *, #591, .F. ) ;
#257 =( LENGTH_UNIT ( ) NAMED_UNIT ( * ) SI_UNIT ( .MILLI., .METRE. ) );
#258 = ORIENTED_EDGE ( 'NONE', *, *, #347, .T. ) ;
#259 = VECTOR ( 'NONE', #160, 1000.000000000000000 ) ;
#260 = DIRECTION ( 'NONE',  ( -2.168404344971007685E-15, -7.438166833516344286E-30, 1.000000000000000000 ) ) ;
#261 = EDGE_LOOP ( 'NONE', ( #619, #481, #326, #383 ) ) ;
#262 = VECTOR ( 'NONE', #281, 1000.000000000000000 ) ;
#263 = CIRCLE ( 'NONE', #663, 2.100000000000001865 ) ;
#264 = VERTEX_POINT ( 'NONE', #597 ) ;
#265 = EDGE_CURVE ( 'NONE', #797, #758, #869, .T. ) ;
#266 = FACE_OUTER_BOUND ( 'NONE', #882, .T. ) ;
#267 = DIRECTION ( 'NONE',  ( 3.304235192336771173E-15, 1.000000000000000000, 0.000000000000000000 ) ) ;
#268 = CARTESIAN_POINT ( 'NONE',  ( 8.000000000000175859, 14.99999999999997158, -1.500000000000000888 ) ) ;
#269 = ORIENTED_EDGE ( 'NONE', *, *, #187, .F. ) ;
#270 = DIRECTION ( 'NONE',  ( 3.430248998885766176E-15, -1.000000000000000000, -0.000000000000000000 ) ) ;
#271 = ORIENTED_EDGE ( 'NONE', *, *, #265, .T. ) ;
#272 = FACE_BOUND ( 'NONE', #194, .T. ) ;
#273 = FACE_OUTER_BOUND ( 'NONE', #542, .T. ) ;
#274 = ORIENTED_EDGE ( 'NONE', *, *, #120, .T. ) ;
#275 = CIRCLE ( 'NONE', #385, 2.100000000000000977 ) ;
#276 = ADVANCED_FACE ( 'NONE', ( #680 ), #60, .F. ) ;
#277 = AXIS2_PLACEMENT_3D ( 'NONE', #545, #682, #397 ) ;
#278 = DIRECTION ( 'NONE',  ( -1.000000000000000000, 3.430248998885765387E-15, 2.168404344971007685E-15 ) ) ;
#279 = CYLINDRICAL_SURFACE ( 'NONE', #701, 2.100000000000000089 ) ;
#280 = ORIENTED_EDGE ( 'NONE', *, *, #451, .F. ) ;
#281 = DIRECTION ( 'NONE',  ( 2.409338161078898687E-16, 8.264629815018163237E-31, -1.000000000000000000 ) ) ;
#282 = CARTESIAN_POINT ( 'NONE',  ( 10.10000000000013642, 3.430248998897766131E-16, -5.700000000000006395 ) ) ;
#283 = EDGE_LOOP ( 'NONE', ( #738, #592, #528, #392 ) ) ;
#284 = CARTESIAN_POINT ( 'NONE',  ( -5.000000000000121680, -5.145373498328617748E-14, 5.700000000000005507 ) ) ;
#285 = DIRECTION ( 'NONE',  ( -1.000000000000000000, 3.430248998885766570E-15, -0.000000000000000000 ) ) ;
#286 = EDGE_LOOP ( 'NONE', ( #182, #715, #511, #61 ) ) ;
#287 = DIRECTION ( 'NONE',  ( 1.000000000000000000, 3.469446951953694258E-15, 0.000000000000000000 ) ) ;
#288 = AXIS2_PLACEMENT_3D ( 'NONE', #105, #168, #432 ) ;
#289 = AXIS2_PLACEMENT_3D ( 'NONE', #304, #776, #512 ) ;
#290 = DIRECTION ( 'NONE',  ( 1.000000000000000000, -3.430248998885766964E-15, -0.000000000000000000 ) ) ;
#291 = ADVANCED_FACE ( 'NONE', ( #466 ), #810, .F. ) ;
#292 = ADVANCED_FACE ( 'NONE', ( #607 ), #395, .F. ) ;
#293 = ORIENTED_EDGE ( 'NONE', *, *, #323, .T. ) ;
#294 = DIRECTION ( 'NONE',  ( 3.430248998885766176E-15, -1.000000000000000000, 0.000000000000000000 ) ) ;
#295 = CARTESIAN_POINT ( 'NONE',  ( 5.000000000000121680, -1.715124499442924858E-14, -5.699999999999994849 ) ) ;
#296 = DIRECTION ( 'NONE',  ( 3.304235192336772356E-15, -1.000000000000000000, 0.000000000000000000 ) ) ;
#297 = ORIENTED_EDGE ( 'NONE', *, *, #361, .F. ) ;
#298 = CARTESIAN_POINT ( 'NONE',  ( -8.000000000000129674, 2.099999999999938805, -3.600000000000001421 ) ) ;
#299 = DIRECTION ( 'NONE',  ( 3.304235192336775117E-15, -1.000000000000000000, 0.000000000000000000 ) ) ;
#300 = CARTESIAN_POINT ( 'NONE',  ( 8.000000000000170530, -6.938893903907228378E-15, -5.700000000000001954 ) ) ;
#301 = ORIENTED_EDGE ( 'NONE', *, *, #378, .T. ) ;
#302 = CARTESIAN_POINT ( 'NONE',  ( 10.10000000000013465, 3.430248998897667523E-16, 5.699999999999993072 ) ) ;
#303 = ADVANCED_FACE ( 'NONE', ( #456 ), #200, .T. ) ;
#304 = CARTESIAN_POINT ( 'NONE',  ( -10.10000000000012932, 2.099999999999931699, -3.600000000000000977 ) ) ;
#305 = CARTESIAN_POINT ( 'NONE',  ( 10.10000000000013642, 3.430248998897766131E-16, -5.700000000000006395 ) ) ;
#306 = DIRECTION ( 'NONE',  ( 1.000000000000000000, 3.430248998885766570E-15, -2.409338161078898687E-16 ) ) ;
#307 = ORIENTED_EDGE ( 'NONE', *, *, #629, .F. ) ;
#308 = CYLINDRICAL_SURFACE ( 'NONE', #289, 2.100000000000000977 ) ;
#309 = DIRECTION ( 'NONE',  ( 3.430248998885766176E-15, -1.000000000000000000, -0.000000000000000000 ) ) ;
#310 = ORIENTED_EDGE ( 'NONE', *, *, #791, .T. ) ;
#311 = ORIENTED_EDGE ( 'NONE', *, *, #201, .F. ) ;
#312 = AXIS2_PLACEMENT_3D ( 'NONE', #329, #260, #399 ) ;
#313 = CIRCLE ( 'NONE', #803, 2.100000000000000977 ) ;
#314 = LINE ( 'NONE', #45, #661 ) ;
#315 = ORIENTED_EDGE ( 'NONE', *, *, #804, .T. ) ;
#316 = EDGE_CURVE ( 'NONE', #790, #252, #662, .T. ) ;
#317 = ORIENTED_EDGE ( 'NONE', *, *, #868, .T. ) ;
#318 = DIRECTION ( 'NONE',  ( -1.000000000000000000, -3.430248998885766176E-15, 0.000000000000000000 ) ) ;
#319 = DIRECTION ( 'NONE',  ( 3.304235192336773934E-15, -1.000000000000000000, 0.000000000000000000 ) ) ;
#320 = DIRECTION ( 'NONE',  ( 2.168404344971008868E-15, 7.438166833516348490E-30, -1.000000000000000000 ) ) ;
#321 = EDGE_LOOP ( 'NONE', ( #560, #307, #269, #455 ) ) ;
#322 = EDGE_LOOP ( 'NONE', ( #599, #564, #538, #280 ) ) ;
#323 = EDGE_CURVE ( 'NONE', #330, #430, #275, .T. ) ;
#324 = AXIS2_PLACEMENT_3D ( 'NONE', #247, #717, #362 ) ;
#325 = CARTESIAN_POINT ( 'NONE',  ( -5.000000000000172307, 14.99999999999998224, -1.499999999999994449 ) ) ;
#326 = ORIENTED_EDGE ( 'NONE', *, *, #112, .F. ) ;
#327 = EDGE_CURVE ( 'NONE', #133, #180, #2, .T. ) ;
#328 = CARTESIAN_POINT ( 'NONE',  ( 20.00099999999959977, 7.799999999987650590, 1.927470528863148532E-15 ) ) ;
#329 = CARTESIAN_POINT ( 'NONE',  ( -8.000000000000175859, 14.99999999999997158, -3.600000000000001421 ) ) ;
#330 = VERTEX_POINT ( 'NONE', #205 ) ;
#331 = FACE_OUTER_BOUND ( 'NONE', #283, .T. ) ;
#332 = DIRECTION ( 'NONE',  ( -1.000000000000000000, 0.000000000000000000, -2.168404344971008868E-15 ) ) ;
#333 = ADVANCED_FACE ( 'NONE', ( #273 ), #740, .F. ) ;
#334 = VERTEX_POINT ( 'NONE', #547 ) ;
#335 = DIRECTION ( 'NONE',  ( -2.409338161078898687E-16, -8.264629815018164989E-31, -1.000000000000000000 ) ) ;
#336 = CIRCLE ( 'NONE', #64, 2.100000000000000977 ) ;
#337 = ORIENTED_EDGE ( 'NONE', *, *, #761, .F. ) ;
#338 = AXIS2_PLACEMENT_3D ( 'NONE', #84, #764, #287 ) ;
#339 = FACE_BOUND ( 'NONE', #196, .T. ) ;
#340 = CARTESIAN_POINT ( 'NONE',  ( -20.00099999999959266, 9.899999999987652899, 1.927470528863148532E-15 ) ) ;
#341 = EDGE_LOOP ( 'NONE', ( #769, #40, #866, #731, #815, #637 ) ) ;
#342 = LINE ( 'NONE', #236, #548 ) ;
#343 = CARTESIAN_POINT ( 'NONE',  ( 5.000000000000172307, 14.99999999999998224, -3.599999999999994760 ) ) ;
#344 = CARTESIAN_POINT ( 'NONE',  ( 8.000000000000115463, 2.099999999999993427, 3.599999999999998757 ) ) ;
#345 = ORIENTED_EDGE ( 'NONE', *, *, #378, .F. ) ;
#346 = DIRECTION ( 'NONE',  ( -0.000000000000000000, -0.000000000000000000, -1.000000000000000000 ) ) ;
#347 = EDGE_CURVE ( 'NONE', #23, #594, #865, .T. ) ;
#348 = EDGE_CURVE ( 'NONE', #133, #594, #132, .T. ) ;
#349 = CARTESIAN_POINT ( 'NONE',  ( -19.99999999999664624, -848.6037131387985255, 2.449293598294652082E-15 ) ) ;
#350 = EDGE_LOOP ( 'NONE', ( #337, #826, #478, #54, #394, #450, #692, #422 ) ) ;
#351 = DIRECTION ( 'NONE',  ( 1.000000000000000000, 3.430248998885766570E-15, -0.000000000000000000 ) ) ;
#352 = AXIS2_PLACEMENT_3D ( 'NONE', #428, #716, #635 ) ;
#353 = VECTOR ( 'NONE', #617, 1000.000000000000000 ) ;
#354 = CIRCLE ( 'NONE', #751, 2.100000000000001865 ) ;
#355 = COLOUR_RGB ( '',0.7921568627450980005, 0.8196078431372548767, 0.9333333333333333481 ) ;
#356 = LINE ( 'NONE', #25, #859 ) ;
#357 = CARTESIAN_POINT ( 'NONE',  ( -5.000000000000166089, 12.89999999999998082, 3.600000000000004974 ) ) ;
#358 = ORIENTED_EDGE ( 'NONE', *, *, #216, .T. ) ;
#359 = PLANE ( 'NONE',  #473 ) ;
#360 = CARTESIAN_POINT ( 'NONE',  ( -8.000000000000175859, 14.99999999999997158, -3.600000000000001421 ) ) ;
#361 = EDGE_CURVE ( 'NONE', #408, #763, #188, .T. ) ;
#362 = DIRECTION ( 'NONE',  ( 3.430248998885766570E-15, 1.000000000000000000, 0.000000000000000000 ) ) ;
#363 = ORIENTED_EDGE ( 'NONE', *, *, #737, .T. ) ;
#364 = CARTESIAN_POINT ( 'NONE',  ( 5.000000000000128786, 2.099999999999983658, -3.599999999999994760 ) ) ;
#365 = DIRECTION ( 'NONE',  ( -3.430248998885766570E-15, -1.000000000000000000, -0.000000000000000000 ) ) ;
#366 = CARTESIAN_POINT ( 'NONE',  ( -8.000000000000175859, 14.99999999999997158, -3.600000000000001421 ) ) ;
#367 = ORIENTED_EDGE ( 'NONE', *, *, #83, .T. ) ;
#368 = FILL_AREA_STYLE_COLOUR ( '', #355 ) ;
#369 = EDGE_CURVE ( 'NONE', #594, #785, #742, .T. ) ;
#370 = CARTESIAN_POINT ( 'NONE',  ( -5.000000000000166089, 12.89999999999998082, -3.599999999999994760 ) ) ;
#371 = VECTOR ( 'NONE', #567, 1000.000000000000000 ) ;
#372 = AXIS2_PLACEMENT_3D ( 'NONE', #107, #721, #318 ) ;
#373 = FACE_OUTER_BOUND ( 'NONE', #261, .T. ) ;
#374 = PRODUCT_DEFINITION_FORMATION_WITH_SPECIFIED_SOURCE ( '任何', '', #712, .NOT_KNOWN. ) ;
#375 = CARTESIAN_POINT ( 'NONE',  ( 8.000000000000174083, 14.99999999999997158, 1.499999999999998224 ) ) ;
#376 = DIRECTION ( 'NONE',  ( -3.304235192336773934E-15, 1.000000000000000000, 0.000000000000000000 ) ) ;
#377 = LINE ( 'NONE', #601, #443 ) ;
#378 = EDGE_CURVE ( 'NONE', #576, #834, #255, .T. ) ;
#379 = CARTESIAN_POINT ( 'NONE',  ( -8.000000000000122569, 0.8698484809834384768, -3.600000000000001421 ) ) ;
#380 = ADVANCED_FACE ( 'NONE', ( #527 ), #800, .T. ) ;
#381 = CARTESIAN_POINT ( 'NONE',  ( 8.000000000000127898, 2.099999999999994316, 3.599999999999998757 ) ) ;
#382 = ORIENTED_EDGE ( 'NONE', *, *, #514, .T. ) ;
#383 = ORIENTED_EDGE ( 'NONE', *, *, #804, .F. ) ;
#384 = AXIS2_PLACEMENT_3D ( 'NONE', #340, #618, #13 ) ;
#385 = AXIS2_PLACEMENT_3D ( 'NONE', #123, #735, #540 ) ;
#386 = DIRECTION ( 'NONE',  ( 3.304235192336775117E-15, -1.000000000000000000, 0.000000000000000000 ) ) ;
#387 = ORIENTED_EDGE ( 'NONE', *, *, #644, .T. ) ;
#388 = DIRECTION ( 'NONE',  ( 1.000000000000000000, 3.430248998885765387E-15, 2.168404344971008868E-15 ) ) ;
#389 = ORIENTED_EDGE ( 'NONE', *, *, #347, .F. ) ;
#390 = DIRECTION ( 'NONE',  ( 1.000000000000000000, 3.430248998885765781E-15, 2.168404344971007685E-15 ) ) ;
#391 = CARTESIAN_POINT ( 'NONE',  ( -8.000000000000133227, 2.099999999999938805, 5.699999999999998401 ) ) ;
#392 = ORIENTED_EDGE ( 'NONE', *, *, #26, .F. ) ;
#393 = EDGE_CURVE ( 'NONE', #524, #576, #628, .T. ) ;
#394 = ORIENTED_EDGE ( 'NONE', *, *, #591, .T. ) ;
#395 = CYLINDRICAL_SURFACE ( 'NONE', #532, 2.100000000000000089 ) ;
#396 = EDGE_LOOP ( 'NONE', ( #485, #537, #82, #718 ) ) ;
#397 = DIRECTION ( 'NONE',  ( 3.304235192336775117E-15, -1.000000000000000000, 0.000000000000000000 ) ) ;
#398 = COLOUR_RGB ( '',0.7921568627450980005, 0.8196078431372548767, 0.9333333333333333481 ) ;
#399 = DIRECTION ( 'NONE',  ( 1.000000000000000000, 0.000000000000000000, 2.168404344971007685E-15 ) ) ;
#400 = AXIS2_PLACEMENT_3D ( 'NONE', #734, #390, #739 ) ;
#401 = ORIENTED_EDGE ( 'NONE', *, *, #227, .T. ) ;
#402 = CARTESIAN_POINT ( 'NONE',  ( 5.000000000000126121, -1.691355389077386917E-14, 5.700000000000004619 ) ) ;
#403 = CARTESIAN_POINT ( 'NONE',  ( -5.000000000000128786, 2.099999999999949019, 5.700000000000005507 ) ) ;
#404 = EDGE_LOOP ( 'NONE', ( #728, #235 ) ) ;
#405 = DIRECTION ( 'NONE',  ( -1.000000000000000000, 3.430248998885765781E-15, 2.168404344971008868E-15 ) ) ;
#406 = ORIENTED_EDGE ( 'NONE', *, *, #73, .F. ) ;
#407 = DIRECTION ( 'NONE',  ( 2.409338161078898687E-16, 8.559688641721048041E-31, 1.000000000000000000 ) ) ;
#408 = VERTEX_POINT ( 'NONE', #223 ) ;
#409 = VECTOR ( 'NONE', #691, 1000.000000000000000 ) ;
#410 = CIRCLE ( 'NONE', #232, 2.100000000000001865 ) ;
#411 = DIRECTION ( 'NONE',  ( 0.000000000000000000, -0.000000000000000000, -1.000000000000000000 ) ) ;
#412 = CARTESIAN_POINT ( 'NONE',  ( 8.000000000000174083, 14.99999999999997158, 3.599999999999998757 ) ) ;
#413 = EDGE_LOOP ( 'NONE', ( #147, #389, #660, #144 ) ) ;
#414 = ADVANCED_FACE ( 'NONE', ( #762 ), #279, .F. ) ;
#415 = DIRECTION ( 'NONE',  ( 3.430248998885765387E-15, 1.000000000000000000, 0.000000000000000000 ) ) ;
#416 = DIRECTION ( 'NONE',  ( -1.000000000000000000, 0.000000000000000000, 2.168404344971007685E-15 ) ) ;
#417 = ORIENTED_EDGE ( 'NONE', *, *, #16, .T. ) ;
#418 = CARTESIAN_POINT ( 'NONE',  ( -8.000000000000174083, 14.99999999999997158, 1.499999999999998224 ) ) ;
#419 = DIRECTION ( 'NONE',  ( -3.430248998885766176E-15, 1.000000000000000000, 0.000000000000000000 ) ) ;
#420 = CLOSED_SHELL ( 'NONE', ( #333, #129, #794, #552, #242, #303, #461, #276, #163, #291, #651, #833, #58, #292, #697, #70, #616, #608, #146, #212, #380, #771, #138, #831, #414, #672, #533, #729 ) ) ;
#421 = FACE_BOUND ( 'NONE', #598, .T. ) ;
#422 = ORIENTED_EDGE ( 'NONE', *, *, #316, .T. ) ;
#423 = CARTESIAN_POINT ( 'NONE',  ( 5.145373498328649303E-14, 15.00000000000000000, 0.000000000000000000 ) ) ;
#424 = CIRCLE ( 'NONE', #828, 2.100000000000000977 ) ;
#425 = AXIS2_PLACEMENT_3D ( 'NONE', #622, #145, #823 ) ;
#426 = CIRCLE ( 'NONE', #150, 2.100000000000000089 ) ;
#427 = EDGE_CURVE ( 'NONE', #110, #217, #600, .T. ) ;
#428 = CARTESIAN_POINT ( 'NONE',  ( 5.000000000000166089, 12.89999999999998082, 1.500000000000004885 ) ) ;
#429 = LINE ( 'NONE', #300, #531 ) ;
#430 = VERTEX_POINT ( 'NONE', #748 ) ;
#431 = FACE_OUTER_BOUND ( 'NONE', #811, .T. ) ;
#432 = DIRECTION ( 'NONE',  ( -3.304235192336775117E-15, -1.000000000000000000, 0.000000000000000000 ) ) ;
#433 = DIRECTION ( 'NONE',  ( -2.409338161078898687E-16, 8.559688641721048041E-31, 1.000000000000000000 ) ) ;
#434 = ORIENTED_EDGE ( 'NONE', *, *, #237, .T. ) ;
#435 = CARTESIAN_POINT ( 'NONE',  ( 5.000000000000157208, 9.899999999987567634, 1.927470528863148532E-15 ) ) ;
#436 = DIRECTION ( 'NONE',  ( 1.000000000000000000, 3.430248998885766570E-15, -0.000000000000000000 ) ) ;
#437 = CARTESIAN_POINT ( 'NONE',  ( -8.000000000000129674, 2.099999999999938805, -3.600000000000001421 ) ) ;
#438 = FILL_AREA_STYLE_COLOUR ( '', #398 ) ;
#439 = ORIENTED_EDGE ( 'NONE', *, *, #154, .F. ) ;
#440 = DIRECTION ( 'NONE',  ( 1.000000000000000000, 0.000000000000000000, 0.000000000000000000 ) ) ;
#441 = DIRECTION ( 'NONE',  ( 1.000000000000000000, -3.430248998885766570E-15, 2.409338161078898687E-16 ) ) ;
#442 = AXIS2_PLACEMENT_3D ( 'NONE', #238, #98, #657 ) ;
#443 = VECTOR ( 'NONE', #877, 1000.000000000000000 ) ;
#444 = CIRCLE ( 'NONE', #753, 2.100000000000000977 ) ;
#445 = LINE ( 'NONE', #31, #673 ) ;
#446 = DIRECTION ( 'NONE',  ( -1.000000000000000000, -3.430248998885765387E-15, -2.168404344971007685E-15 ) ) ;
#447 = CARTESIAN_POINT ( 'NONE',  ( 5.000000000000172307, 14.99999999999998224, 1.500000000000004885 ) ) ;
#448 = CARTESIAN_POINT ( 'NONE',  ( 0.000000000000000000, 0.000000000000000000, 0.000000000000000000 ) ) ;
#449 = EDGE_CURVE ( 'NONE', #217, #110, #354, .T. ) ;
#450 = ORIENTED_EDGE ( 'NONE', *, *, #631, .T. ) ;
#451 = EDGE_CURVE ( 'NONE', #839, #763, #503, .T. ) ;
#452 = DIRECTION ( 'NONE',  ( 3.430248998885766176E-15, -1.000000000000000000, -0.000000000000000000 ) ) ;
#453 =( LENGTH_UNIT ( ) NAMED_UNIT ( * ) SI_UNIT ( .MILLI., .METRE. ) );
#454 = SURFACE_STYLE_USAGE ( .BOTH. , #653 ) ;
#455 = ORIENTED_EDGE ( 'NONE', *, *, #139, .F. ) ;
#456 = FACE_OUTER_BOUND ( 'NONE', #322, .T. ) ;
#457 = CARTESIAN_POINT ( 'NONE',  ( -8.000000000000127898, 2.099999999999938805, 3.599999999999998757 ) ) ;
#458 = VERTEX_POINT ( 'NONE', #12 ) ;
#459 = STYLED_ITEM ( 'NONE', ( #49 ), #240 ) ;
#460 = AXIS2_PLACEMENT_3D ( 'NONE', #63, #593, #267 ) ;
#461 = ADVANCED_FACE ( 'NONE', ( #155, #699 ), #92, .F. ) ;
#462 = CIRCLE ( 'NONE', #338, 19.99999999999953815 ) ;
#463 = CARTESIAN_POINT ( 'NONE',  ( 8.000000000000175859, 14.99999999999997158, -3.600000000000001421 ) ) ;
#464 = ORIENTED_EDGE ( 'NONE', *, *, #16, .F. ) ;
#465 = ORIENTED_EDGE ( 'NONE', *, *, #201, .T. ) ;
#466 = FACE_OUTER_BOUND ( 'NONE', #18, .T. ) ;
#467 = LINE ( 'NONE', #36, #51 ) ;
#468 = CARTESIAN_POINT ( 'NONE',  ( -5.000000000000166089, 12.89999999999998082, -1.499999999999994449 ) ) ;
#469 = VERTEX_POINT ( 'NONE', #88 ) ;
#470 = VECTOR ( 'NONE', #433, 1000.000000000000000 ) ;
#471 = DIRECTION ( 'NONE',  ( -1.000000000000000000, -3.430248998885766176E-15, 2.168404344971008868E-15 ) ) ;
#472 = DIRECTION ( 'NONE',  ( -1.000000000000000000, -3.430248998885765387E-15, -2.168404344971008868E-15 ) ) ;
#473 = AXIS2_PLACEMENT_3D ( 'NONE', #423, #415, #555 ) ;
#474 = VERTEX_POINT ( 'NONE', #830 ) ;
#475 = PRODUCT_DEFINITION_CONTEXT ( 'detailed design', #675, 'design' ) ;
#476 = EDGE_CURVE ( 'NONE', #330, #781, #356, .T. ) ;
#477 = FACE_OUTER_BOUND ( 'NONE', #666, .T. ) ;
#478 = ORIENTED_EDGE ( 'NONE', *, *, #348, .T. ) ;
#479 = FACE_OUTER_BOUND ( 'NONE', #404, .T. ) ;
#480 = DIRECTION ( 'NONE',  ( 1.000000000000000000, 0.000000000000000000, -2.168404344971008868E-15 ) ) ;
#481 = ORIENTED_EDGE ( 'NONE', *, *, #227, .F. ) ;
#482 = DIRECTION ( 'NONE',  ( 1.000000000000000000, -3.430248998885766964E-15, -0.000000000000000000 ) ) ;
#483 = EDGE_CURVE ( 'NONE', #100, #839, #215, .T. ) ;
#484 = AXIS2_PLACEMENT_3D ( 'NONE', #821, #165, #296 ) ;
#485 = ORIENTED_EDGE ( 'NONE', *, *, #621, .T. ) ;
#486 = AXIS2_PLACEMENT_3D ( 'NONE', #614, #405, #17 ) ;
#487 = CARTESIAN_POINT ( 'NONE',  ( -8.000000000000149214, 7.799999999987555555, 1.927470528863148532E-15 ) ) ;
#488 = AXIS2_PLACEMENT_3D ( 'NONE', #435, #569, #840 ) ;
#489 = LINE ( 'NONE', #687, #802 ) ;
#490 = FACE_BOUND ( 'NONE', #862, .T. ) ;
#491 = VERTEX_POINT ( 'NONE', #295 ) ;
#492 = CARTESIAN_POINT ( 'NONE',  ( 8.000000000000166978, 12.89999999999997016, 3.599999999999998757 ) ) ;
#493 = EDGE_CURVE ( 'NONE', #808, #110, #489, .T. ) ;
#494 = CARTESIAN_POINT ( 'NONE',  ( 8.000000000000131450, 2.100000000000008082, -3.600000000000001421 ) ) ;
#495 = CYLINDRICAL_SURFACE ( 'NONE', #384, 2.100000000000002753 ) ;
#496 = ORIENTED_EDGE ( 'NONE', *, *, #690, .T. ) ;
#497 = DIRECTION ( 'NONE',  ( 3.304235192336773934E-15, 1.000000000000000000, 0.000000000000000000 ) ) ;
#498 = EDGE_CURVE ( 'NONE', #180, #23, #746, .T. ) ;
#499 = DIRECTION ( 'NONE',  ( 3.430248998885764598E-15, -1.000000000000000000, 0.000000000000000000 ) ) ;
#500 = EDGE_LOOP ( 'NONE', ( #669, #754, #822, #301 ) ) ;
#501 = CARTESIAN_POINT ( 'NONE',  ( -1.956342766399470218E-14, 2.099999999999965894, -5.699999999999984190 ) ) ;
#502 = AXIS2_PLACEMENT_3D ( 'NONE', #141, #878, #193 ) ;
#503 = CIRCLE ( 'NONE', #425, 19.99999999999953815 ) ;
#504 = LINE ( 'NONE', #113, #573 ) ;
#505 = AXIS2_PLACEMENT_3D ( 'NONE', #693, #835, #218 ) ;
#506 = LINE ( 'NONE', #856, #231 ) ;
#507 = CARTESIAN_POINT ( 'NONE',  ( 10.10000000000013465, 3.430248998897667523E-16, 5.699999999999993072 ) ) ;
#508 = ORIENTED_EDGE ( 'NONE', *, *, #655, .F. ) ;
#509 = DIRECTION ( 'NONE',  ( -3.430248998885766570E-15, -1.000000000000000000, -0.000000000000000000 ) ) ;
#510 = FACE_OUTER_BOUND ( 'NONE', #341, .T. ) ;
#511 = ORIENTED_EDGE ( 'NONE', *, *, #860, .F. ) ;
#512 = DIRECTION ( 'NONE',  ( 1.000000000000000000, 0.000000000000000000, -2.065146995210483709E-16 ) ) ;
#513 = CARTESIAN_POINT ( 'NONE',  ( -8.000000000000181188, 14.99999999999997158, -1.500000000000000888 ) ) ;
#514 = EDGE_CURVE ( 'NONE', #785, #3, #820, .T. ) ;
#515 = SURFACE_STYLE_USAGE ( .BOTH. , #241 ) ;
#516 = EDGE_LOOP ( 'NONE', ( #274, #367, #551, #434, #879, #293 ) ) ;
#517 = AXIS2_PLACEMENT_3D ( 'NONE', #412, #77, #480 ) ;
#518 = VECTOR ( 'NONE', #471, 1000.000000000000000 ) ;
#519 = CARTESIAN_POINT ( 'NONE',  ( -8.000000000000163425, 11.99999999998755840, 2.184646356684092974E-15 ) ) ;
#520 = FACE_BOUND ( 'NONE', #727, .T. ) ;
#521 = CARTESIAN_POINT ( 'NONE',  ( 8.000000000000131450, 0.8698484809834927667, -3.600000000000001421 ) ) ;
#522 = EDGE_LOOP ( 'NONE', ( #363, #170 ) ) ;
#523 =( NAMED_UNIT ( * ) SI_UNIT ( $, .STERADIAN. ) SOLID_ANGLE_UNIT ( ) );
#524 = VERTEX_POINT ( 'NONE', #143 ) ;
#525 = EDGE_CURVE ( 'NONE', #186, #334, #625, .T. ) ;
#526 = CARTESIAN_POINT ( 'NONE',  ( -5.145373498328649303E-14, 15.00000000000000000, 0.000000000000000000 ) ) ;
#527 = FACE_OUTER_BOUND ( 'NONE', #500, .T. ) ;
#528 = ORIENTED_EDGE ( 'NONE', *, *, #187, .T. ) ;
#529 = FILL_AREA_STYLE ('',( #368 ) ) ;
#530 = ORIENTED_EDGE ( 'NONE', *, *, #698, .T. ) ;
#531 = VECTOR ( 'NONE', #581, 1000.000000000000000 ) ;
#532 = AXIS2_PLACEMENT_3D ( 'NONE', #391, #667, #611 ) ;
#533 = ADVANCED_FACE ( 'NONE', ( #477 ), #81, .T. ) ;
#534 = DIRECTION ( 'NONE',  ( -1.000000000000000000, -3.430248998885766964E-15, -0.000000000000000000 ) ) ;
#535 = VECTOR ( 'NONE', #565, 1000.000000000000000 ) ;
#536 = DIRECTION ( 'NONE',  ( 3.430248998885766176E-15, -1.000000000000000000, -0.000000000000000000 ) ) ;
#537 = ORIENTED_EDGE ( 'NONE', *, *, #605, .T. ) ;
#538 = ORIENTED_EDGE ( 'NONE', *, *, #361, .T. ) ;
#539 = CARTESIAN_POINT ( 'NONE',  ( -5.000000000000121680, -1.715124499442924858E-14, -5.699999999999995737 ) ) ;
#540 = DIRECTION ( 'NONE',  ( -3.304235192336773934E-15, 1.000000000000000000, 0.000000000000000000 ) ) ;
#541 = EDGE_CURVE ( 'NONE', #62, #217, #213, .T. ) ;
#542 = EDGE_LOOP ( 'NONE', ( #465, #745, #554, #689 ) ) ;
#543 = EDGE_CURVE ( 'NONE', #3, #474, #559, .T. ) ;
#544 = CIRCLE ( 'NONE', #352, 2.100000000000000977 ) ;
#545 = CARTESIAN_POINT ( 'NONE',  ( -5.000000000000128786, 2.099999999999949019, -5.699999999999995737 ) ) ;
#546 = AXIS2_PLACEMENT_3D ( 'NONE', #639, #452, #656 ) ;
#547 = CARTESIAN_POINT ( 'NONE',  ( 5.000000000000172307, 14.99999999999998224, -1.499999999999994449 ) ) ;
#548 = VECTOR ( 'NONE', #509, 1000.000000000000000 ) ;
#549 = VERTEX_POINT ( 'NONE', #10 ) ;
#550 = DIRECTION ( 'NONE',  ( -3.304235192336772356E-15, -1.000000000000000000, 0.000000000000000000 ) ) ;
#551 = ORIENTED_EDGE ( 'NONE', *, *, #498, .F. ) ;
#552 = ADVANCED_FACE ( 'NONE', ( #339, #479, #490 ), #159, .T. ) ;
#553 = CARTESIAN_POINT ( 'NONE',  ( 8.000000000000156319, 9.899999999987556976, 1.927470528863148532E-15 ) ) ;
#554 = ORIENTED_EDGE ( 'NONE', *, *, #427, .F. ) ;
#555 = DIRECTION ( 'NONE',  ( 1.000000000000000000, -3.430248998885765387E-15, 0.000000000000000000 ) ) ;
#556 = CARTESIAN_POINT ( 'NONE',  ( -5.000000000000172307, 14.99999999999998224, -3.599999999999994760 ) ) ;
#557 = EDGE_LOOP ( 'NONE', ( #358, #249, #406, #271 ) ) ;
#558 = DIRECTION ( 'NONE',  ( 3.304235192336773934E-15, -1.000000000000000000, 0.000000000000000000 ) ) ;
#559 = LINE ( 'NONE', #76, #195 ) ;
#560 = ORIENTED_EDGE ( 'NONE', *, *, #47, .F. ) ;
#561 = DIRECTION ( 'NONE',  ( 3.304235192336772356E-15, -1.000000000000000000, 0.000000000000000000 ) ) ;
#562 = CARTESIAN_POINT ( 'NONE',  ( -4.750281860308293479E-14, 12.89999999999999858, 1.500000000000015543 ) ) ;
#563 = FACE_OUTER_BOUND ( 'NONE', #557, .T. ) ;
#564 = ORIENTED_EDGE ( 'NONE', *, *, #578, .T. ) ;
#565 = DIRECTION ( 'NONE',  ( 1.000000000000000000, -3.430248998885765387E-15, -2.168404344971007685E-15 ) ) ;
#566 = CARTESIAN_POINT ( 'NONE',  ( 5.000000000000121680, -1.715124499442924858E-14, -3.599999999999994760 ) ) ;
#567 = DIRECTION ( 'NONE',  ( -3.430248998885766570E-15, -1.000000000000000000, -0.000000000000000000 ) ) ;
#568 = VERTEX_POINT ( 'NONE', #375 ) ;
#569 = DIRECTION ( 'NONE',  ( -1.000000000000000000, 3.430248998885766570E-15, -0.000000000000000000 ) ) ;
#570 = AXIS2_PLACEMENT_3D ( 'NONE', #585, #850, #299 ) ;
#571 = VECTOR ( 'NONE', #290, 1000.000000000000000 ) ;
#572 = UNCERTAINTY_MEASURE_WITH_UNIT (LENGTH_MEASURE( 1.000000000000000082E-05 ), #863, 'distance_accuracy_value', 'NONE');
#573 = VECTOR ( 'NONE', #55, 1000.000000000000000 ) ;
#574 = LINE ( 'NONE', #788, #148 ) ;
#575 = DIRECTION ( 'NONE',  ( 1.000000000000000000, 3.430248998885766176E-15, 0.000000000000000000 ) ) ;
#576 = VERTEX_POINT ( 'NONE', #121 ) ;
#577 = APPLICATION_PROTOCOL_DEFINITION ( 'draft international standard', 'automotive_design', 1998, #675 ) ;
#578 = EDGE_CURVE ( 'NONE', #100, #408, #38, .T. ) ;
#579 = DIRECTION ( 'NONE',  ( -2.409338161078898687E-16, -8.264629815018164989E-31, 1.000000000000000000 ) ) ;
#580 = EDGE_CURVE ( 'NONE', #801, #86, #149, .T. ) ;
#581 = DIRECTION ( 'NONE',  ( 1.000000000000000000, 3.430248998885766176E-15, -2.168404344971007685E-15 ) ) ;
#582 = EDGE_LOOP ( 'NONE', ( #253, #641 ) ) ;
#583 = PRODUCT_CONTEXT ( 'NONE', #584, 'mechanical' ) ;
#584 = APPLICATION_CONTEXT ( 'automotive_design' ) ;
#585 = CARTESIAN_POINT ( 'NONE',  ( -8.000000000000124345, 2.099999999999938805, -5.700000000000001954 ) ) ;
#586 = ORIENTED_EDGE ( 'NONE', *, *, #580, .T. ) ;
#587 = LINE ( 'NONE', #780, #66 ) ;
#588 = AXIS2_PLACEMENT_3D ( 'NONE', #109, #309, #575 ) ;
#589 = VECTOR ( 'NONE', #472, 1000.000000000000000 ) ;
#590 = SHAPE_DEFINITION_REPRESENTATION ( #48, #670 ) ;
#591 = EDGE_CURVE ( 'NONE', #785, #615, #506, .T. ) ;
#592 = ORIENTED_EDGE ( 'NONE', *, *, #393, .F. ) ;
#593 = DIRECTION ( 'NONE',  ( 1.000000000000000000, -3.430248998885766964E-15, -0.000000000000000000 ) ) ;
#594 = VERTEX_POINT ( 'NONE', #648 ) ;
#595 = EDGE_CURVE ( 'NONE', #252, #330, #853, .T. ) ;
#596 = LINE ( 'NONE', #402, #518 ) ;
#597 = CARTESIAN_POINT ( 'NONE',  ( 8.000000000000168754, 12.89999999999997016, -3.600000000000001421 ) ) ;
#598 = EDGE_LOOP ( 'NONE', ( #796, #214 ) ) ;
#599 = ORIENTED_EDGE ( 'NONE', *, *, #483, .F. ) ;
#600 = CIRCLE ( 'NONE', #873, 2.100000000000001865 ) ;
#601 = CARTESIAN_POINT ( 'NONE',  ( 20.00099999999958555, 11.99999999998765610, 2.184646356684092974E-15 ) ) ;
#602 = VECTOR ( 'NONE', #534, 1000.000000000000000 ) ;
#603 = DIRECTION ( 'NONE',  ( -1.000000000000000000, 3.430248998885765387E-15, 2.168404344971008868E-15 ) ) ;
#604 = ORIENTED_EDGE ( 'NONE', *, *, #655, .T. ) ;
#605 = EDGE_CURVE ( 'NONE', #469, #86, #377, .T. ) ;
#606 = PLANE ( 'NONE',  #676 ) ;
#607 = FACE_OUTER_BOUND ( 'NONE', #413, .T. ) ;
#608 = ADVANCED_FACE ( 'NONE', ( #272, #266 ), #67, .T. ) ;
#609 = ORIENTED_EDGE ( 'NONE', *, *, #265, .F. ) ;
#610 = DIRECTION ( 'NONE',  ( 2.409338161078898687E-16, 8.264629815018164989E-31, -1.000000000000000000 ) ) ;
#611 = DIRECTION ( 'NONE',  ( -3.304235192336775117E-15, 1.000000000000000000, 0.000000000000000000 ) ) ;
#612 = FACE_OUTER_BOUND ( 'NONE', #396, .T. ) ;
#613 = ORIENTED_EDGE ( 'NONE', *, *, #47, .T. ) ;
#614 = CARTESIAN_POINT ( 'NONE',  ( 8.000000000000161648, 12.89999999999997016, 1.499999999999998224 ) ) ;
#615 = VERTEX_POINT ( 'NONE', #539 ) ;
#616 = ADVANCED_FACE ( 'NONE', ( #192 ), #71, .T. ) ;
#617 = DIRECTION ( 'NONE',  ( 3.430248998885766176E-15, -1.000000000000000000, -0.000000000000000000 ) ) ;
#618 = DIRECTION ( 'NONE',  ( 1.000000000000000000, -3.430248998885766964E-15, -0.000000000000000000 ) ) ;
#619 = ORIENTED_EDGE ( 'NONE', *, *, #631, .F. ) ;
#620 = FACE_OUTER_BOUND ( 'NONE', #774, .T. ) ;
#621 = EDGE_CURVE ( 'NONE', #458, #469, #784, .T. ) ;
#622 = CARTESIAN_POINT ( 'NONE',  ( 3.430248998885825735E-14, -10.00000000000012079, 0.000000000000000000 ) ) ;
#623 = ORIENTED_EDGE ( 'NONE', *, *, #327, .T. ) ;
#624 = DIRECTION ( 'NONE',  ( 1.000000000000000000, -3.430248998885766570E-15, 0.000000000000000000 ) ) ;
#625 = LINE ( 'NONE', #343, #719 ) ;
#626 = ORIENTED_EDGE ( 'NONE', *, *, #605, .F. ) ;
#627 = CARTESIAN_POINT ( 'NONE',  ( -5.000000000000166089, 12.89999999999998082, 1.500000000000004885 ) ) ;
#628 = LINE ( 'NONE', #494, #262 ) ;
#629 = EDGE_CURVE ( 'NONE', #747, #702, #596, .T. ) ;
#630 = FACE_OUTER_BOUND ( 'NONE', #650, .T. ) ;
#631 = EDGE_CURVE ( 'NONE', #615, #549, #137, .T. ) ;
#632 = ORIENTED_EDGE ( 'NONE', *, *, #112, .T. ) ;
#633 = CARTESIAN_POINT ( 'NONE',  ( 5.000000000000166089, 12.89999999999998082, 3.600000000000004974 ) ) ;
#634 = CARTESIAN_POINT ( 'NONE',  ( 4.820112846583001759E-14, 15.00000000000000000, -1.499999999999983569 ) ) ;
#635 = DIRECTION ( 'NONE',  ( -3.304235192336773934E-15, -1.000000000000000000, 0.000000000000000000 ) ) ;
#636 = CARTESIAN_POINT ( 'NONE',  ( 8.000000000000149214, 7.799999999987555555, 2.184646356684093763E-15 ) ) ;
#637 = ORIENTED_EDGE ( 'NONE', *, *, #713, .T. ) ;
#638 = CARTESIAN_POINT ( 'NONE',  ( 5.000000000000128786, 2.099999999999983213, -5.699999999999995737 ) ) ;
#639 = CARTESIAN_POINT ( 'NONE',  ( 7.888609052210118054E-28, -1.110223024625156540E-13, 0.000000000000000000 ) ) ;
#640 = FACE_OUTER_BOUND ( 'NONE', #516, .T. ) ;
#641 = ORIENTED_EDGE ( 'NONE', *, *, #698, .F. ) ;
#642 = DIRECTION ( 'NONE',  ( 0.000000000000000000, 0.000000000000000000, 1.000000000000000000 ) ) ;
#643 = VECTOR ( 'NONE', #270, 1000.000000000000000 ) ;
#644 = EDGE_CURVE ( 'NONE', #458, #801, #59, .T. ) ;
#645 = VECTOR ( 'NONE', #812, 1000.000000000000000 ) ;
#646 = DIRECTION ( 'NONE',  ( 1.000000000000000000, 3.430248998885765387E-15, 2.168404344971007685E-15 ) ) ;
#647 = DIRECTION ( 'NONE',  ( -1.000000000000000000, -3.430248998885765781E-15, -2.168404344971008868E-15 ) ) ;
#648 = CARTESIAN_POINT ( 'NONE',  ( -5.000000000000128786, 2.099999999999949019, 3.600000000000004974 ) ) ;
#649 = PLANE ( 'NONE',  #37 ) ;
#650 = EDGE_LOOP ( 'NONE', ( #128, #310, #244, #11 ) ) ;
#651 = ADVANCED_FACE ( 'NONE', ( #254 ), #606, .T. ) ;
#652 = CARTESIAN_POINT ( 'NONE',  ( -8.000000000000166978, 12.89999999999997016, 1.499999999999998224 ) ) ;
#653 = SURFACE_SIDE_STYLE ('',( #57 ) ) ;
#654 = CARTESIAN_POINT ( 'NONE',  ( 8.000000000000174083, 14.99999999999997158, 3.599999999999998757 ) ) ;
#655 = EDGE_CURVE ( 'NONE', #186, #568, #799, .T. ) ;
#656 = DIRECTION ( 'NONE',  ( 1.000000000000000000, 3.430248998885766176E-15, 0.000000000000000000 ) ) ;
#657 = DIRECTION ( 'NONE',  ( -3.304235192336772356E-15, -1.000000000000000000, 0.000000000000000000 ) ) ;
#658 = ORIENTED_EDGE ( 'NONE', *, *, #203, .T. ) ;
#659 = CARTESIAN_POINT ( 'NONE',  ( -8.869848480983618444, -6.452782645253420208E-14, 4.469848480983497296 ) ) ;
#660 = ORIENTED_EDGE ( 'NONE', *, *, #876, .F. ) ;
#661 = VECTOR ( 'NONE', #714, 1000.000000000000000 ) ;
#662 = CIRCLE ( 'NONE', #246, 2.100000000000000977 ) ;
#663 = AXIS2_PLACEMENT_3D ( 'NONE', #87, #19, #561 ) ;
#664 = CARTESIAN_POINT ( 'NONE',  ( 5.000000000000114575, 2.099999999999983213, -3.599999999999994760 ) ) ;
#665 = ORIENTED_EDGE ( 'NONE', *, *, #543, .F. ) ;
#666 = EDGE_LOOP ( 'NONE', ( #94, #508, #464, #609 ) ) ;
#667 = DIRECTION ( 'NONE',  ( 1.000000000000000000, 3.430248998885766176E-15, 2.168404344971008868E-15 ) ) ;
#668 = ORIENTED_EDGE ( 'NONE', *, *, #841, .T. ) ;
#669 = ORIENTED_EDGE ( 'NONE', *, *, #849, .F. ) ;
#670 = ADVANCED_BREP_SHAPE_REPRESENTATION ( '\X2\7f1351b24ef6\X0\', ( #240, #871 ), #248 ) ;
#671 = DIRECTION ( 'NONE',  ( 1.000000000000000000, 3.430248998885766570E-15, -0.000000000000000000 ) ) ;
#672 = ADVANCED_FACE ( 'NONE', ( #331 ), #204, .F. ) ;
#673 = VECTOR ( 'NONE', #579, 1000.000000000000000 ) ;
#674 = EDGE_CURVE ( 'NONE', #124, #334, #8, .T. ) ;
#675 = APPLICATION_CONTEXT ( 'automotive_design' ) ;
#676 = AXIS2_PLACEMENT_3D ( 'NONE', #526, #209, #880 ) ;
#677 = DIRECTION ( 'NONE',  ( 1.000000000000000000, 3.430248998885766176E-15, 2.168404344971008868E-15 ) ) ;
#678 = ORIENTED_EDGE ( 'NONE', *, *, #690, .F. ) ;
#679 = CARTESIAN_POINT ( 'NONE',  ( 10.10000000000012754, 2.100000000000000533, 2.433431542689720161E-15 ) ) ;
#680 = FACE_OUTER_BOUND ( 'NONE', #14, .T. ) ;
#681 = ORIENTED_EDGE ( 'NONE', *, *, #203, .F. ) ;
#682 = DIRECTION ( 'NONE',  ( -1.000000000000000000, -3.430248998885766570E-15, 0.000000000000000000 ) ) ;
#683 = CARTESIAN_POINT ( 'NONE',  ( -1.235990476633466693E-14, -3.430248998885697624E-14, 5.700000000000016165 ) ) ;
#684 = EDGE_CURVE ( 'NONE', #702, #491, #705, .T. ) ;
#685 = ORIENTED_EDGE ( 'NONE', *, *, #841, .F. ) ;
#686 = VECTOR ( 'NONE', #68, 1000.000000000000000 ) ;
#687 = CARTESIAN_POINT ( 'NONE',  ( -20.00099999999958555, 11.99999999998765610, 1.927470528863148532E-15 ) ) ;
#688 = VECTOR ( 'NONE', #90, 1000.000000000000000 ) ;
#689 = ORIENTED_EDGE ( 'NONE', *, *, #493, .F. ) ;
#690 = EDGE_CURVE ( 'NONE', #430, #790, #843, .T. ) ;
#691 = DIRECTION ( 'NONE',  ( -1.000000000000000000, -3.430248998885766176E-15, -2.168404344971008868E-15 ) ) ;
#692 = ORIENTED_EDGE ( 'NONE', *, *, #4, .F. ) ;
#693 = CARTESIAN_POINT ( 'NONE',  ( 2.910922037445107443E-12, -848.6037131387984118, 0.000000000000000000 ) ) ;
#694 = DIRECTION ( 'NONE',  ( -1.000000000000000000, 3.430248998885766570E-15, -0.000000000000000000 ) ) ;
#695 = ORIENTED_EDGE ( 'NONE', *, *, #83, .F. ) ;
#696 = CARTESIAN_POINT ( 'NONE',  ( -19.99999999999950262, -10.00000000000019007, 2.449293598294651293E-15 ) ) ;
#697 = ADVANCED_FACE ( 'NONE', ( #43 ), #308, .F. ) ;
#698 = EDGE_CURVE ( 'NONE', #469, #458, #410, .T. ) ;
#699 = FACE_OUTER_BOUND ( 'NONE', #350, .T. ) ;
#700 = PRESENTATION_LAYER_ASSIGNMENT (  '', '', ( #459 ) ) ;
#701 = AXIS2_PLACEMENT_3D ( 'NONE', #158, #836, #419 ) ;
#702 = VERTEX_POINT ( 'NONE', #172 ) ;
#703 = VECTOR ( 'NONE', #646, 1000.000000000000000 ) ;
#704 = CARTESIAN_POINT ( 'NONE',  ( 5.000000000000164313, 11.99999999998756905, 1.927470528863148532E-15 ) ) ;
#705 = LINE ( 'NONE', #566, #41 ) ;
#706 = CARTESIAN_POINT ( 'NONE',  ( -10.10000000000012221, -6.894800487760358423E-14, -5.700000000000007283 ) ) ;
#707 = DIRECTION ( 'NONE',  ( -1.000000000000000000, 3.430248998885766570E-15, -0.000000000000000000 ) ) ;
#708 = ORIENTED_EDGE ( 'NONE', *, *, #327, .F. ) ;
#709 = DIRECTION ( 'NONE',  ( 3.304235192336772356E-15, -1.000000000000000000, 0.000000000000000000 ) ) ;
#710 = UNCERTAINTY_MEASURE_WITH_UNIT (LENGTH_MEASURE( 1.000000000000000082E-05 ), #257, 'distance_accuracy_value', 'NONE');
#711 = CARTESIAN_POINT ( 'NONE',  ( 5.000000000000150102, 7.799999999987566213, 2.184646356684092974E-15 ) ) ;
#712 = PRODUCT ( '\X2\7f1351b24ef6\X0\', '\X2\7f1351b24ef6\X0\', '', ( #583 ) ) ;
#713 = EDGE_CURVE ( 'NONE', #568, #797, #111, .T. ) ;
#714 = DIRECTION ( 'NONE',  ( 1.000000000000000000, 3.430248998885766176E-15, 2.168404344971007685E-15 ) ) ;
#715 = ORIENTED_EDGE ( 'NONE', *, *, #674, .F. ) ;
#716 = DIRECTION ( 'NONE',  ( -1.000000000000000000, 3.430248998885766570E-15, -0.000000000000000000 ) ) ;
#717 = DIRECTION ( 'NONE',  ( 1.000000000000000000, -3.430248998885766570E-15, 2.409338161078898687E-16 ) ) ;
#718 = ORIENTED_EDGE ( 'NONE', *, *, #644, .F. ) ;
#719 = VECTOR ( 'NONE', #411, 1000.000000000000000 ) ;
#720 = EDGE_CURVE ( 'NONE', #264, #576, #504, .T. ) ;
#721 = DIRECTION ( 'NONE',  ( -3.430248998885766176E-15, 1.000000000000000000, 0.000000000000000000 ) ) ;
#722 = DIRECTION ( 'NONE',  ( -3.304235192336773934E-15, -1.000000000000000000, 0.000000000000000000 ) ) ;
#723 = ORIENTED_EDGE ( 'NONE', *, *, #737, .F. ) ;
#724 = ORIENTED_EDGE ( 'NONE', *, *, #525, .T. ) ;
#725 = DIRECTION ( 'NONE',  ( 3.304235192336772356E-15, -1.000000000000000000, 0.000000000000000000 ) ) ;
#726 = CARTESIAN_POINT ( 'NONE',  ( 8.000000000000129674, 0.8698484809834930997, 3.599999999999997868 ) ) ;
#727 = EDGE_LOOP ( 'NONE', ( #750, #142 ) ) ;
#728 = ORIENTED_EDGE ( 'NONE', *, *, #191, .F. ) ;
#729 = ADVANCED_FACE ( 'NONE', ( #787 ), #250, .T. ) ;
#730 = DIRECTION ( 'NONE',  ( -1.000000000000000000, -3.430248998885766570E-15, 0.000000000000000000 ) ) ;
#731 = ORIENTED_EDGE ( 'NONE', *, *, #860, .T. ) ;
#732 =( NAMED_UNIT ( * ) PLANE_ANGLE_UNIT ( ) SI_UNIT ( $, .RADIAN. ) );
#733 = VECTOR ( 'NONE', #677, 1000.000000000000000 ) ;
#734 = CARTESIAN_POINT ( 'NONE',  ( -4.099760556816990819E-14, 12.89999999999999858, -1.499999999999983569 ) ) ;
#735 = DIRECTION ( 'NONE',  ( -1.000000000000000000, -3.430248998885766570E-15, 2.409338161078898687E-16 ) ) ;
#736 = CARTESIAN_POINT ( 'NONE',  ( -8.000000000000166978, 12.89999999999997016, 3.599999999999998757 ) ) ;
#737 = EDGE_CURVE ( 'NONE', #763, #839, #462, .T. ) ;
#738 = ORIENTED_EDGE ( 'NONE', *, *, #154, .T. ) ;
#739 = DIRECTION ( 'NONE',  ( -3.430248998885764598E-15, 1.000000000000000000, 0.000000000000000000 ) ) ;
#740 = CYLINDRICAL_SURFACE ( 'NONE', #460, 2.100000000000002753 ) ;
#741 = VERTEX_POINT ( 'NONE', #770 ) ;
#742 = CIRCLE ( 'NONE', #208, 2.100000000000000089 ) ;
#743 = AXIS2_PLACEMENT_3D ( 'NONE', #463, #85, #416 ) ;
#744 = CARTESIAN_POINT ( 'NONE',  ( 20.00000000000246558, -848.6037131387982981, 0.000000000000000000 ) ) ;
#745 = ORIENTED_EDGE ( 'NONE', *, *, #541, .T. ) ;
#746 = LINE ( 'NONE', #210, #817 ) ;
#747 = VERTEX_POINT ( 'NONE', #302 ) ;
#748 = CARTESIAN_POINT ( 'NONE',  ( -8.000000000000168754, 12.89999999999997016, -3.600000000000001421 ) ) ;
#749 = EDGE_CURVE ( 'NONE', #239, #133, #313, .T. ) ;
#750 = ORIENTED_EDGE ( 'NONE', *, *, #427, .T. ) ;
#751 = AXIS2_PLACEMENT_3D ( 'NONE', #553, #694, #756 ) ;
#752 = DIRECTION ( 'NONE',  ( -1.000000000000000000, -3.430248998885766570E-15, 0.000000000000000000 ) ) ;
#753 = AXIS2_PLACEMENT_3D ( 'NONE', #222, #226, #497 ) ;
#754 = ORIENTED_EDGE ( 'NONE', *, *, #759, .T. ) ;
#755 = DIRECTION ( 'NONE',  ( -1.000000000000000000, -3.430248998885766964E-15, -0.000000000000000000 ) ) ;
#756 = DIRECTION ( 'NONE',  ( -3.304235192336772356E-15, -1.000000000000000000, 0.000000000000000000 ) ) ;
#757 =( BOUNDED_CURVE ( )  B_SPLINE_CURVE ( 3, ( #282, #93, #521, #39 ),
 .UNSPECIFIED., .F., .F. ) 
 B_SPLINE_CURVE_WITH_KNOTS ( ( 4, 4 ),
 ( 4.712388980384689674, 6.283185307179586232 ),
 .UNSPECIFIED. ) 
 CURVE ( )  GEOMETRIC_REPRESENTATION_ITEM ( )  RATIONAL_B_SPLINE_CURVE ( ( 1.000000000000000000, 0.8047378541243649375, 0.8047378541243649375, 1.000000000000000000 ) ) 
 REPRESENTATION_ITEM ( '' )  );
#758 = VERTEX_POINT ( 'NONE', #633 ) ;
#759 = EDGE_CURVE ( 'NONE', #741, #264, #775, .T. ) ;
#760 = DIRECTION ( 'NONE',  ( -1.000000000000000000, -3.430248998885766176E-15, 2.168404344971007685E-15 ) ) ;
#761 = EDGE_CURVE ( 'NONE', #239, #252, #24, .T. ) ;
#762 = FACE_OUTER_BOUND ( 'NONE', #321, .T. ) ;
#763 = VERTEX_POINT ( 'NONE', #101 ) ;
#764 = DIRECTION ( 'NONE',  ( 3.430248998885766176E-15, -1.000000000000000000, -0.000000000000000000 ) ) ;
#765 = CARTESIAN_POINT ( 'NONE',  ( 5.000000000000128786, 2.099999999999983658, 3.600000000000004974 ) ) ;
#766 = AXIS2_PLACEMENT_3D ( 'NONE', #562, #647, #499 ) ;
#767 = AXIS2_PLACEMENT_3D ( 'NONE', #135, #536, #813 ) ;
#768 = PLANE ( 'NONE',  #517 ) ;
#769 = ORIENTED_EDGE ( 'NONE', *, *, #73, .T. ) ;
#770 = CARTESIAN_POINT ( 'NONE',  ( 5.000000000000166089, 12.89999999999998082, -3.599999999999994760 ) ) ;
#771 = ADVANCED_FACE ( 'NONE', ( #620 ), #359, .T. ) ;
#772 = DIRECTION ( 'NONE',  ( -0.000000000000000000, -0.000000000000000000, -1.000000000000000000 ) ) ;
#773 = DIRECTION ( 'NONE',  ( -3.430248998885766570E-15, 1.000000000000000000, 0.000000000000000000 ) ) ;
#774 = EDGE_LOOP ( 'NONE', ( #792, #604, #89, #166 ) ) ;
#775 = LINE ( 'NONE', #95, #535 ) ;
#776 = DIRECTION ( 'NONE',  ( 2.409338161078898687E-16, 8.264629815018164989E-31, 1.000000000000000000 ) ) ;
#777 = DIRECTION ( 'NONE',  ( -1.000000000000000000, -3.430248998885766570E-15, 0.000000000000000000 ) ) ;
#778 = CARTESIAN_POINT ( 'NONE',  ( 8.000000000000175859, 14.99999999999997158, -3.600000000000001421 ) ) ;
#779 = ORIENTED_EDGE ( 'NONE', *, *, #684, .T. ) ;
#780 = CARTESIAN_POINT ( 'NONE',  ( -5.000000000000168754, 14.99999999999998224, 1.500000000000004885 ) ) ;
#781 = VERTEX_POINT ( 'NONE', #418 ) ;
#782 =( NAMED_UNIT ( * ) PLANE_ANGLE_UNIT ( ) SI_UNIT ( $, .RADIAN. ) );
#783 = VECTOR ( 'NONE', #365, 1000.000000000000000 ) ;
#784 = CIRCLE ( 'NONE', #20, 2.100000000000001865 ) ;
#785 = VERTEX_POINT ( 'NONE', #284 ) ;
#786 = VECTOR ( 'NONE', #346, 1000.000000000000000 ) ;
#787 = FACE_OUTER_BOUND ( 'NONE', #286, .T. ) ;
#788 = CARTESIAN_POINT ( 'NONE',  ( -8.000000000000129674, 2.099999999999938805, -3.600000000000001421 ) ) ;
#789 = CARTESIAN_POINT ( 'NONE',  ( -8.000000000000156319, 9.899999999987556976, 1.927470528863148532E-15 ) ) ;
#790 = VERTEX_POINT ( 'NONE', #162 ) ;
#791 = EDGE_CURVE ( 'NONE', #62, #808, #219, .T. ) ;
#792 = ORIENTED_EDGE ( 'NONE', *, *, #525, .F. ) ;
#793 =( BOUNDED_CURVE ( )  B_SPLINE_CURVE ( 3, ( #185, #659, #46, #457 ),
 .UNSPECIFIED., .F., .F. ) 
 B_SPLINE_CURVE_WITH_KNOTS ( ( 4, 4 ),
 ( 4.712388980384689674, 6.283185307179586232 ),
 .UNSPECIFIED. ) 
 CURVE ( )  GEOMETRIC_REPRESENTATION_ITEM ( )  RATIONAL_B_SPLINE_CURVE ( ( 1.000000000000000000, 0.8047378541243649375, 0.8047378541243649375, 1.000000000000000000 ) ) 
 REPRESENTATION_ITEM ( '' )  );
#794 = ADVANCED_FACE ( 'NONE', ( #827 ), #153, .T. ) ;
#795 = CARTESIAN_POINT ( 'NONE',  ( 8.869848480983632655, -3.560069979555481896E-15, 4.469848480983496408 ) ) ;
#796 = ORIENTED_EDGE ( 'NONE', *, *, #580, .F. ) ;
#797 = VERTEX_POINT ( 'NONE', #492 ) ;
#798 =( BOUNDED_CURVE ( )  B_SPLINE_CURVE ( 3, ( #381, #726, #795, #507 ),
 .UNSPECIFIED., .F., .F. ) 
 B_SPLINE_CURVE_WITH_KNOTS ( ( 4, 4 ),
 ( 3.141592653589793116, 4.712388980384689674 ),
 .UNSPECIFIED. ) 
 CURVE ( )  GEOMETRIC_REPRESENTATION_ITEM ( )  RATIONAL_B_SPLINE_CURVE ( ( 1.000000000000000000, 0.8047378541243649375, 0.8047378541243649375, 1.000000000000000000 ) ) 
 REPRESENTATION_ITEM ( '' )  );
#799 = LINE ( 'NONE', #805, #645 ) ;
#800 = PLANE ( 'NONE',  #743 ) ;
#801 = VERTEX_POINT ( 'NONE', #487 ) ;
#802 = VECTOR ( 'NONE', #482, 1000.000000000000000 ) ;
#803 = AXIS2_PLACEMENT_3D ( 'NONE', #627, #351, #558 ) ;
#804 = EDGE_CURVE ( 'NONE', #549, #33, #838, .T. ) ;
#805 = CARTESIAN_POINT ( 'NONE',  ( 5.470634150074303789E-14, 15.00000000000000000, 1.500000000000015543 ) ) ;
#806 = CARTESIAN_POINT ( 'NONE',  ( -5.000000000000172307, 14.99999999999998224, 3.600000000000004974 ) ) ;
#807 = CARTESIAN_POINT ( 'NONE',  ( -10.10000000000012044, -6.894800487760357161E-14, 5.699999999999993960 ) ) ;
#808 = VERTEX_POINT ( 'NONE', #704 ) ;
#809 = DIRECTION ( 'NONE',  ( -3.430248998885766570E-15, -1.000000000000000000, 0.000000000000000000 ) ) ;
#810 = PLANE ( 'NONE',  #178 ) ;
#811 = EDGE_LOOP ( 'NONE', ( #626, #530, #387, #586 ) ) ;
#812 = DIRECTION ( 'NONE',  ( 1.000000000000000000, -3.430248998885765387E-15, -2.168404344971008868E-15 ) ) ;
#813 = DIRECTION ( 'NONE',  ( 1.000000000000000000, 5.551115123125905764E-15, 0.000000000000000000 ) ) ;
#814 = DIRECTION ( 'NONE',  ( 3.430248998885766570E-15, -1.000000000000000000, -0.000000000000000000 ) ) ;
#815 = ORIENTED_EDGE ( 'NONE', *, *, #173, .T. ) ;
#816 = VECTOR ( 'NONE', #814, 1000.000000000000000 ) ;
#817 = VECTOR ( 'NONE', #151, 1000.000000000000000 ) ;
#818 = AXIS2_PLACEMENT_3D ( 'NONE', #847, #755, #709 ) ;
#819 = DIRECTION ( 'NONE',  ( -1.000000000000000000, 3.430248998885766570E-15, 0.000000000000000000 ) ) ;
#820 = LINE ( 'NONE', #683, #409 ) ;
#821 = CARTESIAN_POINT ( 'NONE',  ( 20.00099999999959266, 9.899999999987652899, 1.927470528863148532E-15 ) ) ;
#822 = ORIENTED_EDGE ( 'NONE', *, *, #720, .T. ) ;
#823 = DIRECTION ( 'NONE',  ( 1.000000000000000000, 3.469446951953694258E-15, 0.000000000000000000 ) ) ;
#824 = ORIENTED_EDGE ( 'NONE', *, *, #629, .T. ) ;
#825 = DIRECTION ( 'NONE',  ( 3.430248998885766570E-15, -1.000000000000000000, 0.000000000000000000 ) ) ;
#826 = ORIENTED_EDGE ( 'NONE', *, *, #749, .T. ) ;
#827 = FACE_OUTER_BOUND ( 'NONE', #864, .T. ) ;
#828 = AXIS2_PLACEMENT_3D ( 'NONE', #851, #707, #722 ) ;
#829 = VECTOR ( 'NONE', #446, 1000.000000000000000 ) ;
#830 = CARTESIAN_POINT ( 'NONE',  ( -10.10000000000012221, -6.894800487760358423E-14, -5.700000000000007283 ) ) ;
#831 = ADVANCED_FACE ( 'NONE', ( #229 ), #157, .F. ) ;
#832 = AXIS2_PLACEMENT_3D ( 'NONE', #501, #760, #294 ) ;
#833 = ADVANCED_FACE ( 'NONE', ( #431 ), #167, .F. ) ;
#834 = VERTEX_POINT ( 'NONE', #364 ) ;
#835 = DIRECTION ( 'NONE',  ( 3.430248998885766176E-15, -1.000000000000000000, -0.000000000000000000 ) ) ;
#836 = DIRECTION ( 'NONE',  ( 1.000000000000000000, 3.430248998885766176E-15, -2.168404344971008868E-15 ) ) ;
#837 = ORIENTED_EDGE ( 'NONE', *, *, #791, .F. ) ;
#838 = LINE ( 'NONE', #298, #688 ) ;
#839 = VERTEX_POINT ( 'NONE', #696 ) ;
#840 = DIRECTION ( 'NONE',  ( -3.304235192336772356E-15, -1.000000000000000000, 0.000000000000000000 ) ) ;
#841 = EDGE_CURVE ( 'NONE', #834, #491, #426, .T. ) ;
#842 = CARTESIAN_POINT ( 'NONE',  ( 8.000000000000166978, 12.89999999999997016, 1.499999999999998224 ) ) ;
#843 = LINE ( 'NONE', #370, #703 ) ;
#844 = CYLINDRICAL_SURFACE ( 'NONE', #766, 2.100000000000000977 ) ;
#845 = CARTESIAN_POINT ( 'NONE',  ( -5.000000000000172307, 14.99999999999998224, 1.500000000000004885 ) ) ;
#846 = ORIENTED_EDGE ( 'NONE', *, *, #120, .F. ) ;
#847 = CARTESIAN_POINT ( 'NONE',  ( 20.00099999999959266, 9.899999999987652899, 1.927470528863148532E-15 ) ) ;
#848 = STYLED_ITEM ( 'NONE', ( #181 ), #670 ) ;
#849 = EDGE_CURVE ( 'NONE', #741, #834, #342, .T. ) ;
#850 = DIRECTION ( 'NONE',  ( -1.000000000000000000, -3.430248998885766176E-15, -2.168404344971007685E-15 ) ) ;
#851 = CARTESIAN_POINT ( 'NONE',  ( 5.000000000000166089, 12.89999999999998082, -1.499999999999994449 ) ) ;
#852 = ORIENTED_EDGE ( 'NONE', *, *, #849, .T. ) ;
#853 = LINE ( 'NONE', #513, #829 ) ;
#854 = FILL_AREA_STYLE ('',( #438 ) ) ;
#855 = ORIENTED_EDGE ( 'NONE', *, *, #191, .T. ) ;
#856 = CARTESIAN_POINT ( 'NONE',  ( -5.000000000000121680, -1.715124499442924858E-14, -3.599999999999994760 ) ) ;
#857 = EDGE_CURVE ( 'NONE', #86, #801, #263, .T. ) ;
#858 = CIRCLE ( 'NONE', #288, 2.100000000000000089 ) ;
#859 = VECTOR ( 'NONE', #407, 1000.000000000000000 ) ;
#860 = EDGE_CURVE ( 'NONE', #264, #124, #444, .T. ) ;
#861 = UNCERTAINTY_MEASURE_WITH_UNIT (LENGTH_MEASURE( 1.000000000000000082E-05 ), #453, 'distance_accuracy_value', 'NONE');
#862 = EDGE_LOOP ( 'NONE', ( #256, #382, #190, #401 ) ) ;
#863 =( LENGTH_UNIT ( ) NAMED_UNIT ( * ) SI_UNIT ( .MILLI., .METRE. ) );
#864 = EDGE_LOOP ( 'NONE', ( #855, #221, #723, #297 ) ) ;
#865 = LINE ( 'NONE', #881, #733 ) ;
#866 = ORIENTED_EDGE ( 'NONE', *, *, #720, .F. ) ;
#867 =( NAMED_UNIT ( * ) SI_UNIT ( $, .STERADIAN. ) SOLID_ANGLE_UNIT ( ) );
#868 = EDGE_CURVE ( 'NONE', #781, #239, #587, .T. ) ;
#869 = LINE ( 'NONE', #197, #122 ) ;
#870 = EDGE_LOOP ( 'NONE', ( #685, #345, #439, #681 ) ) ;
#871 = AXIS2_PLACEMENT_3D ( 'NONE', #448, #642, #440 ) ;
#872 = ORIENTED_EDGE ( 'NONE', *, *, #348, .F. ) ;
#873 = AXIS2_PLACEMENT_3D ( 'NONE', #220, #285, #550 ) ;
#874 = AXIS2_PLACEMENT_3D ( 'NONE', #679, #610, #1 ) ;
#875 =( GEOMETRIC_REPRESENTATION_CONTEXT ( 3 ) GLOBAL_UNCERTAINTY_ASSIGNED_CONTEXT ( ( #710 ) ) GLOBAL_UNIT_ASSIGNED_CONTEXT ( ( #257, #782, #523 ) ) REPRESENTATION_CONTEXT ( 'NONE', 'WORKASPACE' ) );
#876 = EDGE_CURVE ( 'NONE', #3, #23, #793, .T. ) ;
#877 = DIRECTION ( 'NONE',  ( -1.000000000000000000, -3.430248998885766964E-15, -0.000000000000000000 ) ) ;
#878 = DIRECTION ( 'NONE',  ( 3.430248998885766176E-15, -1.000000000000000000, -0.000000000000000000 ) ) ;
#879 = ORIENTED_EDGE ( 'NONE', *, *, #476, .F. ) ;
#880 = DIRECTION ( 'NONE',  ( -1.000000000000000000, -3.430248998885765387E-15, 0.000000000000000000 ) ) ;
#881 = CARTESIAN_POINT ( 'NONE',  ( -8.000000000000127898, 2.099999999999938805, 3.599999999999998757 ) ) ;
#882 = EDGE_LOOP ( 'NONE', ( #74, #417, #724, #152, #852, #668, #175, #613 ) ) ;
ENDSEC;
END-ISO-10303-21;
